<svg width="385" height="368" viewBox="0 0 385 368" fill="none" xmlns="http://www.w3.org/2000/svg">
<path d="M376.65 367.397H25.7363C21.503 367.397 18.0703 363.965 18.0703 359.73C18.0703 355.497 21.5019 352.064 25.7363 352.064H376.65C380.884 352.064 384.316 355.496 384.316 359.73C384.316 363.964 380.884 367.397 376.65 367.397Z" fill="black"/>
<path d="M64.8409 268.945C66.381 221.082 23.6485 179.77 45.7837 163.983C67.9189 148.196 82.5849 233.765 64.8409 268.945Z" fill="#4FB38B"/>
<path d="M65.4796 267.626C65.4796 267.626 74.0018 204.857 49.5859 175.519" stroke="#6ADD85" stroke-width="2" stroke-miterlimit="10" stroke-linecap="round" stroke-linejoin="round"/>
<path d="M65.4489 270.824C60.3616 244.517 2.18355 239.582 0.38436 219.388C-1.41372 199.193 67.1714 217.329 65.4489 270.824Z" fill="#6ADD85"/>
<path d="M64.9194 269.621C64.5413 247.665 41.0706 225.782 14.9512 221.108" stroke="#4FB38B" stroke-width="2" stroke-miterlimit="10" stroke-linecap="round" stroke-linejoin="round"/>
<path d="M71.7258 359.731H51.5721C51.5721 359.731 18.6384 340.85 37.093 311.607C52.5674 287.086 55.4652 275.883 49.3015 267.405C47.887 265.46 49.2414 262.734 51.6467 262.734H74.5691L71.7258 359.731Z" fill="#52528E"/>
<path d="M331.991 40.1879H260.371L260.686 36.4027C260.922 33.5805 258.825 31.292 256.003 31.292H182.171C179.349 31.292 176.869 33.5805 176.635 36.4027L176.319 40.1879H107.133C102.701 40.1879 98.809 43.7807 98.4387 48.212L73.1065 351.705C72.7362 356.138 76.0288 359.73 80.4612 359.73H305.319C309.751 359.73 313.644 356.137 314.014 351.705L339.346 48.212C339.715 43.7807 336.423 40.1879 331.991 40.1879Z" fill="#16183B"/>
<path d="M330.607 48.2146L305.276 351.709C304.909 356.14 301.017 359.732 296.58 359.732H71.7255C67.2942 359.732 64.0028 356.14 64.3697 351.709L80.6715 156.422L85.4141 99.5995L89.7008 48.2146C90.0733 43.7833 93.9652 40.186 98.3965 40.186H323.257C327.688 40.186 330.98 43.7833 330.607 48.2146Z" fill="#292853"/>
<path d="M79.3633 345.275L103.621 54.6445H315.617L291.359 345.275H79.3633Z" fill="#806606"/>
<path d="M244.645 62.7123H170.813C167.991 62.7123 165.894 60.4238 166.129 57.6016L167.899 36.4027C168.134 33.5805 170.613 31.292 173.435 31.292H247.267C250.089 31.292 252.186 33.5805 251.95 36.4027L250.181 57.6016C249.947 60.4238 247.468 62.7123 244.645 62.7123Z" fill="#6968C9"/>
<path d="M267.994 188.106H127.528C126.207 188.106 125.237 187.035 125.358 185.715C125.48 184.394 126.65 183.324 127.97 183.324H268.434C269.755 183.324 270.726 184.395 270.604 185.715C270.483 187.035 269.313 188.106 267.994 188.106Z" fill="white"/>
<path d="M266.21 207.361H125.746C124.425 207.361 123.454 206.29 123.577 204.97C123.699 203.649 124.868 202.579 126.189 202.579H266.653C267.974 202.579 268.945 203.65 268.822 204.97C268.701 206.29 267.531 207.361 266.21 207.361Z" fill="white"/>
<path d="M207.354 226.616H123.968C122.647 226.616 121.676 225.545 121.797 224.225C121.92 222.904 123.089 221.834 124.409 221.834H207.795C209.116 221.834 210.087 222.905 209.965 224.225C209.844 225.545 208.675 226.616 207.354 226.616Z" fill="white"/>
<path d="M262.652 245.871H122.188C120.867 245.871 119.896 244.8 120.018 243.48C120.141 242.159 121.309 241.089 122.63 241.089H263.094C264.415 241.089 265.386 242.16 265.264 243.48C265.143 244.8 263.973 245.871 262.652 245.871Z" fill="white"/>
<path d="M260.871 265.127H120.407C119.086 265.127 118.116 264.056 118.237 262.736C118.359 261.415 119.529 260.345 120.849 260.345H261.313C262.634 260.345 263.605 261.416 263.483 262.736C263.361 264.056 262.192 265.127 260.871 265.127Z" fill="white"/>
<path d="M208.444 284.381H118.625C117.304 284.381 116.333 283.31 116.456 281.99C116.578 280.669 117.747 279.599 119.068 279.599H208.886C210.207 279.599 211.178 280.67 211.057 281.99C210.935 283.311 209.765 284.381 208.444 284.381Z" fill="white"/>
<path d="M350.911 342.267H329.857L300.71 225.864L299.27 249.928L293.755 342.267H273.039L270.564 189.052L275.579 189.33L328.527 187.05L350.911 342.267Z" fill="#4B4A74"/>
<path d="M300.708 225.864L299.268 249.927L291.34 224.729L300.708 225.864Z" fill="#41436D"/>
<path d="M273.037 342.267L249.919 356.553C248.448 357.462 249.092 359.731 250.822 359.731H293.943C294.973 359.731 295.772 358.829 295.647 357.806L293.755 342.268H273.037V342.267Z" fill="#1C1B3D"/>
<path d="M330.244 342.267L322.041 356.463C321.203 357.915 322.25 359.729 323.926 359.729H350.629C351.936 359.729 352.949 358.586 352.791 357.289L350.961 342.266H330.244V342.267Z" fill="#1C1B3D"/>
<path d="M218.282 138.141L213.595 146.842C210.988 146.291 208.741 145.274 206.912 144.173C203.398 142.066 201.436 139.653 201.436 139.653L211.354 134.321L214.118 132.836L215.519 134.621L216.314 135.633L218.282 138.141Z" fill="#F3ABA3"/>
<path d="M216.642 134.733C216.642 134.733 216.559 135.072 216.314 135.634C215.547 137.435 213.184 141.544 206.912 144.174C203.398 142.066 201.436 139.653 201.436 139.653L211.354 134.321L211.888 134.26L215.519 134.622L216.642 134.733Z" fill="#DF6F74"/>
<path d="M201.438 141.718C212.727 141.718 221.879 132.566 221.879 121.276C221.879 109.987 212.727 100.834 201.438 100.834C190.148 100.834 180.996 109.987 180.996 121.276C180.996 132.566 190.148 141.718 201.438 141.718Z" fill="#6ADD85"/>
<path d="M196.646 120.317L200.48 124.15L206.228 118.401" stroke="white" stroke-width="2.5" stroke-miterlimit="10" stroke-linecap="round" stroke-linejoin="round"/>
<path d="M221.881 139.139C221.881 139.139 213.974 127.917 212.555 128.532C211.135 129.147 211.135 131.371 212.035 133.027C212.934 134.683 214.59 137.618 214.59 137.618C214.59 137.618 212.129 144.147 212.318 145.899C212.507 147.65 219.368 149.589 219.368 149.589" fill="#F3ABA3"/>
<path d="M329.075 187.73C329.075 188.275 315.765 188.942 301.843 189.331C286.586 189.754 270.562 189.843 270.562 189.053C270.562 188.492 270.629 183.449 270.707 177.316C270.735 175.42 270.763 173.413 270.79 171.406C270.813 169.71 270.835 168.02 270.863 166.385C270.885 164.272 270.913 162.26 270.941 160.475C270.996 156.3 271.035 153.375 271.035 153.375L267.393 160.475L264.358 166.385L264.274 166.552C263.935 167.214 263.524 167.82 263.051 168.359C261.644 169.994 259.726 171.05 257.675 171.406C256.802 171.562 255.895 171.584 254.995 171.473C253.805 171.334 252.621 170.95 251.514 170.311L216.998 150.345L222.108 138.613L253.627 152.619L256.429 145.791L264.335 126.498C266.415 121.417 270.707 117.569 275.989 116.057L286.886 112.932L292.046 111.453H303.461L306.852 111.931L320.913 113.911C320.913 113.911 322.081 124.43 323.532 137.529C324.338 144.835 325.239 152.941 326.073 160.475C326.295 162.493 326.518 164.473 326.729 166.385C326.918 168.126 327.107 169.805 327.285 171.406C327.518 173.524 327.735 175.509 327.935 177.316C328.608 183.41 329.053 187.463 329.075 187.73Z" fill="#6968C9"/>
<path d="M270.939 160.475H313.923L311.449 166.385H270.861C270.884 164.272 270.911 162.259 270.939 160.475Z" fill="#888CE7"/>
<path d="M309.351 171.406L306.876 177.316H270.709C270.737 175.42 270.765 173.413 270.792 171.406H309.351Z" fill="#888CE7"/>
<path d="M306.852 111.931C306.23 116.941 302.984 121.814 296.783 121.814C290.996 121.814 287.915 117.447 286.887 112.932L292.046 111.453H303.461L306.852 111.931Z" fill="white"/>
<path d="M326.728 166.385H311.449L313.923 160.475H326.072C326.15 161.192 326.228 161.898 326.305 162.598C326.383 163.271 326.455 163.944 326.528 164.606C326.594 165.206 326.661 165.801 326.728 166.385Z" fill="#6968C9"/>
<path d="M326.074 160.475H313.926L323.533 137.529C324.34 144.835 325.24 152.941 326.074 160.475Z" fill="#45499A"/>
<path d="M327.934 177.316H306.873L309.347 171.406H327.284C327.517 173.524 327.734 175.509 327.934 177.316Z" fill="#6968C9"/>
<path d="M327.286 171.406H309.35L311.451 166.385H326.73C326.919 168.126 327.108 169.805 327.286 171.406Z" fill="#45499A"/>
<path d="M329.074 187.729C329.074 188.274 315.764 188.941 301.842 189.33L306.874 177.315H327.935C328.607 183.409 329.052 187.462 329.074 187.729Z" fill="#45499A"/>
<path d="M326.84 197.425L318.483 226.04C318.23 226.905 317.323 227.402 316.458 227.15L278.849 216.164C277.984 215.912 277.487 215.004 277.74 214.139L286.097 185.525C286.35 184.659 287.257 184.162 288.122 184.415L325.731 195.4C326.597 195.653 327.093 196.559 326.84 197.425Z" fill="white"/>
<path d="M313.27 187.041C313.27 187.041 305.178 187.325 304.611 188.531C304.043 189.738 309.722 190.802 309.722 190.802C309.722 190.802 304.753 197.331 300.92 198.042C297.087 198.751 304.185 205.92 309.438 205.778C314.69 205.636 320.084 195.533 322.782 193.132" fill="#F3ABA3"/>
<path d="M343.904 165.001L322.476 195.202L311.59 186.874L330.594 155.276L329.254 152.041L313.091 113.065L321.737 114.339C326.93 115.1 331.361 118.503 333.44 123.324L345.378 150.951C347.374 155.571 346.818 160.898 343.904 165.001Z" fill="#6968C9"/>
<path d="M333.544 150.344L330.592 155.276L329.252 152.04L333.544 150.344Z" fill="#45499A"/>
<path d="M271.037 138.708V153.375L264.276 166.552C263.937 167.214 263.525 167.82 263.053 168.359L271.037 138.708Z" fill="#45499A"/>
<path d="M259.326 155.243L253.627 152.619L256.429 145.791L259.326 155.243Z" fill="#45499A"/>
<path d="M284.297 86.7274C277.861 86.3371 274.87 81.1364 276.301 78.8601C277.731 76.585 281.177 77.4301 281.177 77.4301C281.177 77.4301 277.212 73.0088 280.526 69.823C283.842 66.6372 288.588 72.1637 293.4 73.0088C298.211 73.8539 304.518 72.4884 306.923 74.7647C309.328 77.0398 307.768 81.5267 307.768 81.5267C307.768 81.5267 312.123 81.917 310.629 88.0284C309.134 94.1399 306.013 99.731 305.428 102.527C304.843 105.322 296.327 103.762 295.221 100.316" fill="#1C1B3D"/>
<path d="M297.441 118.394C293.896 118.766 290.718 116.189 290.346 112.644L290.214 111.381L288.961 99.4084L300.909 98.1551L301.806 98.064L301.963 99.5663L302.621 105.861L303.191 111.295C303.562 114.845 300.99 118.023 297.441 118.394Z" fill="#F3ABA3"/>
<path d="M302.617 105.861C301.022 110.073 295.084 112.089 290.21 111.382L288.957 99.4095L300.905 98.1562C301.302 98.5588 301.654 99.0269 301.959 99.5674L302.617 105.861Z" fill="#DF6F74"/>
<path d="M283.39 82.3066C291.907 86.858 302.634 86.7279 302.634 86.7279C302.634 86.7279 302.569 94.0092 303.089 94.6597C303.609 95.3102 303.349 90.6287 306.014 89.3933C308.68 88.1579 310.89 92.5069 309.851 94.7208C308.81 96.9348 305.82 96.2843 305.82 96.2843C305.82 96.2843 304.52 100.575 302.081 103.663C299.643 106.751 295.732 108.67 291.213 108.442C286.695 108.214 282.414 103.435 282.966 95.8617C283.519 88.288 283.39 82.3066 283.39 82.3066Z" fill="#F3ABA3"/>
<path d="M306.892 94.595C305.201 94.4972 305.592 91.6694 306.892 91.377" stroke="#DF6F74" stroke-width="0.458" stroke-miterlimit="10" stroke-linecap="round" stroke-linejoin="round"/>
<path d="M290.081 93.2402L288.838 97.0799C288.714 97.4625 288.908 97.875 289.281 98.024L290.406 98.4744" stroke="#DF6F74" stroke-width="0.458" stroke-miterlimit="10" stroke-linecap="round" stroke-linejoin="round"/>
<path d="M296.781 93.8796C296.781 94.4267 296.337 94.8715 295.789 94.8715C295.242 94.8715 294.797 94.4278 294.797 93.8796C294.797 93.3325 295.241 92.8877 295.789 92.8877C296.337 92.8877 296.781 93.3314 296.781 93.8796Z" fill="#1C1B3D"/>
<path d="M286.833 93.8796C286.833 94.4267 286.39 94.8715 285.841 94.8715C285.293 94.8715 284.85 94.4278 284.85 93.8796C284.85 93.3325 285.293 92.8877 285.841 92.8877C286.39 92.8877 286.833 93.3314 286.833 93.8796Z" fill="#1C1B3D"/>
<path d="M293.947 90.7079C293.947 90.7079 295.93 89.18 298.238 90.7079" stroke="#1C1B3D" stroke-width="0.458" stroke-miterlimit="10" stroke-linecap="round" stroke-linejoin="round"/>
<path d="M287.988 90.7079C287.988 90.7079 286.006 89.18 283.697 90.7079" stroke="#1C1B3D" stroke-width="0.458" stroke-miterlimit="10" stroke-linecap="round" stroke-linejoin="round"/>
<path d="M295.096 100.834C295.249 102.026 294.407 103.117 293.215 103.269C292.023 103.423 290.932 102.58 290.779 101.388" fill="white"/>
<path d="M171.28 105.231L165.809 151.968C165.509 154.509 163.357 156.421 160.8 156.421H80.6699L85.4125 99.5986H166.271C169.29 99.5986 171.63 102.234 171.28 105.231Z" fill="#292853"/>
<path d="M151.218 146.842H39.9036C36.8857 146.842 34.5439 144.21 34.8941 141.212L40.3651 94.4764C40.6631 91.9355 42.8159 90.0195 45.3746 90.0195H156.689C159.707 90.0195 162.049 92.6516 161.698 95.6495L156.227 142.385C155.929 144.926 153.777 146.842 151.218 146.842Z" fill="#B19220"/>
<path d="M93.5175 77.5604L91.9252 66.1759L80.6719 68.5211L105.372 33.4224L118.217 42.4617L93.5175 77.5604Z" fill="black"/>
<path d="M141.958 77.5604L143.55 66.1759L154.803 68.5211L130.102 33.4224L117.258 42.4617L141.958 77.5604Z" fill="black"/>
<path d="M147.392 30.7014L144.63 32.4161C144.113 32.7364 144.028 33.4536 144.452 33.8884L146.726 36.208C147.22 36.7117 147.012 37.559 146.34 37.777L143.25 38.7789C142.672 38.9657 142.416 39.6407 142.724 40.1644L144.373 42.9644C144.731 43.5727 144.326 44.3444 143.622 44.3933L140.381 44.6224C139.774 44.6646 139.364 45.2595 139.538 45.8422L140.469 48.9558C140.672 49.6308 140.092 50.2835 139.398 50.1634L136.196 49.613C135.596 49.5096 135.056 49.9888 135.086 50.596L135.248 53.8407C135.284 54.5446 134.567 55.0406 133.921 54.7593L130.942 53.4604C130.385 53.218 129.745 53.5539 129.63 54.1499L129.01 57.3391C128.876 58.0318 128.06 58.341 127.5 57.9117L124.921 55.9357C124.439 55.5666 123.738 55.7378 123.482 56.2893L122.112 59.2372C121.816 59.8766 120.95 59.9811 120.51 59.4307L118.48 56.8943C118.099 56.4194 117.377 56.4194 116.996 56.8943L114.966 59.4307C114.525 59.9811 113.66 59.8766 113.363 59.2372L111.993 56.2893C111.738 55.7378 111.037 55.5654 110.554 55.9357L107.976 57.9117C107.415 58.341 106.6 58.0307 106.466 57.3391L105.846 54.1499C105.731 53.5527 105.091 53.2169 104.534 53.4604L101.555 54.7593C100.909 55.0406 100.192 54.5446 100.227 53.8407L100.39 50.596C100.42 49.9888 99.8794 49.5096 99.28 49.6119L96.0775 50.1623C95.3825 50.2813 94.8043 49.6296 95.0067 48.9536L95.9374 45.84C96.112 45.2573 95.7006 44.6635 95.0945 44.6202L91.8542 44.3911C91.1503 44.341 90.7444 43.5693 91.1025 42.9622L92.7516 40.1622C93.0596 39.6385 92.8038 38.9646 92.2256 38.7767L89.1354 37.7748C88.4638 37.5568 88.2558 36.7095 88.7495 36.2069L91.0235 33.8873C91.4494 33.4525 91.3627 32.7364 90.8456 32.415L88.0835 30.7003C87.4852 30.3289 87.4852 29.4582 88.0835 29.0868L90.8456 27.3721C91.3627 27.0519 91.4483 26.3346 91.0235 25.8999L88.7495 23.5803C88.2558 23.0765 88.4638 22.2292 89.1354 22.0124L92.2256 21.0104C92.8038 20.8236 93.0596 20.1487 92.7516 19.6249L91.1025 16.8249C90.7444 16.2167 91.1503 15.445 91.8542 15.396L95.0945 15.167C95.7017 15.1236 96.112 14.5298 95.9374 13.9471L95.0067 10.8335C94.8043 10.1586 95.3825 9.50584 96.0775 9.62482L99.28 10.1753C99.8794 10.2787 100.42 9.7994 100.39 9.19115L100.227 5.94637C100.192 5.24248 100.909 4.74653 101.555 5.02786L104.534 6.32666C105.091 6.56908 105.731 6.23326 105.846 5.63724L106.466 2.44806C106.6 1.75529 107.416 1.44616 107.976 1.87538L110.554 3.85138C111.037 4.22056 111.738 4.04932 111.993 3.49777L113.363 0.549893C113.66 -0.089499 114.525 -0.194021 114.967 0.356412L116.997 2.89285C117.378 3.36767 118.1 3.36767 118.481 2.89285L120.511 0.356412C120.952 -0.194021 121.817 -0.089499 122.115 0.549893L123.485 3.49777C123.74 4.04932 124.441 4.22056 124.924 3.85138L127.502 1.87538C128.063 1.44616 128.878 1.75529 129.012 2.44806L129.632 5.63724C129.747 6.23437 130.387 6.57019 130.944 6.32666L133.923 5.02786C134.569 4.74653 135.286 5.24137 135.251 5.94637L135.088 9.19115C135.058 9.79829 135.599 10.2776 136.198 10.1753L139.401 9.62482C140.096 9.50584 140.674 10.1575 140.471 10.8335L139.541 13.9471C139.366 14.5298 139.777 15.1236 140.384 15.167L143.624 15.396C144.328 15.4461 144.734 16.2178 144.376 16.8249L142.726 19.6249C142.418 20.1487 142.674 20.8236 143.252 21.0104L146.343 22.0124C147.014 22.2303 147.222 23.0765 146.729 23.5803L144.456 25.8999C144.03 26.3346 144.116 27.0508 144.634 27.3721L147.396 29.0868C147.991 29.4582 147.991 30.3289 147.392 30.7014Z" fill="#F5BC65"/>
<path d="M117.735 51.5309C129.685 51.5309 139.372 41.8437 139.372 29.8939C139.372 17.9441 129.685 8.25684 117.735 8.25684C105.785 8.25684 96.0977 17.9441 96.0977 29.8939C96.0977 41.8437 105.785 51.5309 117.735 51.5309Z" fill="#DAAE04"/>
<path d="M55.1127 116.423H52.9352C52.8954 116.141 52.8142 115.891 52.6916 115.672C52.569 115.45 52.4115 115.261 52.2193 115.105C52.027 114.95 51.805 114.83 51.5531 114.747C51.3045 114.665 51.0344 114.623 50.7427 114.623C50.2157 114.623 49.7567 114.754 49.3656 115.016C48.9745 115.274 48.6712 115.652 48.4558 116.149C48.2404 116.643 48.1326 117.243 48.1326 117.949C48.1326 118.675 48.2404 119.285 48.4558 119.779C48.6745 120.273 48.9795 120.645 49.3706 120.897C49.7617 121.149 50.2141 121.275 50.7278 121.275C51.0162 121.275 51.283 121.237 51.5282 121.161C51.7768 121.085 51.9972 120.974 52.1895 120.828C52.3817 120.679 52.5408 120.498 52.6667 120.286C52.796 120.074 52.8855 119.832 52.9352 119.56L55.1127 119.57C55.0564 120.037 54.9155 120.488 54.6902 120.922C54.4681 121.353 54.1681 121.739 53.7903 122.081C53.4158 122.419 52.9683 122.687 52.448 122.886C51.9309 123.081 51.3459 123.179 50.693 123.179C49.7849 123.179 48.9728 122.974 48.2569 122.563C47.5443 122.152 46.9809 121.557 46.5666 120.778C46.1556 119.999 45.9501 119.056 45.9501 117.949C45.9501 116.839 46.1589 115.894 46.5765 115.115C46.9941 114.336 47.5609 113.743 48.2768 113.335C48.9927 112.925 49.7981 112.719 50.693 112.719C51.283 112.719 51.8298 112.802 52.3336 112.968C52.8407 113.133 53.2898 113.375 53.6809 113.693C54.072 114.008 54.3902 114.394 54.6355 114.852C54.8841 115.309 55.0431 115.833 55.1127 116.423ZM56.6564 123.04V112.858H63.5172V114.633H58.8091V117.059H63.1642V118.834H58.8091V121.265H63.5371V123.04H56.6564ZM65.2287 123.04V112.858H69.2457C70.0147 112.858 70.6709 112.996 71.2145 113.271C71.7614 113.543 72.1773 113.929 72.4624 114.429C72.7507 114.926 72.8949 115.511 72.8949 116.184C72.8949 116.86 72.7491 117.442 72.4574 117.929C72.1657 118.413 71.7431 118.784 71.1896 119.043C70.6394 119.301 69.9732 119.431 69.1911 119.431H66.5014V117.701H68.843C69.254 117.701 69.5954 117.644 69.8672 117.532C70.139 117.419 70.3411 117.25 70.4737 117.024C70.6096 116.799 70.6776 116.519 70.6776 116.184C70.6776 115.846 70.6096 115.561 70.4737 115.329C70.3411 115.097 70.1373 114.921 69.8622 114.802C69.5904 114.679 69.2474 114.618 68.8331 114.618H67.3814V123.04H65.2287ZM70.7273 118.407L73.2578 123.04H70.8814L68.4055 118.407H70.7273ZM74.0284 114.633V112.858H82.3906V114.633H79.2734V123.04H77.1456V114.633H74.0284ZM85.9205 112.858V123.04H83.7678V112.858H85.9205ZM87.6916 123.04V112.858H94.4331V114.633H89.8443V117.059H93.9856V118.834H89.8443V123.04H87.6916ZM98.0337 112.858V123.04H95.881V112.858H98.0337ZM108.789 116.423H106.611C106.571 116.141 106.49 115.891 106.367 115.672C106.245 115.45 106.087 115.261 105.895 115.105C105.703 114.95 105.481 114.83 105.229 114.747C104.98 114.665 104.71 114.623 104.419 114.623C103.892 114.623 103.432 114.754 103.041 115.016C102.65 115.274 102.347 115.652 102.132 116.149C101.916 116.643 101.808 117.243 101.808 117.949C101.808 118.675 101.916 119.285 102.132 119.779C102.35 120.273 102.655 120.645 103.046 120.897C103.437 121.149 103.89 121.275 104.404 121.275C104.692 121.275 104.959 121.237 105.204 121.161C105.453 121.085 105.673 120.974 105.865 120.828C106.057 120.679 106.217 120.498 106.343 120.286C106.472 120.074 106.561 119.832 106.611 119.56L108.789 119.57C108.732 120.037 108.591 120.488 108.366 120.922C108.144 121.353 107.844 121.739 107.466 122.081C107.092 122.419 106.644 122.687 106.124 122.886C105.607 123.081 105.022 123.179 104.369 123.179C103.461 123.179 102.649 122.974 101.933 122.563C101.22 122.152 100.657 121.557 100.242 120.778C99.8314 119.999 99.6259 119.056 99.6259 117.949C99.6259 116.839 99.8347 115.894 100.252 115.115C100.67 114.336 101.237 113.743 101.953 113.335C102.669 112.925 103.474 112.719 104.369 112.719C104.959 112.719 105.506 112.802 106.009 112.968C106.517 113.133 106.966 113.375 107.357 113.693C107.748 114.008 108.066 114.394 108.311 114.852C108.56 115.309 108.719 115.833 108.789 116.423ZM111.896 123.04H109.589L113.104 112.858H115.878L119.388 123.04H117.081L114.531 115.185H114.451L111.896 123.04ZM111.752 119.038H117.2V120.718H111.752V119.038ZM118.982 114.633V112.858H127.344V114.633H124.227V123.04H122.099V114.633H118.982ZM130.874 112.858V123.04H128.721V112.858H130.874ZM142.001 117.949C142.001 119.059 141.791 120.004 141.37 120.783C140.952 121.562 140.382 122.157 139.66 122.568C138.94 122.975 138.132 123.179 137.233 123.179C136.329 123.179 135.517 122.974 134.797 122.563C134.078 122.152 133.51 121.557 133.092 120.778C132.675 119.999 132.466 119.056 132.466 117.949C132.466 116.839 132.675 115.894 133.092 115.115C133.51 114.336 134.078 113.743 134.797 113.335C135.517 112.925 136.329 112.719 137.233 112.719C138.132 112.719 138.94 112.925 139.66 113.335C140.382 113.743 140.952 114.336 141.37 115.115C141.791 115.894 142.001 116.839 142.001 117.949ZM139.819 117.949C139.819 117.23 139.711 116.623 139.496 116.13C139.283 115.636 138.983 115.261 138.596 115.006C138.208 114.751 137.754 114.623 137.233 114.623C136.713 114.623 136.259 114.751 135.871 115.006C135.483 115.261 135.182 115.636 134.966 116.13C134.754 116.623 134.648 117.23 134.648 117.949C134.648 118.668 134.754 119.275 134.966 119.769C135.182 120.263 135.483 120.637 135.871 120.892C136.259 121.148 136.713 121.275 137.233 121.275C137.754 121.275 138.208 121.148 138.596 120.892C138.983 120.637 139.283 120.263 139.496 119.769C139.711 119.275 139.819 118.668 139.819 117.949ZM152.112 112.858V123.04H150.253L145.823 116.632H145.749V123.04H143.596V112.858H145.485L149.88 119.262H149.969V112.858H152.112Z" fill="white"/>
</svg>
