<svg width="65" height="63" viewBox="0 0 65 63" fill="none" xmlns="http://www.w3.org/2000/svg">
<path d="M64.0862 36.9091L60.8898 33.7561C59.6774 32.5601 57.7049 32.5601 56.4925 33.7561L56.2918 33.954L54.339 32.0277C54.1779 31.8688 54.0281 31.696 53.8727 31.5315L58.4594 27.007C59.3666 26.1121 59.8668 24.9217 59.8668 23.6561C59.8668 22.3905 59.3666 21.2001 58.4594 20.3052C57.5579 19.4159 56.3851 18.9671 55.2038 18.9337C56.2692 17.1216 56.0346 14.7604 54.4634 13.2104C53.6212 12.3796 52.5388 11.942 51.4366 11.8584L52.064 11.2395C52.9712 10.3446 53.4714 9.15424 53.4714 7.88863C53.4714 6.62301 52.9712 5.43262 52.064 4.53775C51.1568 3.64289 49.9501 3.14946 48.6671 3.14946C47.384 3.14946 46.1773 3.6429 45.2701 4.53775L44.6399 5.15942C44.5551 4.06944 44.1114 3.00451 43.2721 2.17373C41.6245 0.548503 39.0697 0.356099 37.2045 1.58831L37.165 1.54928C35.0708 -0.516426 31.6654 -0.516426 29.5713 1.54928L27.9718 3.12712C27.904 3.19403 27.8503 3.2693 27.7938 3.34178L27.384 2.93755C25.5103 1.0893 22.4637 1.0893 20.5901 2.94312C19.7479 3.7739 19.3071 4.83876 19.2223 5.92603L18.5949 5.30715C16.724 3.4589 13.6747 3.4589 11.801 5.30715C9.92734 7.1554 9.92734 10.1606 11.801 12.0089L12.4284 12.6278C11.2867 12.7142 10.2212 13.1742 9.40447 13.9798C7.83315 15.5298 7.5986 17.8883 8.66125 19.7003C7.43474 19.7365 6.28166 20.2132 5.40842 21.0774C3.53758 22.9229 3.53758 25.9281 5.40842 27.7764L10.3626 32.6633L8.70082 34.3053L8.50299 34.1102C7.29059 32.9142 5.31803 32.9142 4.10563 34.1102L0.909302 37.2632C-0.303101 38.4591 -0.303101 40.4049 0.909302 41.6009L21.6926 62.1023C22.2974 62.6989 23.0944 63 23.8914 63C24.6883 63 25.4824 62.7017 26.0901 62.1023L29.2864 58.9494C29.8742 58.3695 30.1964 57.6001 30.1964 56.7805C30.1964 55.9609 29.8742 55.1914 29.2864 54.6116L29.0857 54.4137L31.437 52.0942C31.844 51.6928 32.2821 51.3193 32.7031 50.9318C32.9914 51.2022 33.2797 51.4698 33.5623 51.7458L35.9136 54.0652L35.7129 54.2631C34.5005 55.4591 34.5005 57.4049 35.7129 58.6008L38.9092 61.7538C39.4971 62.3336 40.277 62.6514 41.108 62.6514C41.9388 62.6514 42.7189 62.3336 43.3067 61.7538L64.09 41.2523C64.6778 40.6725 65 39.9031 65 39.0834C65 38.2639 64.6778 37.4944 64.09 36.9145L64.0862 36.9091ZM42.0736 3.3504C43.286 4.54636 43.286 6.49217 42.0736 7.68813L36.4582 13.2274C36.3113 12.2238 35.8591 11.2927 35.1186 10.5623L32.7419 8.21774L37.6762 3.35033C38.8886 2.15437 40.8612 2.15444 42.0736 3.3504ZM29.1726 4.30379L30.7721 2.72594C32.1965 1.32088 34.5025 1.31531 35.9354 2.70086L31.5436 7.03302L29.1698 4.68848C29.0652 4.57976 29.0652 4.40692 29.1726 4.30098L29.1726 4.30379ZM21.7938 4.11422C23.0063 2.91826 24.976 2.91826 26.1856 4.11422L27.9519 5.85935C27.9603 5.86771 27.9632 5.87607 27.9717 5.88165L30.8486 8.71961C30.8515 8.7224 30.8571 8.72518 30.8599 8.72797L33.9178 11.7443C34.5056 12.3242 34.8278 13.0936 34.8278 13.9105C34.8278 14.73 34.5056 15.4995 33.915 16.0821C32.7026 17.2781 30.7328 17.2753 29.5232 16.0821L21.7885 8.45235C20.579 7.2564 20.5786 5.31297 21.7938 4.11422ZM12.9993 6.48102C14.2117 5.28506 16.1842 5.28506 17.3966 6.48102L28.3226 17.2588C28.9104 17.8386 29.2326 18.608 29.2326 19.4277C29.2326 20.2473 28.9076 21.0195 28.3198 21.5994C27.1074 22.7925 25.1376 22.7898 23.9252 21.5966L23.9167 21.5882L16.1987 13.9748L13.0024 10.8219C11.79 9.62591 11.79 7.6801 13.0024 6.48414L12.9993 6.48102ZM10.6027 15.1535C11.8151 13.9575 13.7849 13.9603 14.9973 15.1507L22.7182 22.7669C23.3061 23.3468 23.6282 24.1162 23.6254 24.9358C23.6254 25.7554 23.3004 26.5277 22.7069 27.1075C21.4974 28.2951 19.5361 28.2951 18.3237 27.1103C18.3237 27.1103 18.3237 27.1075 18.3209 27.1075C18.3209 27.1075 12.1882 21.0553 12.1826 21.0497L10.6 19.4886C9.38758 18.2926 9.38758 16.3468 10.6 15.1536L10.6027 15.1535ZM6.60951 22.2483C7.19733 21.6685 7.97731 21.3507 8.8054 21.3507C9.62778 21.3507 10.3993 21.6657 10.9843 22.2344L17.1169 28.2866C17.1198 28.2894 17.1226 28.2894 17.1254 28.2922C18.3293 29.4826 18.3322 31.4228 17.1282 32.616C16.5432 33.1987 15.7604 33.5192 14.9295 33.5192H14.9239C14.093 33.5192 13.313 33.2014 12.728 32.6216L12.1486 32.0501V32.0473L6.60953 26.5833C5.39713 25.3874 5.39713 23.4444 6.61235 22.2484L6.60951 22.2483ZM28.0852 57.756L24.8889 60.909C24.3548 61.4358 23.425 61.4358 22.8909 60.909L2.10535 40.4104C1.55427 39.8668 1.55427 38.983 2.10535 38.4394L5.30168 35.2865C5.57581 35.0161 5.94037 34.8795 6.3021 34.8795C6.66383 34.8795 7.02558 35.0161 7.30252 35.2865L28.0859 55.7879C28.3543 56.0527 28.4985 56.4012 28.4985 56.7748C28.4985 57.1483 28.3515 57.4968 28.0859 57.7616L28.0852 57.756ZM30.2359 50.9037L27.8846 53.2231L9.89966 35.4821L11.5642 33.8345C12.4686 34.7099 13.6583 35.1949 14.9244 35.1949H14.9329C16.2187 35.1921 17.4227 34.6959 18.3298 33.7983C19.4829 32.6553 19.9153 31.0718 19.6383 29.5916C19.9266 29.6445 20.2205 29.6752 20.5116 29.6752C21.7381 29.6752 22.9674 29.2152 23.9029 28.2953C24.8129 27.4004 25.3159 26.21 25.3187 24.9416C25.3187 24.6489 25.2848 24.3617 25.2339 24.0802C25.525 24.1332 25.8218 24.1638 26.1185 24.1638C27.3479 24.1638 28.5772 23.7039 29.5126 22.7811C30.4226 21.8862 30.9229 20.6959 30.9229 19.4275C30.9229 19.1347 30.8889 18.8476 30.8381 18.5633C31.1291 18.6163 31.4231 18.6469 31.7169 18.6469C32.9491 18.6469 34.1784 18.1841 35.1167 17.2586C35.4756 16.9046 35.7498 16.4976 35.973 16.0654L46.4663 5.71445C47.642 4.55475 49.6881 4.55475 50.8637 5.71445C51.4515 6.2943 51.7737 7.06371 51.7737 7.88335C51.7737 8.70292 51.4515 9.4724 50.8637 10.0523L37.6747 23.0624C37.3441 23.3885 37.3441 23.9182 37.6747 24.2443C37.8414 24.4088 38.0562 24.4897 38.2738 24.4897C38.4914 24.4897 38.709 24.4088 38.873 24.2443L48.8656 14.3872C50.078 13.1912 52.0506 13.1912 53.263 14.3872C54.4754 15.5832 54.4754 17.529 53.263 18.7249L43.2703 28.5799C42.9397 28.9061 42.9397 29.4357 43.2703 29.7619C43.4371 29.9264 43.6518 30.0072 43.8695 30.0072C44.0871 30.0072 44.3047 29.9264 44.4686 29.7619L52.8624 21.482C54.0748 20.286 56.0473 20.286 57.2597 21.482C58.4721 22.6779 58.4721 24.6237 57.2597 25.8197L52.1502 30.8599C52.1473 30.8627 52.1417 30.8627 52.136 30.8683C52.1276 30.8767 52.1247 30.8878 52.1163 30.8962L41.9196 40.9546C40.1928 42.6579 38.3277 44.2553 36.3748 45.6993L35.965 46.0032C34.7017 46.9398 33.4893 47.9546 32.308 49C32.2176 49.0446 32.13 49.1003 32.0593 49.1784C32.0254 49.2146 32.0113 49.2592 31.9859 49.2983C31.398 49.828 30.7983 50.3517 30.2359 50.9037ZM34.7576 50.5552C34.492 50.2931 34.215 50.0395 33.9437 49.783C34.9272 48.9328 35.9389 48.1132 36.9817 47.3409L37.3915 47.0371C39.4094 45.5456 41.3367 43.8953 43.12 42.1362L52.675 32.7108C52.8304 32.8753 52.9802 33.0481 53.1413 33.207L55.0941 35.1334L37.1092 52.8743L34.7576 50.5552ZM62.8886 40.0622L42.1053 60.5636C41.5711 61.0905 40.6414 61.0905 40.1072 60.5636L36.9109 57.4107C36.3598 56.8671 36.3598 55.9833 36.9109 55.4397L57.6942 34.9383C58.2453 34.3947 59.1412 34.3947 59.6923 34.9383L62.8886 38.0913C63.1571 38.3561 63.3012 38.7046 63.3012 39.0781C63.3012 39.4517 63.1542 39.8001 62.8886 40.065V40.0622Z" fill="#8D7003"/>
</svg>
