<svg width="53" height="67" viewBox="0 0 53 67" fill="none" xmlns="http://www.w3.org/2000/svg">
<path d="M52.118 7.97557L26.8729 0.0579805C26.6284 -0.0193268 26.3678 -0.0193268 26.1233 0.0579805L0.878179 7.97557C0.357061 8.13985 0 8.62302 0 9.1706V34.4532C0 49.7275 11.5323 64.0139 26.2523 66.9742C26.3327 66.9903 26.4164 67 26.5 67C26.5836 67 26.6641 66.9936 26.7477 66.9742C41.4677 64.014 53 49.7283 53 34.4532L52.9968 9.1739C52.9968 8.62631 52.6397 8.13992 52.1186 7.97887L52.118 7.97557ZM50.4903 34.453C50.4903 48.4904 39.9718 61.6232 26.496 64.4648C13.0211 61.6237 2.50176 48.4912 2.50176 34.453V10.0948L26.496 2.57024L50.4903 10.0948V34.4563V34.453ZM19.5128 27.5018C18.7343 26.7223 17.7017 26.2939 16.6015 26.2939C15.5013 26.2939 14.4688 26.7223 13.6936 27.5018C12.9151 28.2813 12.4873 29.3153 12.4873 30.417C12.4873 31.5186 12.9152 32.5525 13.6936 33.3321L21.1437 40.7955C21.9222 41.575 22.9547 42.0034 24.0549 42.0034C25.155 42.0034 26.1876 41.575 26.9629 40.7955L39.2964 28.4453C40.0749 27.6658 40.5027 26.6318 40.5027 25.5302C40.5027 24.4286 40.0748 23.3946 39.2964 22.6183C38.5179 21.8388 37.4854 21.4104 36.3852 21.4104C35.2851 21.4104 34.2525 21.8388 33.4772 22.6183L24.0523 32.0527L19.5102 27.5044L19.5128 27.5018ZM35.249 24.387C35.857 23.7782 36.9185 23.7782 37.5265 24.387C38.1537 25.0151 38.1537 26.0394 37.5265 26.6675L25.1929 39.0177C24.585 39.6265 23.5234 39.6265 22.9155 39.0177L15.4621 31.5544C14.8349 30.9262 14.8349 29.9019 15.4621 29.2738C15.7645 28.971 16.1698 28.8035 16.6009 28.8035C17.0319 28.8035 17.434 28.971 17.7396 29.277L23.1696 34.7144C23.6585 35.204 24.4499 35.204 24.942 34.7144L35.2522 24.3902L35.249 24.387Z" fill="#8D7003"/>
</svg>
