<svg width="69" height="68" viewBox="0 0 69 68" fill="none" xmlns="http://www.w3.org/2000/svg">
<path d="M65.4836 4.01503C54.5764 3.81741 52.9152 2.01528 51.3107 0.272095C50.9744 -0.0906985 50.3433 -0.0906985 50.0099 0.272095C48.4054 2.01528 46.7477 3.81448 35.837 4.01503C34.2295 4.04453 32.9199 5.37184 32.9199 6.97639V12.5038C32.9199 25.541 39.6065 35.8698 50.3721 39.4625C50.4635 39.4949 50.5609 39.5097 50.6612 39.5097C50.7054 39.5215 50.785 39.5038 50.844 39.492C50.8765 39.4861 50.9089 39.4772 50.9414 39.4654C61.7104 35.8758 68.3996 25.5432 68.3996 12.5037V6.97337C68.3996 5.36882 67.0929 4.04154 65.4855 4.01496L65.4836 4.01503ZM66.628 12.5037C66.628 24.8296 60.664 34.2213 50.6595 37.6894C40.6516 34.2178 34.691 24.8266 34.691 12.5037V6.97624C34.691 6.33029 35.219 5.79642 35.8709 5.78464C46.2087 5.59587 48.893 3.93824 50.6599 2.15965C52.4296 3.93824 55.1166 5.59587 65.4519 5.78464C66.1008 5.79644 66.6288 6.33031 66.6288 6.97329L66.628 12.5037Z" fill="#8D7003"/>
<path d="M57.2237 13.8221L49.6995 21.3463C49.5844 21.4613 49.3986 21.4613 49.2836 21.3463L44.234 16.2967C43.8889 15.9516 43.3285 15.9516 42.9834 16.2967C42.6383 16.6418 42.6383 17.2022 42.9834 17.5472L48.033 22.5969C48.4342 22.998 48.9651 23.1986 49.4931 23.1986C50.021 23.1986 50.5519 22.998 50.9531 22.5969L58.4773 15.0726C58.8224 14.7275 58.8224 14.1671 58.4773 13.8221C58.1322 13.477 57.5718 13.477 57.2267 13.8221H57.2237Z" fill="#8D7003"/>
<path d="M59.2232 45.3385L37.748 51.152C37.2111 51.2965 36.6566 51.385 36.105 51.4116C36.748 50.9308 37.2849 50.2937 37.6565 49.5209C38.2671 48.2497 38.3349 46.8192 37.8453 45.4948C37.3557 44.1705 36.3735 43.1293 35.0786 42.563L24.6962 38.0149C21.8529 36.7702 18.6379 36.546 15.6473 37.3866L11.2083 38.6372V38.6254C11.2083 36.835 9.75414 35.3809 7.96377 35.3809H3.24451C1.45414 35.3809 0 36.835 0 38.6254V64.5813C0 66.3717 1.45414 67.8258 3.24451 67.8258H7.96377C9.75414 67.8258 11.2083 66.3717 11.2083 64.5813V64.2863H15.724C16.7711 64.2863 17.8182 64.4043 18.8358 64.6403L29.4009 67.0766C30.2592 67.2743 31.1264 67.3716 31.9935 67.3716C33.3769 67.3716 34.7543 67.1209 36.0668 66.6224L62.8307 56.4703C65.7625 55.3583 67.2963 52.1552 66.3259 49.1731C65.3585 46.203 62.2319 44.5158 59.2204 45.3299L59.2232 45.3385ZM9.44071 64.584C9.44071 65.3981 8.78001 66.0588 7.96596 66.0588H3.2467C2.43265 66.0588 1.77195 65.3981 1.77195 64.584V38.6281C1.77195 37.814 2.43265 37.1533 3.2467 37.1533H7.96596C8.78001 37.1533 9.44071 37.814 9.44071 38.6281V64.584ZM62.205 54.8208L35.4412 64.9729C33.6331 65.6572 31.6834 65.7928 29.8016 65.3563L19.2365 62.92C18.0862 62.6545 16.9064 62.5188 15.7266 62.5188H11.2108V40.4773L16.1277 39.0939C18.7233 38.3625 21.5165 38.5571 23.9851 39.6396L34.3675 44.1878C35.2169 44.5594 35.8599 45.2437 36.1843 46.1138C36.5058 46.9839 36.4616 47.9219 36.0604 48.7566C35.2818 50.3759 33.3705 51.1045 31.707 50.4142L21.2831 46.0725C20.8347 45.8867 20.3156 46.0961 20.1269 46.5504C19.9381 47.0016 20.1534 47.5208 20.6047 47.7065L32.0132 52.4612C33.9658 53.2753 36.1662 53.4198 38.2102 52.8653L59.6854 47.0518C61.7825 46.4796 63.9682 47.6594 64.6466 49.7329C65.325 51.8123 64.2513 54.0511 62.2073 54.8268L62.205 54.8208Z" fill="#8D7003"/>
</svg>
