<svg width="67" height="67" viewBox="0 0 67 67" fill="none" xmlns="http://www.w3.org/2000/svg">
<path d="M33.4804 7.79297C19.323 7.79297 7.80469 19.2927 7.80469 33.427C7.80469 47.5613 19.3223 59.0611 33.4804 59.0611C47.6385 59.0611 59.1561 47.5613 59.1561 33.427C59.1561 19.2927 47.6378 7.79297 33.4804 7.79297ZM34.1783 57.6548V50.6944L36.1105 52.623C36.2467 52.7591 36.4253 52.8268 36.6031 52.8268C36.7817 52.8268 36.9602 52.7584 37.0964 52.6222C37.3694 52.3499 37.3679 51.9079 37.0964 51.6356L33.9737 48.5196C33.9722 48.5174 33.9692 48.5159 33.967 48.5137C33.9365 48.4839 33.9037 48.4564 33.8673 48.4326C33.8494 48.4207 33.8301 48.4125 33.8107 48.4021C33.7899 48.3909 33.7698 48.3783 33.7475 48.3686C33.7237 48.3589 33.6984 48.353 33.6738 48.3463C33.6552 48.3403 33.6366 48.3329 33.6173 48.3299C33.5719 48.3202 33.5265 48.3158 33.4804 48.3158C33.4797 48.3158 33.4782 48.3158 33.4774 48.3158C33.4328 48.3165 33.3881 48.321 33.3442 48.3299C33.3219 48.3344 33.3018 48.3426 33.2803 48.3485C33.2579 48.3552 33.2356 48.3604 33.214 48.3686C33.1887 48.3798 33.1657 48.3932 33.1411 48.4073C33.1255 48.4162 33.1091 48.4229 33.0942 48.4326C33.0556 48.4586 33.0191 48.4877 32.9864 48.5204L29.8652 51.6364C29.5928 51.9087 29.5921 52.3506 29.8644 52.623C30.1367 52.8953 30.5779 52.896 30.851 52.6237L32.7832 50.6952V57.6556C19.9487 57.2925 9.57548 46.9378 9.2109 34.1249H16.1832L14.2539 36.0512C13.9809 36.3228 13.9809 36.7647 14.2532 37.037C14.3894 37.1739 14.5679 37.2416 14.7472 37.2416C14.9265 37.2416 15.1036 37.1732 15.2405 37.0378L18.3625 33.921C18.3945 33.8891 18.4235 33.8533 18.4488 33.8154C18.454 33.808 18.457 33.7998 18.4622 33.7923C18.4815 33.7611 18.4994 33.7298 18.5135 33.6956C18.5172 33.6859 18.5187 33.6763 18.5224 33.6666C18.5351 33.6339 18.5462 33.6004 18.5537 33.5647C18.5581 33.5431 18.5581 33.5193 18.5604 33.4969C18.5626 33.4739 18.5678 33.4508 18.5678 33.427C18.5678 33.398 18.5626 33.3697 18.5589 33.3422C18.5567 33.3251 18.5574 33.3065 18.5537 33.2901C18.5455 33.2499 18.5329 33.2127 18.5187 33.1755C18.5165 33.1703 18.5157 33.1651 18.5135 33.1599C18.4979 33.1205 18.477 33.0833 18.454 33.049C18.4525 33.0461 18.451 33.0423 18.4495 33.0401C18.4235 33.0014 18.3945 32.9657 18.3617 32.933L15.2405 29.817C14.9682 29.5447 14.5262 29.5454 14.2539 29.8177C13.9816 30.09 13.9824 30.532 14.2547 30.8036L16.184 32.7299H9.21165C9.57623 19.9169 19.9487 9.56227 32.784 9.19918V16.1596L30.8517 14.2311C30.5794 13.9587 30.1375 13.9595 29.8652 14.2318C29.5928 14.5041 29.5936 14.9461 29.8659 15.2176L32.9878 18.3344C32.9931 18.3396 32.999 18.3433 33.0035 18.3478C33.0317 18.3746 33.0615 18.3999 33.0935 18.4214C33.1114 18.4341 33.1307 18.4415 33.1493 18.4519C33.1709 18.4638 33.1917 18.4765 33.214 18.4862C33.2371 18.4958 33.2609 18.501 33.2847 18.5077C33.3041 18.5137 33.3234 18.5219 33.3442 18.5248C33.3896 18.5345 33.435 18.539 33.4811 18.539C33.5273 18.539 33.5727 18.5338 33.618 18.5248C33.6389 18.5204 33.6582 18.5129 33.6783 18.5077C33.7021 18.5003 33.7252 18.4951 33.7482 18.4862C33.7713 18.4757 33.7929 18.4631 33.8145 18.4512C33.8323 18.4408 33.8509 18.4333 33.868 18.4222C33.9045 18.3984 33.9365 18.3708 33.967 18.3411C33.97 18.3388 33.9722 18.3374 33.9744 18.3351L37.0971 15.2184C37.3687 14.9468 37.3694 14.5049 37.0971 14.2325C36.8255 13.9602 36.3836 13.9595 36.1113 14.2318L34.179 16.1603V9.19993C47.0135 9.56302 57.3861 19.9177 57.7514 32.7306H50.7791L52.7083 30.8043C52.9806 30.5327 52.9814 30.0908 52.7091 29.8185C52.4375 29.5454 51.9956 29.5454 51.7225 29.817L48.6013 32.9337C48.5686 32.9657 48.5403 33.0014 48.5142 33.0401C48.5083 33.049 48.5038 33.0595 48.4986 33.0691C48.4815 33.0981 48.4637 33.1279 48.451 33.1599C48.4451 33.174 48.4421 33.1889 48.4369 33.2031C48.4272 33.2321 48.4168 33.2603 48.4108 33.2901C48.4011 33.3355 48.3967 33.3816 48.3967 33.4285C48.3967 33.4754 48.4011 33.5215 48.4108 33.5669C48.4175 33.6004 48.4287 33.6316 48.4406 33.6636C48.4443 33.6748 48.4465 33.6859 48.451 33.6971C48.4666 33.7343 48.486 33.7693 48.5068 33.8027C48.5098 33.8072 48.512 33.8124 48.515 33.8169C48.5403 33.8556 48.5701 33.8913 48.602 33.924L51.7233 37.04C51.8602 37.1769 52.0387 37.2439 52.2165 37.2439C52.3951 37.2439 52.5729 37.1754 52.7098 37.0393C52.9821 36.767 52.9814 36.325 52.7091 36.0534L50.7798 34.1271H57.7521C57.3853 46.9371 47.0128 57.2917 34.1783 57.6548Z" fill="#8D7003"/>
<path d="M57.1556 9.78994C50.8321 3.47685 42.4238 0 33.4813 0C24.5388 0 16.1306 3.47685 9.80705 9.78994C3.48354 16.103 0 24.4979 0 33.427C0 42.3561 3.4828 50.7502 9.80705 57.0641C16.1313 63.3764 24.5388 66.854 33.4813 66.854C42.4238 66.854 50.8321 63.3772 57.1556 57.0641C63.4791 50.751 66.9626 42.3561 66.9626 33.427C66.9626 24.4979 63.4791 16.1038 57.1556 9.78994ZM33.4813 65.4589C15.789 65.4589 1.39505 51.0895 1.39505 33.427C1.39505 15.7645 15.789 1.39505 33.4813 1.39505C51.1736 1.39505 65.5676 15.7645 65.5676 33.427C65.5676 51.0895 51.1736 65.4589 33.4813 65.4589Z" fill="#8D7003"/>
<path d="M37.9414 32.2105C38.995 31.1063 39.643 29.6138 39.643 27.9717C39.643 24.5789 36.8789 21.8193 33.4817 21.8193C30.0845 21.8193 27.3204 24.5789 27.3204 27.9717C27.3204 29.6138 27.9692 31.1063 29.0227 32.2105C25.6285 33.8882 23.418 37.377 23.418 41.2191V44.3359C23.418 44.7213 23.7305 45.0338 24.1159 45.0338H42.8498C43.2352 45.0338 43.5477 44.7213 43.5477 44.3359V41.2191C43.5462 37.377 41.3349 33.8882 37.9414 32.2105ZM33.4817 23.2144C36.1104 23.2144 38.248 25.3483 38.248 27.9717C38.248 30.5952 36.1104 32.7298 33.4817 32.7298C30.8538 32.7298 28.7155 30.5959 28.7155 27.9725C28.7155 25.349 30.8538 23.2144 33.4817 23.2144ZM42.1511 43.6395H38.8625V41.2199C38.8625 40.8337 38.55 40.522 38.1646 40.522C37.7792 40.522 37.4667 40.8337 37.4667 41.2199V43.6395H29.4952V41.2199C29.4952 40.8337 29.1827 40.522 28.7973 40.522C28.4119 40.522 28.0994 40.8337 28.0994 41.2199V43.6395H24.8108V41.2199C24.8108 37.6925 26.9752 34.5102 30.2303 33.1963C31.1745 33.7841 32.2883 34.1248 33.4802 34.1248C34.6722 34.1248 35.7867 33.7841 36.7301 33.1963C39.986 34.511 42.1496 37.6925 42.1496 41.2199V43.6395H42.1511Z" fill="#8D7003"/>
</svg>
