<svg width="69" height="73" viewBox="0 0 69 73" fill="none" xmlns="http://www.w3.org/2000/svg">
<path fill-rule="evenodd" clip-rule="evenodd" d="M18.8737 37.8284C19.8449 33.7976 21.3176 29.9063 23.254 26.2466C17.36 26.7568 12.0339 27.2004 11.0878 27.2764H11.0909C9.29966 28.1764 7.60623 29.2601 6.03892 30.5055C4.65453 31.6019 3.36469 32.8124 2.18213 34.1211C7.44227 36.4692 13.1183 37.727 18.8737 37.8284ZM49.3086 48.6436C46.01 51.1343 42.4149 53.1972 38.602 54.7848C39.5891 60.4855 41.7052 65.9261 44.8303 70.7845C45.934 69.406 46.9243 67.9389 47.7852 66.3956C48.7691 64.6432 49.5732 62.7958 50.1787 60.8787C50.1093 59.9311 49.7278 54.6741 49.3115 48.6438L49.3086 48.6436ZM20.6304 49.4326L21.053 47.1511L21.0561 47.1479C21.1003 46.8469 21.3021 46.5965 21.5859 46.4888C21.8666 46.3842 22.1851 46.4412 22.4153 46.6377L22.9892 47.132L23.7366 46.2511L19.1261 42.287L16.2564 45.6681L20.6367 49.4327L20.6304 49.4326ZM29.5585 51.261L28.8111 52.1419C29.1107 52.3986 29.5206 52.6775 29.631 52.9912V52.988C29.7855 53.4222 29.5585 53.8975 29.1264 54.0528L26.922 54.8355L31.2992 58.6L34.1753 55.222L29.5648 51.2578L29.5585 51.261ZM27.0104 51.6888L27.0136 51.6857C26.8685 51.8536 26.7991 52.0722 26.8149 52.2941C26.8338 52.5127 26.9347 52.7187 27.105 52.8613L27.2186 52.9595L24.3236 53.9862L21.9301 54.3031L21.8702 51.8694L22.4347 48.84L22.5482 48.9382C22.8982 49.2393 23.4217 49.1981 23.7181 48.8463L30.5866 40.7785C30.9619 40.338 31.4948 40.0655 32.0688 40.0211C32.6459 39.9768 33.2135 40.1637 33.6518 40.5408C34.5632 41.3235 34.6673 42.702 33.8883 43.6178L27.0167 51.6856L27.0104 51.6888ZM53.8948 3.43983C54.4309 6.55476 56.0297 9.3877 58.4202 11.4506C60.8074 13.5104 63.8348 14.6734 66.9817 14.7336C67.4989 10.3859 67.4169 5.99104 66.7389 1.66561C62.3996 1.66561 58.0789 2.26136 53.8978 3.44016L53.8948 3.43983ZM53.4817 23.1087C53.3114 20.9317 51.8545 19.0747 49.7889 18.3998C47.7233 17.7217 45.4558 18.3649 44.0462 20.0222C42.6365 21.6827 42.3591 24.0308 43.3429 25.9764C44.3269 27.9221 46.383 29.0787 48.5463 28.9076C51.5013 28.67 53.7087 26.0778 53.4817 23.1087ZM45.6388 49.1911C42.4757 51.2508 39.0793 52.9272 35.5223 54.1851L30.6437 49.9896L35.1439 44.7008C35.8376 43.9276 36.1909 42.9009 36.1214 41.8615C36.0489 40.8189 35.5601 39.8493 34.7654 39.1775C33.9707 38.5057 32.9395 38.1856 31.9051 38.2935C30.8739 38.4012 29.9278 38.924 29.2845 39.7448L24.8222 44.9892L19.9436 40.7905C20.6279 37.0671 21.7506 33.4356 23.2895 29.9785C28.8587 29.2022 34.491 30.8594 38.7641 34.5321C43.0372 38.2048 45.5379 43.5409 45.6388 49.1911ZM44.2228 29.4013L40.4606 33.8218C44.453 37.5325 46.8844 42.6374 47.2534 48.0912C57.742 40.6001 64.7778 29.1703 66.7581 16.3968C63.2955 16.2827 59.9717 14.9835 57.3416 12.7146C54.7115 10.4457 52.9329 7.34343 52.2959 3.92097C40.0287 7.86302 29.8647 16.6214 24.1222 28.2041C29.54 27.7256 34.9362 29.348 39.1996 32.7355L42.9619 28.3181C40.439 25.5676 40.4863 21.3213 43.066 18.6281C45.6487 15.9346 49.8714 15.7286 52.7004 18.1591C55.5295 20.5896 55.9833 24.8136 53.7348 27.7956C51.4862 30.7776 47.3173 31.481 44.2238 29.4022L44.2228 29.4013ZM15.1377 55.4999C14.1696 56.3492 13.6177 57.5819 13.6272 58.8748C13.6335 60.1677 14.2011 61.394 15.1787 62.2337C16.1563 63.0735 17.4462 63.4442 18.7202 63.2541C19.9911 63.0608 21.1169 62.3225 21.8044 61.2323L15.1377 55.4999ZM23.0752 62.3225C22.0977 63.7548 20.5587 64.7023 18.8463 64.9272C17.1339 65.1554 15.4058 64.6388 14.0907 63.5107C12.7788 62.3795 12.0062 60.7443 11.9621 59.0078C11.9211 57.2713 12.6149 55.6013 13.87 54.4067C13.6209 54.2229 13.4916 53.9155 13.5389 53.6081L14.63 46.4592L14.548 46.3895C14.2012 46.0916 14.1602 45.5625 14.4598 45.2139L18.2661 40.7458C18.3418 40.3212 18.4238 39.8997 18.5089 39.4815H18.5057C15.4909 39.3927 12.4919 39.0125 9.54941 38.3471C6.42736 37.6404 3.39679 36.5757 0.520406 35.1719C0.271277 35.0736 0.0883639 34.8613 0.0252966 34.6015C-0.0409282 34.3416 0.0252965 34.0659 0.195591 33.86C1.64311 32.1488 3.25458 30.5834 5.01106 29.1923C6.69503 27.8551 8.51464 26.6984 10.4384 25.7414C10.5488 25.6749 10.6717 25.6337 10.801 25.6242C10.82 25.6242 17.1239 25.1013 24.2323 24.4835V24.4803C28.6378 16.9353 34.951 10.696 42.5358 6.39573C50.1169 2.09878 58.6949 -0.109854 67.4018 0.00420415C67.8244 -0.0243159 68.1997 0.273554 68.2722 0.695008C70.2873 12.2995 68.0861 24.2423 62.0628 34.3477C59.1237 39.3196 55.3457 43.7335 50.8928 47.397C51.3785 54.4001 51.8484 60.8933 51.8515 60.9119H51.8484C51.8578 61.0292 51.842 61.1496 51.7979 61.2605C51.1546 63.3298 50.2968 65.3229 49.2372 67.2115C48.1397 69.1668 46.8531 71.011 45.3898 72.7126C45.2196 72.9122 44.961 73.0168 44.6992 72.9978C44.4375 72.9756 44.1978 72.833 44.059 72.608C42.2331 69.9621 40.7163 67.1165 39.5368 64.1251C38.4299 61.308 37.591 58.3895 37.036 55.4077C36.6386 55.5566 36.2381 55.7024 35.8344 55.845L32.0281 60.3162C31.8862 60.4842 31.6812 60.5887 31.4605 60.6046C31.2429 60.6204 31.0253 60.5507 30.8582 60.4081L30.7762 60.3384L23.9203 62.528C23.6491 62.6136 23.3495 62.5534 23.1319 62.3633L23.0814 62.3189L23.0752 62.3225ZM23.3622 60.3768L15.2479 53.399L16.1151 47.7363L20.2873 51.3234L20.2274 51.653C20.1896 51.8495 20.2873 54.8155 20.2999 55.2686H20.2968C20.3062 55.7249 20.6878 56.0893 21.1451 56.0798L24.8032 55.5855L25.1186 55.4746L29.2908 59.0617L23.8571 60.7982L23.3622 60.3768Z" fill="#8D7003"/>
</svg>
