<svg width="552" height="368" viewBox="0 0 552 368" fill="none" xmlns="http://www.w3.org/2000/svg">
<path d="M23.6425 296.325V326.465H67.7171H116.33V296.325H23.6425Z" fill="#F5F5F5"/>
<path d="M19.7535 287.899V296.325H119.571V287.899H67.7171H19.7535Z" fill="#E0E0E0"/>
<path d="M69.6616 326.465H116.33V296.325H119.571V287.899H67.7171V295.545L69.6616 326.465Z" fill="#E0E0E0"/>
<path d="M55.4024 301.185H36.6057V305.722H55.4024V301.185Z" fill="#E0E0E0"/>
<path d="M58.3228 311.394H34.1865V320.975H58.3228V311.394Z" fill="white"/>
<path d="M37.9025 257.799V287.939H81.9772H130.589V257.799H37.9025Z" fill="#F5F5F5"/>
<path d="M34.0135 249.373V257.8H133.831V249.373H81.9771H34.0135Z" fill="#E0E0E0"/>
<path d="M83.9216 287.939H130.589V257.8H133.831V249.373H81.9771V257.019L83.9216 287.939Z" fill="#E0E0E0"/>
<path d="M69.6624 262.66H50.8657V267.197H69.6624V262.66Z" fill="#E0E0E0"/>
<path d="M72.5821 272.868H48.4465V282.449H72.5821V272.868Z" fill="white"/>
<path d="M94.8961 28.2266H26.2722V127.693H94.8961V28.2266Z" fill="#E0E0E0"/>
<path d="M91.4575 28.2266H22.8344V127.693H91.4575V28.2266Z" fill="#F5F5F5"/>
<path d="M82.9317 38.999H31.3602V116.92H82.9317V38.999Z" fill="white"/>
<path d="M82.9317 116.92C82.9317 116.92 82.9251 116.789 82.9214 116.539C82.9192 116.281 82.9155 115.915 82.9111 115.434C82.9067 114.455 82.8993 113.022 82.8905 111.16C82.8794 107.426 82.864 101.984 82.8441 95.1089C82.8235 81.3685 82.794 61.9116 82.7595 38.9992L82.9302 39.1707C67.1739 39.1751 49.7153 39.181 31.3646 39.1861H31.3587L31.5449 38.9992C31.5309 68.3943 31.5177 95.4968 31.5074 116.92L31.3587 116.772C47.0642 116.804 59.9376 116.831 68.8962 116.85C73.3769 116.866 76.8766 116.879 79.2671 116.887C80.455 116.894 81.3655 116.9 81.9896 116.904C82.6071 116.91 82.9317 116.92 82.9317 116.92C82.9317 116.92 82.6284 116.931 82.022 116.936C81.4045 116.94 80.5036 116.946 79.3275 116.953C76.9451 116.962 73.4564 116.975 68.9904 116.991C60.0097 117.009 47.1047 117.037 31.3602 117.069H31.2115V116.92C31.2012 95.496 31.1879 68.3936 31.1732 38.9985V38.8115H31.3602H31.3661C49.716 38.8167 67.1754 38.8226 82.9317 38.827H83.1032V38.9985C83.0686 61.9573 83.0399 81.4532 83.0193 95.2208C82.9994 102.079 82.9839 107.508 82.9729 111.233C82.9641 113.08 82.9567 114.502 82.9523 115.473C82.9479 115.944 82.9442 116.306 82.942 116.558C82.9383 116.802 82.9317 116.92 82.9317 116.92Z" fill="#E0E0E0"/>
<path d="M91.6503 28.2263C91.6901 28.2572 91.2242 28.9373 90.4271 30.0037C89.63 31.0695 88.498 32.5201 87.2071 34.0878C85.9154 35.6562 84.7084 37.0443 83.8149 38.0313C82.9214 39.0183 82.3436 39.6056 82.3053 39.5725C82.2656 39.5379 82.7734 38.8895 83.6154 37.8598C84.5354 36.7433 85.6674 35.3699 86.9193 33.8515C88.1698 32.3324 89.301 30.9583 90.2203 29.8411C91.0696 28.8166 91.6091 28.1939 91.6503 28.2263Z" fill="#E0E0E0"/>
<path d="M83.1945 116.669C85.7557 120.742 88.78 124.524 92.1891 127.919L83.1945 116.669Z" fill="white"/>
<path d="M92.1899 127.919C92.156 127.954 91.5437 127.422 90.6214 126.493C89.6992 125.564 88.4775 124.227 87.2285 122.666C85.9802 121.103 84.9447 119.617 84.2411 118.513C83.5374 117.409 83.1533 116.695 83.1945 116.669C83.2408 116.64 83.703 117.304 84.4597 118.365C85.2163 119.427 86.279 120.879 87.5199 122.432C88.7616 123.984 89.9443 125.34 90.8135 126.312C91.6828 127.283 92.2281 127.88 92.1899 127.919Z" fill="#E0E0E0"/>
<path d="M22.824 127.614C25.8203 123.918 28.8165 120.221 31.8128 116.524L22.824 127.614Z" fill="white"/>
<path d="M31.8128 116.524C31.893 116.589 29.9456 119.125 27.4638 122.186C24.9813 125.25 22.9043 127.679 22.824 127.614C22.7438 127.55 24.6913 125.015 27.1738 121.951C29.6556 118.89 31.7333 116.459 31.8128 116.524Z" fill="#E0E0E0"/>
<path d="M22.8343 28.2264C22.9153 28.1624 24.8686 30.4977 27.1973 33.4417C29.5268 36.3864 31.3484 38.8255 31.2674 38.8896C31.1865 38.9536 29.2331 36.6183 26.9044 33.6735C24.5757 30.7288 22.7534 28.2904 22.8343 28.2264Z" fill="#E0E0E0"/>
<path d="M66.8641 54.8203H49.5961V103.85H66.8641V54.8203Z" fill="#E0E0E0"/>
<path d="M465.154 315.928C463.531 314.537 459.91 310.127 462.702 304.997C463.726 303.116 465.9 302.186 467.868 301.357C469.836 300.528 471.904 299.809 473.532 298.423C476.603 295.811 477.45 291.47 479.488 287.986C481.828 283.985 486.196 280.988 490.811 281.197C496.096 281.437 500.503 285.754 502.5 290.675C504.498 295.596 504.568 301.06 504.609 306.374C504.632 309.313 504.501 312.625 502.343 314.61C500.355 316.439 497.36 316.462 494.664 316.379C485.038 316.083 475.412 315.787 465.786 315.492" fill="#F5F5F5"/>
<path d="M520.387 236.519H444.442L458.122 318.092C458.721 321.655 461.298 324.401 464.607 325.354C464.694 325.381 464.784 325.402 464.872 325.427C465.098 325.484 465.316 325.561 465.549 325.601C466.049 325.705 466.567 325.757 467.094 325.778C467.097 325.803 467.102 325.831 467.106 325.856L467.476 325.798C467.477 325.798 467.478 325.798 467.478 325.798H501.326C501.962 325.798 502.583 325.732 503.185 325.612C507.183 324.994 510.382 321.786 510.869 317.639L517.463 261.434L517.76 259.199H517.725L520.336 236.94L520.387 236.519ZM506.06 288.552H498.267L499.053 264.877H508.083L506.06 288.552ZM508.839 264.877H516.301L513.523 288.552H506.817L508.839 264.877ZM486.573 314.796L486.099 294.229H497.323L496.639 314.796H486.573ZM474.44 294.229H485.345L485.818 314.796H476.037L474.44 294.229ZM475.282 314.796H466.139C465.27 309.243 464.139 302.026 462.915 294.229H473.684L475.282 314.796ZM473.998 288.552L472.158 264.877H484.668L485.214 288.552H473.998ZM485.969 288.552L485.424 264.877H498.298L497.512 288.552H485.969ZM485.293 259.2L484.788 237.275H499.215L498.487 259.2H485.293ZM484.539 259.2H471.718L470.014 237.275H484.034L484.539 259.2ZM470.962 259.2H457.397C456.917 256.172 456.461 253.305 456.05 250.727C454.634 241.863 454.102 238.53 453.808 237.276H469.258L470.962 259.2ZM471.403 264.877L473.243 288.552H462.024C461.646 286.149 461.264 283.72 460.882 281.288C460.003 275.7 459.123 270.113 458.295 264.877H471.403ZM461.261 288.552H453.933L449.962 264.877H457.531C458.688 272.194 459.97 280.337 461.261 288.552ZM462.153 294.229C463.27 301.346 464.37 308.363 465.376 314.796H458.334L454.885 294.229H462.153ZM497.395 314.796L498.078 294.229H505.575L503.818 314.796H497.395ZM499.241 259.2L499.97 237.275H510.441L508.568 259.2H499.241ZM453.089 237.275C453.39 238.861 454.776 247.487 456.633 259.2H449.01L445.333 237.275H453.089ZM510.444 314.796H504.574L506.332 294.229H512.857L510.444 314.796ZM516.967 259.2H509.324L511.198 237.275H519.539L516.967 259.2Z" fill="#E0E0E0"/>
<path d="M522.078 33.5581V100.348H426.15L422.694 34.0247L522.078 33.5581Z" fill="#E0E0E0"/>
<path d="M422.694 34.0252V100.207H518.622V34.0252H422.694Z" fill="white"/>
<path d="M519.077 100.662H422.239V33.5698H519.077V100.662ZM423.149 99.7517H518.168V34.4795H423.149V99.7517Z" fill="#E0E0E0"/>
<path d="M508.232 42.2476H433.084V91.9842H508.232V42.2476Z" fill="white"/>
<path d="M508.232 42.2474C508.232 42.2474 508.103 42.2562 507.861 42.2599C507.607 42.2628 507.253 42.2673 506.793 42.2724C505.84 42.2783 504.458 42.2871 502.666 42.2989C499.056 42.3122 493.808 42.332 487.18 42.3571C473.927 42.3836 455.17 42.4204 433.084 42.4638L433.301 42.2467C433.307 57.4429 433.313 74.2803 433.321 91.9774V91.9833L433.084 91.7463C461.432 91.7647 487.568 91.7809 508.232 91.7942L508.044 91.9826C508.085 76.8467 508.12 64.4371 508.143 55.7949C508.164 51.4754 508.18 48.1008 508.191 45.7883C508.2 44.6453 508.207 43.768 508.212 43.1586C508.219 42.5639 508.232 42.2474 508.232 42.2474C508.232 42.2474 508.246 42.5366 508.253 43.1203C508.258 43.7216 508.265 44.5871 508.274 45.7147C508.285 48.0184 508.302 51.3782 508.322 55.6794C508.346 64.3495 508.38 76.7997 508.421 91.9848L508.422 92.174H508.233C487.569 92.1872 461.432 92.2041 433.085 92.2218H432.848V91.9848V91.9789C432.854 74.2818 432.861 57.4443 432.867 42.2481V42.0303L433.085 42.031C455.229 42.0744 474.036 42.112 487.323 42.1377C493.93 42.1628 499.162 42.1826 502.76 42.1959C504.534 42.2069 505.901 42.2165 506.844 42.2224C507.294 42.2275 507.639 42.2319 507.889 42.2349C508.12 42.2393 508.232 42.2474 508.232 42.2474Z" fill="#E0E0E0"/>
<path d="M422.694 33.8393C422.733 33.7878 423.361 34.1992 424.343 34.9072C425.324 35.616 426.661 36.6206 428.103 37.7754C429.546 38.9309 430.815 40.0232 431.709 40.8416C432.602 41.66 433.125 42.1995 433.083 42.2474C432.994 42.3482 430.687 40.4456 427.807 38.1456C424.925 35.8478 422.61 33.9475 422.694 33.8393Z" fill="#E0E0E0"/>
<path d="M518.622 34.0248C518.703 34.1271 516.443 36.0517 513.575 38.3215C510.705 40.5928 508.314 42.3497 508.233 42.2473C508.152 42.145 510.412 40.2211 513.281 37.9498C516.149 35.68 518.541 33.9225 518.622 34.0248Z" fill="#E0E0E0"/>
<path d="M518.546 100.217C514.981 97.3274 511.415 94.4379 507.85 91.5483L518.546 100.217Z" fill="white"/>
<path d="M507.85 91.5474C507.933 91.4459 510.394 93.3043 513.347 95.6977C516.302 98.0919 518.629 100.114 518.547 100.217C518.464 100.318 516.004 98.4607 513.049 96.0665C510.096 93.6723 507.768 91.649 507.85 91.5474Z" fill="#E0E0E0"/>
<path d="M422.694 100.207C422.613 100.104 424.849 98.2001 427.688 95.9546C430.528 93.7083 432.896 91.9713 432.977 92.0736C433.058 92.1759 430.822 94.08 427.982 96.3262C425.143 98.5718 422.775 100.309 422.694 100.207Z" fill="#E0E0E0"/>
<path d="M448.342 57.7433V74.3975H495.627V57.7433H448.342Z" fill="#E0E0E0"/>
<path d="M520.387 326.465C520.387 326.571 409.751 326.656 273.306 326.656C136.814 326.656 26.2016 326.57 26.2016 326.465C26.2016 326.36 136.814 326.273 273.306 326.273C409.751 326.273 520.387 326.359 520.387 326.465Z" fill="#263238"/>
<path d="M455.67 323.846H91.9956C86.0745 323.846 81.2743 319.046 81.2743 313.125V74.8771C81.2743 71.7263 83.8282 69.1724 86.979 69.1724H461.431C464.17 69.1724 466.391 71.3936 466.391 74.133V313.125C466.391 319.046 461.591 323.846 455.67 323.846Z" fill="#455A64"/>
<path d="M472.315 327.294H75.2685C69.6911 327.294 65.1699 322.773 65.1699 317.196V305.011H482.415V317.196C482.415 322.773 477.893 327.294 472.315 327.294Z" fill="#455A64"/>
<path d="M454.977 79.291H91.6121V294.358H454.977V79.291Z" fill="#F5F5F5"/>
<path d="M235.868 305.011L241.046 313.247H313.902L318.71 305.011H235.868Z" fill="#263238"/>
<path d="M466.453 304.935H81.3361V306.163H466.453V304.935Z" fill="#263238"/>
<path d="M194.494 69.1721H154.486V55.0844C154.486 45.1381 162.543 36.7256 172.489 36.7256L194.494 37.0752V69.1721Z" fill="#E0E0E0"/>
<path d="M171.631 36.7059C171.631 36.7059 194.4 34.6392 194.4 64.3324C194.4 94.0256 194.4 295.331 194.4 295.331H373.098V55.9111C373.098 45.0581 364.285 36.2673 353.433 36.293L171.631 36.7059Z" fill="white"/>
<path d="M171.631 36.7059C172.689 36.7022 222.191 36.5425 303.837 36.279C314.034 36.2496 324.717 36.2187 335.847 36.1863C341.413 36.1716 347.091 36.1561 352.877 36.1414C355.779 36.1068 358.763 36.5896 361.47 37.8342C364.184 39.0456 366.643 40.8805 368.606 43.1827C370.563 45.4908 371.961 48.2927 372.691 51.2772C372.918 52.0147 372.972 52.7897 373.106 53.5492C373.213 54.3132 373.204 55.0912 373.258 55.864C373.259 57.4022 373.26 58.9463 373.262 60.4971C373.263 66.6986 373.265 72.9988 373.266 79.3917C373.268 92.1775 373.271 105.337 373.274 118.832C373.279 172.811 373.284 232.154 373.29 294.444C373.29 294.742 373.29 295.039 373.29 295.331V295.522H373.098C309.511 295.517 249.02 295.511 194.4 295.507H194.225V295.331C194.253 215.351 194.277 147.44 194.294 99.5213C194.303 87.5429 194.311 76.8135 194.318 67.4567C194.319 65.1177 194.346 62.8641 194.188 60.7083C194.08 58.5467 193.725 56.4969 193.332 54.5546C192.877 52.6234 192.3 50.8143 191.583 49.1597C190.839 47.5185 189.976 46.034 189.017 44.7312C187.062 42.1486 184.755 40.3432 182.568 39.1995C180.384 38.0299 178.35 37.4618 176.708 37.1254C175.058 36.8016 173.778 36.7162 172.923 36.6956C172.067 36.6742 171.631 36.7059 171.631 36.7059C171.631 36.7059 172.066 36.6544 172.924 36.6654C173.781 36.6757 175.064 36.7523 176.72 37.0673C178.367 37.3955 180.411 37.9563 182.608 39.1222C184.81 40.2622 187.135 42.0699 189.108 44.662C190.076 45.9692 190.948 47.4588 191.699 49.1068C192.424 50.7679 193.007 52.5836 193.469 54.5222C193.866 56.4719 194.227 58.529 194.339 60.6965C194.502 62.8604 194.478 65.1184 194.482 67.456C194.489 76.812 194.497 87.5414 194.506 99.5205C194.523 147.44 194.548 215.351 194.576 295.33L194.4 295.154C249.02 295.149 309.51 295.144 373.098 295.139L372.906 295.33C372.906 295.038 372.906 294.741 372.906 294.444C372.911 232.154 372.917 172.81 372.922 118.831C372.925 105.336 372.927 92.1775 372.93 79.3909C372.931 72.998 372.933 66.6979 372.934 60.4964C372.887 57.3985 373.157 54.2926 372.377 51.3516C371.661 48.4156 370.288 45.6586 368.363 43.3866C366.433 41.1204 364.013 39.3128 361.344 38.119C358.677 36.8921 355.754 36.4159 352.877 36.4476C347.081 36.4586 341.394 36.4689 335.818 36.4799C324.665 36.4983 313.961 36.516 303.745 36.5329C222.156 36.6396 172.688 36.7044 171.631 36.7059Z" fill="#263238"/>
<path d="M270.889 106.806C270.889 106.912 260.022 106.997 246.62 106.997C233.214 106.997 222.349 106.911 222.349 106.806C222.349 106.7 233.214 106.615 246.62 106.615C260.022 106.614 270.889 106.7 270.889 106.806Z" fill="#263238"/>
<path d="M281.77 112.61C281.77 112.716 268.468 112.802 252.062 112.802C235.65 112.802 222.35 112.716 222.35 112.61C222.35 112.504 235.65 112.419 252.062 112.419C268.467 112.418 281.77 112.504 281.77 112.61Z" fill="#263238"/>
<path d="M285.67 135.459C285.67 135.565 271.934 135.651 254.994 135.651C238.048 135.651 224.315 135.565 224.315 135.459C224.315 135.353 238.048 135.268 254.994 135.268C271.934 135.268 285.67 135.354 285.67 135.459Z" fill="#263238"/>
<path d="M325.749 157.728C325.749 157.834 302.785 157.92 274.465 157.92C246.134 157.92 223.175 157.834 223.175 157.728C223.175 157.622 246.134 157.537 274.465 157.537C302.785 157.537 325.749 157.623 325.749 157.728Z" fill="#263238"/>
<path d="M325.749 164.374C325.749 164.48 302.785 164.565 274.465 164.565C246.134 164.565 223.175 164.479 223.175 164.374C223.175 164.269 246.134 164.183 274.465 164.183C302.785 164.182 325.749 164.268 325.749 164.374Z" fill="#263238"/>
<path d="M325.749 171.019C325.749 171.124 302.785 171.21 274.465 171.21C246.134 171.21 223.175 171.124 223.175 171.019C223.175 170.913 246.134 170.827 274.465 170.827C302.785 170.827 325.749 170.913 325.749 171.019Z" fill="#263238"/>
<path d="M325.749 177.663C325.749 177.769 302.785 177.854 274.465 177.854C246.134 177.854 223.175 177.768 223.175 177.663C223.175 177.557 246.134 177.472 274.465 177.472C302.785 177.472 325.749 177.558 325.749 177.663Z" fill="#263238"/>
<path d="M325.749 184.309C325.749 184.415 302.785 184.5 274.465 184.5C246.134 184.5 223.175 184.414 223.175 184.309C223.175 184.203 246.134 184.117 274.465 184.117C302.785 184.116 325.749 184.203 325.749 184.309Z" fill="#263238"/>
<path d="M262.072 190.953C262.072 191.059 253.364 191.144 242.624 191.144C231.88 191.144 223.174 191.058 223.174 190.953C223.174 190.848 231.88 190.762 242.624 190.762C253.364 190.761 262.072 190.847 262.072 190.953Z" fill="#263238"/>
<path d="M344.087 156.8L325.84 199.199C325.455 200.094 326.366 200.997 327.257 200.604L341.322 194.395C341.9 194.14 342.572 194.438 342.772 195.037L347.517 209.281C347.836 210.239 349.183 210.264 349.537 209.319L366.688 163.584L344.087 156.8Z" fill="#E6B804"/>
<path d="M367.865 163.856L376.605 209.18C376.79 210.136 378.051 210.371 378.567 209.545L386.71 196.505C387.045 195.969 387.767 195.837 388.269 196.221L400.2 205.335C401.003 205.948 402.13 205.212 401.892 204.23L390.369 156.765L367.865 163.856Z" fill="#E6B804"/>
<g opacity="0.3">
<path d="M344.087 156.8L325.84 199.199C325.455 200.094 326.366 200.997 327.257 200.604L341.322 194.395C341.9 194.14 342.572 194.438 342.772 195.037L347.517 209.281C347.836 210.239 349.183 210.264 349.537 209.319L366.688 163.584L344.087 156.8Z" fill="black"/>
</g>
<g opacity="0.3">
<path d="M367.865 163.856L376.605 209.18C376.79 210.136 378.051 210.371 378.567 209.545L386.71 196.505C387.045 195.969 387.767 195.837 388.269 196.221L400.2 205.335C401.003 205.948 402.13 205.212 401.892 204.23L390.369 156.765L367.865 163.856Z" fill="black"/>
</g>
<path d="M368.754 82.4755L374.745 78.0728L379.452 83.8268L386.349 81.0521L389.477 87.796L396.847 86.8238L398.201 94.1337L405.582 95.025L405.074 102.442L412.001 105.141L409.665 112.199L415.703 116.535L411.685 122.791L416.455 128.492L411.008 133.552L414.21 140.261L407.676 143.807L409.109 151.102L401.899 152.911L401.473 160.333L394.038 160.292L391.78 167.375L384.589 165.487L380.64 171.785L374.146 168.169L368.754 173.288L363.362 168.169L356.868 171.785L352.919 165.487L345.729 167.375L343.47 160.292L336.035 160.333L335.609 152.911L328.399 151.102L329.832 143.807L323.298 140.261L326.5 133.552L321.053 128.492L325.823 122.791L321.805 116.535L327.843 112.199L325.507 105.141L332.434 102.442L331.927 95.025L339.308 94.1337L340.661 86.8238L348.031 87.796L351.16 81.0521L358.057 83.8268L362.763 78.0728L368.754 82.4755Z" fill="#E6B804"/>
<path d="M392.559 149.489C405.707 136.341 405.707 115.023 392.559 101.874C379.41 88.7258 358.092 88.7258 344.944 101.874C331.795 115.023 331.795 136.341 344.944 149.489C358.092 162.637 379.41 162.637 392.559 149.489Z" fill="white"/>
<path d="M376.1 117.705L385.135 119.028C386.62 119.245 387.21 121.07 386.135 122.116L379.588 128.483C379.161 128.899 378.966 129.498 379.066 130.085L380.6 139.088C380.851 140.566 379.298 141.692 377.971 140.993L369.893 136.735C369.366 136.457 368.736 136.457 368.208 136.733L360.12 140.973C358.792 141.67 357.241 140.541 357.496 139.062L359.05 130.063C359.152 129.476 358.957 128.876 358.531 128.46L351.999 122.078C350.925 121.03 351.52 119.206 353.005 118.992L362.044 117.689C362.634 117.604 363.144 117.234 363.408 116.7L367.459 108.515C368.124 107.17 370.043 107.173 370.705 108.519L374.738 116.713C375.001 117.247 375.51 117.618 376.1 117.705Z" fill="#E6B804"/>
<path d="M239.352 72.4782C239.352 70.0479 241.211 68.3242 243.745 68.3242C245.217 68.3242 246.402 68.8608 247.179 69.8308L245.742 71.1313C245.239 70.5263 244.623 70.1959 243.858 70.1959C242.547 70.1959 241.634 71.1085 241.634 72.4782C241.634 73.8472 242.547 74.7605 243.858 74.7605C244.623 74.7605 245.239 74.4293 245.742 73.8243L247.179 75.1256C246.402 76.0949 245.217 76.6315 243.745 76.6315C241.211 76.6315 239.352 74.9085 239.352 72.4782Z" fill="#263238"/>
<path d="M254.596 74.7261V76.4719H248.184V68.4849H254.448V70.2307H250.42V71.5768H253.969V73.2652H250.42V74.7254L254.596 74.7261Z" fill="#263238"/>
<path d="M259.344 74.3493H258.112V76.4719H255.853V68.4849H259.504C261.683 68.4849 263.052 69.6146 263.052 71.4399C263.052 72.6153 262.482 73.4823 261.489 73.9614L263.213 76.4719H260.793L259.344 74.3493ZM259.367 70.2652H258.112V72.6043H259.367C260.303 72.6043 260.77 72.1708 260.77 71.4406C260.77 70.698 260.303 70.2652 259.367 70.2652Z" fill="#263238"/>
<path d="M265.883 70.2763H263.429V68.4849H270.584V70.2763H268.142V76.4719H265.884V70.2763H265.883Z" fill="#263238"/>
<path d="M271.429 68.4849H273.689V76.4719H271.429V68.4849Z" fill="#263238"/>
<path d="M277.557 70.2307V71.9875H281.084V73.7333H277.557V76.4719H275.299V68.4849H281.563V70.2307H277.557Z" fill="#263238"/>
<path d="M282.625 68.4849H284.884V76.4719H282.625V68.4849Z" fill="#263238"/>
<path d="M286.082 72.4782C286.082 70.0479 287.942 68.3242 290.476 68.3242C291.947 68.3242 293.134 68.8608 293.91 69.8308L292.472 71.1313C291.97 70.5263 291.354 70.1959 290.589 70.1959C289.277 70.1959 288.365 71.1085 288.365 72.4782C288.365 73.8472 289.277 74.7605 290.589 74.7605C291.354 74.7605 291.97 74.4293 292.472 73.8243L293.91 75.1256C293.134 76.0949 291.947 76.6315 290.476 76.6315C287.942 76.6315 286.082 74.9085 286.082 72.4782Z" fill="#263238"/>
<path d="M300.13 74.9204H296.752L296.124 76.4719H293.819L297.345 68.4849H299.57L303.107 76.4719H300.757L300.13 74.9204ZM299.467 73.2541L298.44 70.698L297.412 73.2541H299.467Z" fill="#263238"/>
<path d="M305.048 70.2763H302.595V68.4849H309.749V70.2763H307.308V76.4719H305.049V70.2763H305.048Z" fill="#263238"/>
<path d="M310.595 68.4849H312.854V76.4719H310.595V68.4849Z" fill="#263238"/>
<path d="M314.053 72.4782C314.053 70.0818 315.935 68.3242 318.491 68.3242C321.047 68.3242 322.929 70.0818 322.929 72.4782C322.929 74.8739 321.046 76.6315 318.491 76.6315C315.935 76.6315 314.053 74.8746 314.053 72.4782ZM320.648 72.4782C320.648 71.0975 319.701 70.1959 318.491 70.1959C317.281 70.1959 316.334 71.0975 316.334 72.4782C316.334 73.8582 317.281 74.7605 318.491 74.7605C319.701 74.7605 320.648 73.8589 320.648 72.4782Z" fill="#263238"/>
<path d="M331.717 68.4849V76.4719H329.857L326.331 72.2156V76.4719H324.117V68.4849H325.977L329.503 72.7411V68.4849H331.717Z" fill="#263238"/>
<path d="M340.774 219.004C340.774 219.11 330.59 219.196 318.03 219.196C305.466 219.196 295.284 219.11 295.284 219.004C295.284 218.899 305.466 218.813 318.03 218.813C330.59 218.812 340.774 218.898 340.774 219.004Z" fill="#263238"/>
<path d="M340.774 225.423C340.774 225.529 330.59 225.614 318.03 225.614C305.466 225.614 295.284 225.528 295.284 225.423C295.284 225.318 305.466 225.231 318.03 225.231C330.59 225.231 340.774 225.317 340.774 225.423Z" fill="#263238"/>
<path d="M337.75 253.307C337.744 253.307 337.732 253.199 337.714 252.988C337.698 252.759 337.676 252.45 337.648 252.052C337.635 251.845 337.62 251.615 337.604 251.363C337.576 251.111 337.522 250.838 337.476 250.54C337.38 249.946 337.289 249.258 337.061 248.509C336.71 246.989 335.995 245.193 334.87 243.29C333.736 241.396 332.102 239.417 329.879 237.738C327.663 236.075 324.867 234.661 321.639 234.09C318.434 233.54 314.817 233.64 311.371 234.949C310.495 235.23 309.671 235.664 308.823 236.07C308.021 236.555 307.176 237.002 306.428 237.61C305.634 238.156 304.94 238.838 304.213 239.495C303.557 240.222 302.865 240.933 302.3 241.759C301.137 243.374 300.122 245.168 299.508 247.14C298.871 249.101 298.528 251.183 298.5 253.302C298.528 255.422 298.87 257.504 299.506 259.466C300.12 261.439 301.136 263.234 302.298 264.849C302.865 265.675 303.555 266.387 304.212 267.114C304.939 267.772 305.634 268.454 306.428 268.999C307.175 269.607 308.02 270.055 308.823 270.54C309.671 270.947 310.495 271.38 311.372 271.661C314.818 272.971 318.436 273.071 321.642 272.52C324.869 271.949 327.665 270.535 329.881 268.872C332.105 267.193 333.738 265.214 334.872 263.32C335.997 261.417 336.712 259.621 337.062 258.101C337.291 257.352 337.382 256.663 337.477 256.069C337.522 255.772 337.577 255.499 337.605 255.247C337.622 254.995 337.636 254.766 337.65 254.559C337.678 254.162 337.7 253.852 337.716 253.624C337.732 253.415 337.744 253.307 337.75 253.307C337.757 253.307 337.758 253.415 337.754 253.627C337.747 253.855 337.738 254.167 337.725 254.566C337.718 254.774 337.709 255.005 337.7 255.258C337.678 255.512 337.629 255.787 337.589 256.087C337.505 256.686 337.425 257.382 337.206 258.139C336.875 259.676 336.175 261.497 335.055 263.431C333.926 265.357 332.288 267.373 330.045 269.089C327.809 270.789 324.976 272.24 321.699 272.834C318.444 273.408 314.764 273.318 311.251 271.994C310.357 271.71 309.517 271.271 308.653 270.858C307.833 270.367 306.972 269.911 306.209 269.294C305.4 268.74 304.69 268.047 303.948 267.378C303.277 266.638 302.573 265.913 301.994 265.072C300.807 263.428 299.771 261.599 299.144 259.587C298.493 257.588 298.143 255.463 298.115 253.302C298.143 251.142 298.494 249.018 299.144 247.019C299.772 245.009 300.808 243.18 301.996 241.536C302.574 240.696 303.278 239.971 303.949 239.231C304.691 238.562 305.4 237.869 306.209 237.315C306.972 236.699 307.834 236.244 308.652 235.752C309.515 235.339 310.357 234.9 311.249 234.616C314.761 233.293 318.441 233.203 321.696 233.777C324.973 234.371 327.806 235.821 330.042 237.521C332.285 239.236 333.924 241.253 335.053 243.179C336.173 245.113 336.873 246.934 337.204 248.472C337.424 249.229 337.504 249.924 337.588 250.524C337.628 250.823 337.676 251.098 337.698 251.353C337.708 251.606 337.717 251.837 337.724 252.046C337.736 252.445 337.745 252.757 337.753 252.986C337.759 253.199 337.757 253.307 337.75 253.307Z" fill="#FF725E"/>
<path d="M330.363 256.266C331.984 249.456 327.776 242.62 320.965 241C314.155 239.379 307.319 243.586 305.699 250.397C304.078 257.208 308.285 264.043 315.096 265.664C321.907 267.284 328.742 263.077 330.363 256.266Z" fill="#BA9503"/>
<path d="M346.218 242.392C346.218 242.392 346.041 242.5 345.685 242.691C345.316 242.886 344.789 243.165 344.101 243.528C342.695 244.262 340.644 245.332 338.013 246.704C335.365 248.072 332.135 249.741 328.397 251.672C327.447 252.126 326.412 252.557 325.264 252.673C324.129 252.823 322.865 252.483 321.943 251.661C321.489 251.25 321.102 250.714 320.96 250.078C320.803 249.467 320.906 248.709 321.382 248.216C321.826 247.712 322.475 247.41 323.153 247.359C323.822 247.27 324.623 247.626 324.889 248.332L324.898 248.357L324.899 248.382C324.939 250.414 324.192 252.527 322.77 254.178C321.383 255.848 319.236 257.026 316.905 257.128C314.598 257.248 312.149 256.458 310.364 254.764C309.479 253.933 308.715 252.868 308.479 251.594C308.369 250.966 308.419 250.273 308.727 249.68C309.026 249.093 309.52 248.591 310.157 248.342C310.793 248.08 311.571 248.193 312.121 248.609C312.679 249.021 313.018 249.637 313.234 250.258C313.454 250.886 313.534 251.555 313.537 252.21C313.563 252.54 313.543 252.869 313.512 253.199C313.496 253.53 313.46 253.859 313.385 254.184C312.911 256.799 311.421 259.247 309.283 260.961C307.167 262.682 304.295 263.654 301.48 263.203C298.675 262.781 296.094 261.143 294.344 258.861C293.349 257.555 292.603 256.047 292.294 254.442C292.002 252.849 291.991 251.157 292.657 249.645C292.986 248.902 293.516 248.215 294.233 247.791C294.936 247.367 295.792 247.167 296.614 247.338C297.451 247.493 298.123 248.123 298.503 248.821C298.899 249.525 299.098 250.288 299.277 251.036C299.969 254.047 299.776 257.203 298.732 259.991C297.721 262.788 295.782 265.19 293.326 266.641C290.891 268.115 288.027 268.713 285.35 268.38C284.012 268.209 282.721 267.8 281.575 267.157C280.43 266.514 279.443 265.65 278.646 264.666C277.05 262.701 276.179 260.263 276.213 257.906C276.224 256.726 276.481 255.583 276.917 254.538C277.374 253.52 278.12 252.547 279.203 252.192C279.734 252.036 280.302 251.998 280.831 252.147C281.355 252.305 281.806 252.611 282.185 252.964C282.936 253.69 283.409 254.6 283.735 255.508C284.066 256.419 284.221 257.366 284.229 258.272C284.24 258.725 284.253 259.17 284.227 259.608C284.218 260.047 284.192 260.476 284.145 260.897C283.819 264.279 282.774 267.064 281.664 269.161C280.544 271.267 279.354 272.705 278.513 273.626C278.094 274.092 277.746 274.419 277.51 274.636C277.276 274.856 277.15 274.961 277.15 274.961C277.15 274.961 277.259 274.836 277.483 274.608C277.71 274.382 278.048 274.047 278.456 273.575C279.276 272.641 280.44 271.195 281.532 269.092C282.614 266.998 283.63 264.227 283.932 260.878C283.977 260.461 284 260.035 284.006 259.601C284.029 259.168 284.014 258.727 284 258.279C283.987 257.387 283.833 256.476 283.506 255.59C283.186 254.708 282.718 253.83 282.007 253.15C281.65 252.82 281.232 252.542 280.758 252.4C280.281 252.268 279.771 252.306 279.288 252.448C278.314 252.767 277.61 253.672 277.175 254.653C276.761 255.657 276.514 256.767 276.507 257.908C276.481 260.19 277.335 262.56 278.891 264.465C279.668 265.417 280.627 266.253 281.735 266.87C282.841 267.487 284.094 267.882 285.391 268.043C287.987 268.361 290.777 267.775 293.143 266.337C295.526 264.922 297.403 262.592 298.388 259.862C299.403 257.144 299.588 254.056 298.91 251.12C298.734 250.387 298.538 249.648 298.173 249.006C297.819 248.365 297.249 247.841 296.534 247.707C295.829 247.56 295.059 247.733 294.428 248.116C293.789 248.493 293.311 249.108 293.004 249.8C292.383 251.198 292.386 252.838 292.667 254.365C292.964 255.907 293.685 257.363 294.647 258.626C296.339 260.836 298.841 262.419 301.534 262.824C304.234 263.257 306.992 262.33 309.044 260.666C311.116 259.01 312.562 256.634 313.019 254.117C313.091 253.804 313.126 253.487 313.142 253.169C313.174 252.851 313.193 252.535 313.168 252.218C313.166 251.583 313.092 250.96 312.887 250.375C312.687 249.796 312.375 249.246 311.905 248.901C311.44 248.552 310.817 248.46 310.284 248.676C309.748 248.883 309.306 249.324 309.044 249.839C308.775 250.353 308.729 250.955 308.826 251.532C309.036 252.69 309.753 253.714 310.602 254.509C312.305 256.135 314.667 256.904 316.886 256.793C319.125 256.699 321.182 255.58 322.529 253.971C323.908 252.38 324.633 250.339 324.603 248.386L324.612 248.436C324.396 247.872 323.776 247.576 323.172 247.646C322.573 247.686 321.977 247.962 321.592 248.401C321.179 248.826 321.093 249.454 321.227 250.015C321.351 250.582 321.7 251.075 322.121 251.46C322.986 252.231 324.148 252.558 325.239 252.42C326.337 252.315 327.352 251.902 328.294 251.457C332.042 249.551 335.28 247.905 337.936 246.554C340.583 245.213 342.645 244.167 344.06 243.45C344.756 243.103 345.289 242.837 345.662 242.65C346.027 242.474 346.218 242.392 346.218 242.392Z" fill="#263238"/>
<path d="M280.285 60.8339C280.285 60.9399 264.716 61.0253 245.513 61.0253C226.305 61.0253 210.739 60.9392 210.739 60.8339C210.739 60.7287 226.305 60.6426 245.513 60.6426C264.716 60.6418 280.285 60.728 280.285 60.8339Z" fill="#E0E0E0"/>
<path d="M291.876 60.8339C291.876 60.9399 290.795 61.0253 289.461 61.0253C288.128 61.0253 287.047 60.9392 287.047 60.8339C287.047 60.7287 288.128 60.6426 289.461 60.6426C290.795 60.6418 291.876 60.728 291.876 60.8339Z" fill="#E0E0E0"/>
<path d="M361.1 60.8339C361.1 60.9399 346.9 61.0253 329.387 61.0253C311.868 61.0253 297.672 60.9392 297.672 60.8339C297.672 60.7287 311.868 60.6426 329.387 60.6426C346.9 60.6418 361.1 60.728 361.1 60.8339Z" fill="#E0E0E0"/>
<path d="M280.285 80.1831C280.285 80.289 264.716 80.3744 245.513 80.3744C226.305 80.3744 210.739 80.2883 210.739 80.1831C210.739 80.0778 226.305 79.9917 245.513 79.9917C264.716 79.991 280.285 80.0771 280.285 80.1831Z" fill="#E0E0E0"/>
<path d="M291.876 80.1831C291.876 80.289 290.795 80.3744 289.461 80.3744C288.128 80.3744 287.047 80.2883 287.047 80.1831C287.047 80.0778 288.128 79.9917 289.461 79.9917C290.795 79.991 291.876 80.0771 291.876 80.1831Z" fill="#E0E0E0"/>
<path d="M361.1 80.1831C361.1 80.289 346.9 80.3744 329.387 80.3744C311.868 80.3744 297.672 80.2883 297.672 80.1831C297.672 80.0778 311.868 79.9917 329.387 79.9917C346.9 79.991 361.1 80.0771 361.1 80.1831Z" fill="#E0E0E0"/>
<path d="M499.567 152.426C499.567 152.426 490.792 188.366 451.515 180.132C451.515 180.132 462.898 143.737 499.567 152.426Z" fill="#263238"/>
<path d="M480.59 206.853C480.59 206.853 462.559 233.737 432.77 215.146C432.77 215.146 453.082 188.673 480.59 206.853Z" fill="#263238"/>
<path d="M451.861 247.866C451.861 247.866 425.553 270.239 400.36 242.514C400.36 242.514 428.889 221.224 451.861 247.866Z" fill="#263238"/>
<path d="M424.002 160.913C424.002 160.913 453.179 174.932 439.02 207.065C439.02 207.065 409.925 190.729 424.002 160.913Z" fill="#263238"/>
<path d="M417.67 199.652C417.67 199.652 432.22 219.298 410.536 236.176C410.536 236.176 396.912 214.988 417.67 199.652Z" fill="#263238"/>
<path d="M485.155 110.396C485.155 110.396 488.502 139.527 457.038 144.194C457.038 144.194 455.505 114.007 485.155 110.396Z" fill="#263238"/>
<path d="M440.029 80.9229C440.029 80.9229 465.479 91.5522 454.425 121.378C454.425 121.378 428.923 108.65 440.029 80.9229Z" fill="#263238"/>
<path d="M424.668 123.485C424.668 123.485 458.366 127.33 455.399 164.001C455.399 164.001 420.986 157.836 424.668 123.485Z" fill="#263238"/>
<path d="M376.718 251.495C376.718 251.495 376.861 251.446 377.145 251.368C377.443 251.289 377.862 251.177 378.406 251.033C379.515 250.74 381.163 250.353 383.233 249.675C387.39 248.4 393.344 246.237 400.196 242.535C407.05 238.861 414.717 233.515 422.174 226.423C425.902 222.879 429.558 218.887 433.034 214.498C433.869 213.376 434.711 212.244 435.56 211.102C435.984 210.531 436.41 209.957 436.837 209.382C437.249 208.796 437.627 208.182 438.026 207.579C438.815 206.368 439.609 205.149 440.408 203.921C441.136 202.649 441.867 201.369 442.604 200.081C442.97 199.435 443.335 198.792 443.699 198.15C444.026 197.489 444.351 196.83 444.676 196.173C445.32 194.857 445.98 193.558 446.6 192.253C447.165 190.922 447.725 189.601 448.281 188.291C448.554 187.633 448.845 186.987 449.101 186.329C449.339 185.665 449.576 185.003 449.812 184.344C450.284 183.027 450.752 181.721 451.216 180.427C451.605 179.11 451.991 177.805 452.373 176.514C452.563 175.868 452.754 175.226 452.942 174.587C453.135 173.949 453.257 173.297 453.417 172.658C453.719 171.376 454.017 170.109 454.312 168.857C456.521 158.796 457.008 149.469 456.818 141.699C456.639 133.905 455.507 127.68 454.771 123.395C454.313 121.267 453.905 119.625 453.659 118.505C453.536 117.955 453.442 117.532 453.374 117.231C453.313 116.943 453.29 116.793 453.29 116.793C453.29 116.793 453.338 116.936 453.412 117.221C453.488 117.52 453.595 117.94 453.734 118.486C454.004 119.601 454.435 121.24 454.916 123.366C455.7 127.648 456.875 133.88 457.089 141.692C457.314 149.479 456.854 158.836 454.657 168.932C454.364 170.188 454.067 171.46 453.767 172.747C453.608 173.388 453.485 174.042 453.294 174.683C453.105 175.324 452.915 175.969 452.725 176.616C452.343 177.912 451.958 179.222 451.569 180.544C451.105 181.843 450.637 183.153 450.166 184.475C449.929 185.136 449.692 185.801 449.454 186.468C449.197 187.127 448.906 187.777 448.632 188.436C448.075 189.752 447.514 191.077 446.948 192.413C446.327 193.723 445.665 195.027 445.018 196.347C444.692 197.006 444.366 197.668 444.038 198.332C443.673 198.976 443.306 199.621 442.939 200.269C442.2 201.562 441.465 202.847 440.735 204.123C439.932 205.355 439.134 206.578 438.342 207.793C437.942 208.397 437.562 209.014 437.148 209.601C436.719 210.179 436.291 210.754 435.866 211.328C435.013 212.472 434.166 213.608 433.327 214.734C429.836 219.133 426.163 223.132 422.417 226.68C414.922 233.781 407.214 239.121 400.324 242.775C393.435 246.458 387.452 248.587 383.276 249.82C381.195 250.478 379.54 250.842 378.424 251.111C377.875 251.239 377.453 251.338 377.153 251.409C376.867 251.472 376.718 251.495 376.718 251.495Z" fill="#263238"/>
<path d="M414.519 215.492C414.545 215.495 414.534 215.788 414.492 216.315C414.45 216.843 414.371 217.604 414.256 218.542C414.028 220.419 413.639 223.004 413.087 225.837C412.532 228.67 411.919 231.211 411.424 233.037C411.177 233.949 410.965 234.684 410.804 235.188C410.645 235.692 410.544 235.967 410.519 235.961C410.493 235.954 410.544 235.665 410.659 235.15C410.796 234.554 410.963 233.827 411.161 232.971C411.587 231.132 412.157 228.59 412.71 225.764C413.261 222.939 413.69 220.369 413.987 218.505C414.127 217.637 414.245 216.9 414.342 216.298C414.431 215.775 414.492 215.488 414.519 215.492Z" fill="#455A64"/>
<path d="M421.685 244.668C421.68 244.694 421.386 244.666 420.857 244.592C420.247 244.503 419.501 244.394 418.621 244.265C416.735 243.985 414.128 243.614 411.24 243.275C408.35 242.938 405.728 242.696 403.828 242.533C402.942 242.455 402.191 242.389 401.577 242.334C401.046 242.283 400.752 242.243 400.753 242.216C400.755 242.19 401.051 242.18 401.585 242.185C402.119 242.189 402.892 242.215 403.846 242.263C405.754 242.357 408.387 242.556 411.284 242.895C414.18 243.235 416.788 243.649 418.665 243.999C419.605 244.173 420.362 244.326 420.883 244.446C421.405 244.564 421.69 244.641 421.685 244.668Z" fill="#455A64"/>
<path d="M457.145 209.008C457.149 209.034 456.803 209.116 456.174 209.243C455.471 209.381 454.576 209.558 453.508 209.768C451.258 210.213 448.156 210.861 444.756 211.683C441.355 212.509 438.301 213.353 436.097 213.987C435.05 214.289 434.174 214.541 433.486 214.74C432.869 214.916 432.524 215.001 432.515 214.976C432.507 214.951 432.836 214.818 433.441 214.598C434.044 214.376 434.924 214.078 436.019 213.728C438.206 213.026 441.257 212.138 444.666 211.311C448.075 210.486 451.193 209.879 453.459 209.502C454.593 209.313 455.512 209.175 456.15 209.096C456.787 209.014 457.141 208.982 457.145 209.008Z" fill="#455A64"/>
<path d="M431.392 181.461C431.415 181.448 431.626 181.766 431.991 182.353C432.36 182.938 432.853 183.81 433.422 184.909C434.563 187.104 435.93 190.257 436.979 193.891C438.022 197.528 438.538 200.926 438.737 203.392C438.839 204.625 438.884 205.626 438.881 206.318C438.885 207.009 438.874 207.391 438.847 207.391C438.821 207.392 438.781 207.011 438.733 206.323C438.69 205.635 438.603 204.642 438.468 203.418C438.2 200.972 437.645 197.608 436.611 193.997C435.57 190.389 434.253 187.245 433.18 185.029C432.645 183.921 432.191 183.033 431.862 182.427C431.537 181.818 431.369 181.475 431.392 181.461Z" fill="#455A64"/>
<path d="M470.473 164.698C470.486 164.721 470.21 164.914 469.698 165.245C469.123 165.62 468.4 166.092 467.539 166.654C465.725 167.856 463.268 169.587 460.689 171.673C458.112 173.764 455.909 175.809 454.357 177.334C453.628 178.06 453.018 178.67 452.532 179.154C452.103 179.586 451.855 179.817 451.836 179.799C451.816 179.782 452.026 179.517 452.423 179.053C452.817 178.586 453.411 177.933 454.166 177.145C455.673 175.566 457.859 173.478 460.449 171.377C463.04 169.279 465.536 167.574 467.393 166.426C468.321 165.851 469.084 165.406 469.622 165.117C470.157 164.825 470.46 164.675 470.473 164.698Z" fill="#455A64"/>
<path d="M433.68 138.098C433.689 138.088 433.784 138.161 433.957 138.309C434.16 138.491 434.404 138.709 434.698 138.971C435.34 139.55 436.246 140.411 437.346 141.493C439.548 143.657 442.497 146.747 445.556 150.334C448.613 153.924 451.194 157.326 452.982 159.844C453.876 161.103 454.582 162.134 455.052 162.858C455.265 163.19 455.441 163.466 455.588 163.696C455.707 163.889 455.764 163.995 455.753 164.003C455.741 164.01 455.663 163.919 455.524 163.74C455.361 163.522 455.165 163.259 454.929 162.943C454.381 162.2 453.65 161.207 452.763 160.004C450.923 157.531 448.313 154.164 445.264 150.582C442.212 147.005 439.302 143.894 437.153 141.685C436.106 140.618 435.242 139.738 434.594 139.079C434.319 138.797 434.091 138.561 433.902 138.366C433.748 138.199 433.671 138.107 433.68 138.098Z" fill="#455A64"/>
<path d="M474.264 119.866C474.283 119.883 474.024 120.207 473.54 120.775C473.014 121.397 472.326 122.21 471.498 123.19C469.784 125.238 467.482 128.119 465.112 131.43C462.745 134.744 460.763 137.856 459.379 140.139C458.721 141.24 458.174 142.153 457.756 142.852C457.375 143.495 457.153 143.844 457.13 143.832C457.106 143.819 457.284 143.445 457.626 142.78C457.964 142.113 458.482 141.162 459.147 140.001C460.473 137.677 462.426 134.532 464.801 131.207C467.178 127.885 469.523 125.02 471.292 123.013C472.176 122.009 472.909 121.212 473.43 120.675C473.949 120.136 474.244 119.848 474.264 119.866Z" fill="#455A64"/>
<path d="M443.797 92.2092C443.821 92.1989 444.009 92.5794 444.327 93.2771C444.646 93.9741 445.09 94.9898 445.624 96.252C446.692 98.775 448.105 102.288 449.558 106.209C451.008 110.132 452.223 113.72 453.054 116.33C453.47 117.636 453.795 118.696 454.007 119.432C454.219 120.168 454.325 120.58 454.3 120.587C454.275 120.595 454.121 120.2 453.865 119.478C453.591 118.692 453.231 117.66 452.797 116.415C451.901 113.828 450.648 110.26 449.198 106.342C447.748 102.426 446.377 98.9016 445.373 96.3543C444.891 95.1274 444.493 94.1103 444.189 93.3353C443.914 92.6191 443.773 92.2195 443.797 92.2092Z" fill="#455A64"/>
<path d="M58.8586 144.425C58.8586 144.425 67.1512 178.388 104.268 170.607C104.268 170.607 93.5103 136.215 58.8586 144.425Z" fill="#263238"/>
<path d="M76.792 195.858C76.792 195.858 93.8311 221.263 121.982 203.695C121.982 203.695 102.788 178.678 76.792 195.858Z" fill="#263238"/>
<path d="M103.94 234.615C103.94 234.615 128.801 255.758 152.608 229.558C152.608 229.558 125.648 209.438 103.94 234.615Z" fill="#263238"/>
<path d="M130.267 152.445C130.267 152.445 102.695 165.693 116.076 196.058C116.076 196.058 143.57 180.622 130.267 152.445Z" fill="#263238"/>
<path d="M136.251 189.053C136.251 189.053 122.501 207.618 142.992 223.568C142.992 223.568 155.867 203.546 136.251 189.053Z" fill="#263238"/>
<path d="M72.4783 104.708C72.4783 104.708 69.3157 132.236 99.0486 136.646C99.0486 136.646 100.497 108.12 72.4783 104.708Z" fill="#263238"/>
<path d="M115.121 76.856C115.121 76.856 91.0711 86.9001 101.516 115.085C101.516 115.085 125.616 103.058 115.121 76.856Z" fill="#263238"/>
<path d="M129.637 117.076C129.637 117.076 97.7923 120.709 100.597 155.364C100.597 155.364 133.117 149.538 129.637 117.076Z" fill="#263238"/>
<path d="M181.929 240.402C181.929 240.402 181.782 240.38 181.498 240.319C181.2 240.252 180.783 240.159 180.24 240.036C179.137 239.78 177.499 239.435 175.434 238.824C171.289 237.675 165.335 235.744 158.376 232.428C154.883 230.803 151.181 228.762 147.339 226.365C143.482 223.987 139.568 221.118 135.659 217.853C131.757 214.58 127.891 210.861 124.244 206.682C123.359 205.616 122.465 204.54 121.564 203.455C120.697 202.344 119.869 201.188 119.009 200.044C118.582 199.469 118.154 198.892 117.724 198.313C117.33 197.71 116.934 197.103 116.538 196.495C115.754 195.274 114.925 194.068 114.166 192.81C112.721 190.249 111.216 187.758 110.014 185.155C108.682 182.616 107.639 179.991 106.553 177.44C104.568 172.266 102.888 167.171 101.795 162.192C99.4675 152.266 98.7646 143.043 98.9618 135.346C99.1554 127.637 100.188 121.467 100.998 117.243C101.441 115.137 101.89 113.525 102.15 112.422C102.287 111.883 102.393 111.468 102.468 111.173C102.542 110.893 102.589 110.751 102.589 110.751C102.589 110.751 102.567 110.899 102.506 111.184C102.439 111.481 102.346 111.898 102.225 112.441C101.99 113.549 101.564 115.165 101.145 117.272C100.38 121.499 99.3916 127.662 99.2327 135.352C99.0707 143.028 99.7994 152.221 102.139 162.11C103.237 167.071 104.92 172.146 106.902 177.3C107.987 179.841 109.027 182.456 110.355 184.985C111.554 187.578 113.054 190.058 114.494 192.61C115.251 193.864 116.077 195.064 116.857 196.282C117.252 196.888 117.646 197.491 118.038 198.093C118.466 198.67 118.893 199.245 119.317 199.818C120.173 200.959 120.998 202.111 121.861 203.218C122.757 204.299 123.647 205.372 124.528 206.435C128.157 210.602 132.004 214.313 135.886 217.582C139.776 220.842 143.671 223.713 147.509 226.096C151.333 228.497 155.017 230.547 158.494 232.183C165.42 235.522 171.349 237.489 175.475 238.679C177.531 239.312 179.161 239.679 180.257 239.961C180.796 240.098 181.211 240.205 181.506 240.28C181.787 240.355 181.929 240.402 181.929 240.402Z" fill="#263238"/>
<path d="M139.228 204.022C139.255 204.019 139.314 204.289 139.398 204.782C139.491 205.358 139.604 206.054 139.737 206.867C140.02 208.627 140.426 211.056 140.947 213.726C141.469 216.395 142.007 218.799 142.408 220.537C142.591 221.34 142.749 222.027 142.878 222.597C142.986 223.085 143.033 223.358 143.007 223.364C142.981 223.372 142.886 223.112 142.734 222.635C142.581 222.159 142.379 221.465 142.144 220.602C141.675 218.878 141.094 216.477 140.57 213.799C140.048 211.122 139.682 208.679 139.468 206.905C139.361 206.018 139.287 205.299 139.249 204.8C139.211 204.301 139.202 204.024 139.228 204.022Z" fill="#455A64"/>
<path d="M132.456 231.592C132.451 231.567 132.721 231.492 133.214 231.378C133.706 231.264 134.422 231.118 135.309 230.952C137.084 230.62 139.548 230.227 142.285 229.906C145.023 229.586 147.511 229.399 149.315 229.312C150.216 229.267 150.946 229.245 151.451 229.242C151.956 229.239 152.236 229.249 152.237 229.276C152.239 229.302 151.961 229.342 151.459 229.391C150.873 229.444 150.164 229.507 149.333 229.582C147.538 229.738 145.06 229.967 142.329 230.287C139.6 230.607 137.136 230.957 135.353 231.219C134.528 231.339 133.823 231.441 133.24 231.525C132.74 231.593 132.461 231.618 132.456 231.592Z" fill="#455A64"/>
<path d="M98.9471 197.894C98.9515 197.868 99.2863 197.897 99.8891 197.973C100.492 198.046 101.361 198.176 102.432 198.353C104.575 198.707 107.521 199.281 110.743 200.06C113.965 200.842 116.847 201.681 118.914 202.348C119.947 202.68 120.78 202.963 121.349 203.173C121.92 203.382 122.231 203.509 122.223 203.535C122.215 203.56 121.887 203.48 121.304 203.315C120.647 203.127 119.82 202.889 118.836 202.607C116.752 202.009 113.867 201.213 110.653 200.433C107.44 199.656 104.51 199.043 102.384 198.62C101.38 198.421 100.536 198.253 99.8656 198.12C99.2702 197.999 98.9434 197.92 98.9471 197.894Z" fill="#455A64"/>
<path d="M123.284 171.863C123.306 171.877 123.148 172.202 122.844 172.778C122.534 173.35 122.105 174.191 121.6 175.238C120.588 177.331 119.345 180.303 118.361 183.712C117.385 187.123 116.858 190.301 116.604 192.613C116.476 193.768 116.392 194.707 116.351 195.357C116.303 196.007 116.264 196.367 116.238 196.366C116.211 196.366 116.2 196.005 116.202 195.351C116.198 194.698 116.24 193.752 116.335 192.586C116.521 190.256 117.009 187.044 117.993 183.606C118.985 180.171 120.278 177.191 121.358 175.117C121.897 174.08 122.364 173.256 122.714 172.704C123.059 172.149 123.261 171.849 123.284 171.863Z" fill="#455A64"/>
<path d="M86.3519 156.022C86.3652 156 86.6515 156.14 87.1593 156.415C87.6686 156.686 88.3899 157.107 89.2672 157.649C91.0233 158.732 93.3829 160.343 95.8323 162.325C98.2803 164.311 100.345 166.285 101.769 167.779C102.481 168.525 103.042 169.143 103.413 169.585C103.787 170.024 103.984 170.275 103.964 170.293C103.945 170.311 103.71 170.094 103.304 169.686C102.84 169.225 102.262 168.651 101.577 167.969C100.11 166.53 98.0264 164.598 95.5917 162.623C93.1555 160.651 90.8334 159.014 89.1215 157.877C88.3134 157.348 87.6311 156.901 87.0835 156.543C86.6 156.23 86.3387 156.045 86.3519 156.022Z" fill="#455A64"/>
<path d="M121.121 130.885C121.14 130.904 120.831 131.235 120.259 131.815C119.644 132.443 118.829 133.274 117.844 134.28C115.814 136.37 113.065 139.309 110.182 142.69C107.301 146.074 104.834 149.255 103.094 151.591C102.257 152.724 101.566 153.66 101.044 154.367C100.561 155.024 100.284 155.381 100.262 155.366C100.24 155.351 100.477 154.966 100.921 154.283C101.364 153.597 102.029 152.622 102.874 151.432C104.562 149.051 107.001 145.836 109.89 142.442C112.781 139.053 115.569 136.134 117.651 134.09C118.692 133.067 119.549 132.255 120.156 131.709C120.761 131.16 121.103 130.866 121.121 130.885Z" fill="#455A64"/>
<path d="M82.7698 113.656C82.7889 113.638 83.0701 113.91 83.5617 114.419C84.0556 114.925 84.7482 115.678 85.5842 116.626C87.2579 118.521 89.4747 121.227 91.7218 124.367C93.9666 127.51 95.811 130.483 97.0622 132.68C97.6892 133.778 98.1779 134.677 98.4966 135.308C98.8183 135.938 98.9846 136.292 98.9618 136.304C98.9382 136.317 98.7277 135.987 98.3664 135.381C97.9667 134.715 97.45 133.853 96.8289 132.818C95.5203 130.661 93.6464 127.722 91.4097 124.59C89.17 121.461 86.9952 118.738 85.3782 116.802C84.5995 115.88 83.9511 115.112 83.4506 114.519C82.9943 113.98 82.7506 113.674 82.7698 113.656Z" fill="#455A64"/>
<path d="M111.561 87.5212C111.585 87.5315 111.453 87.9106 111.193 88.5862C110.905 89.3251 110.53 90.2849 110.078 91.4404C109.131 93.8479 107.836 97.179 106.465 100.88C105.096 104.582 103.911 107.954 103.061 110.398C102.652 111.569 102.311 112.542 102.05 113.29C101.807 113.972 101.661 114.345 101.636 114.337C101.611 114.329 101.709 113.941 101.909 113.244C102.107 112.548 102.413 111.546 102.805 110.311C103.589 107.844 104.736 104.454 106.107 100.746C107.479 97.0399 108.816 93.7205 109.827 91.3374C110.333 90.1451 110.753 89.1853 111.056 88.5273C111.358 87.8701 111.536 87.5109 111.561 87.5212Z" fill="#455A64"/>
<path d="M181.895 122.171C187.259 122.866 188.058 128.369 190.045 132.979C192.032 137.589 195.836 141.702 198.761 145.831C200.308 148.014 202.415 149.974 202.974 152.566C203.558 155.277 202.323 158.08 201.742 160.843C201.161 163.605 201.566 166.979 204.216 168.197C203.646 168.883 202.693 169.285 201.786 169.222C201.806 170.493 200.559 171.596 199.222 171.958C197.885 172.32 196.483 172.12 195.135 171.918C195.496 172.764 194.729 173.781 193.78 174.116C192.831 174.45 191.795 174.287 190.83 174.089C189.864 173.891 188.864 173.662 187.881 173.876C185.7 174.35 184.381 176.809 182.175 177.127C179.146 177.564 176.962 173.688 173.973 174.365C172.566 174.684 171.626 175.912 170.472 176.749C169.318 177.586 167.369 177.372 166.823 176.172C165.219 178.194 162.736 180.154 160.123 180.693C160.505 179.792 160.301 178.725 159.617 178.043C158.214 179.196 156.454 179.968 154.632 180.23C155.763 179.18 156.388 177.683 156.297 176.243C155.098 177.207 153.382 177.576 151.91 177.188C154.609 175.655 154.872 172.072 153.915 169.389C152.958 166.705 151.134 164.295 150.776 161.464C150.387 158.383 154.012 154.481 153.304 151.453C152.212 146.789 152.299 143.946 152.487 139.593C152.61 136.741 153.867 134.212 155.12 131.554C156.705 128.194 158.863 125.738 162.259 123.822C165.107 122.217 169.213 120.746 172.479 120.675C178.288 120.547 180.656 120.364 185.256 123.44" fill="#263238"/>
<path d="M163.977 160.169C162.172 156.412 160.38 152.624 159.248 148.613C158.117 144.602 157.668 140.323 158.587 136.258C158.726 135.642 160.056 131.455 160.688 131.432C161.139 131.416 160.487 135.243 160.764 135.6C163.41 139.001 164.591 143.362 164.82 147.665C165.048 151.968 164.677 155.917 163.977 160.169Z" fill="#263238"/>
<path d="M189.399 195.423C182.978 196.149 167.521 189.405 166.656 183.001L161.451 144.465C159.723 134.156 164.282 124.559 174.634 123.117L175.599 123.04C185.307 122.26 193.985 129.067 195.541 138.682C196.989 147.623 198.473 157.518 198.801 162.351C199.48 172.358 189.605 174.714 189.605 174.714C189.583 174.717 189.859 177.025 190.221 179.946C191.035 186.507 189.993 193.704 189.399 195.423Z" fill="#FFBE9D"/>
<path d="M189.606 174.714C189.606 174.714 183.335 175.589 176.282 171.91C176.282 171.91 180.016 179.174 189.919 177.474L189.606 174.714Z" fill="#EB996E"/>
<path d="M191.819 147.381C191.906 148.132 191.341 148.826 190.558 148.932C189.776 149.037 189.07 148.514 188.983 147.762C188.896 147.011 189.46 146.316 190.242 146.211C191.026 146.105 191.732 146.629 191.819 147.381Z" fill="#263238"/>
<path d="M193.77 143.26C193.608 143.46 192.462 142.747 190.926 142.874C189.39 142.98 188.325 143.86 188.144 143.686C188.056 143.609 188.209 143.258 188.671 142.861C189.126 142.467 189.923 142.055 190.88 141.982C191.838 141.91 192.671 142.198 193.162 142.521C193.663 142.846 193.85 143.17 193.77 143.26Z" fill="#263238"/>
<path d="M177.377 148.511C177.464 149.263 176.899 149.957 176.115 150.062C175.334 150.167 174.628 149.645 174.54 148.893C174.453 148.142 175.018 147.447 175.8 147.342C176.583 147.236 177.289 147.76 177.377 148.511Z" fill="#263238"/>
<path d="M178.739 144.825C178.576 145.025 177.43 144.312 175.894 144.439C174.359 144.544 173.295 145.424 173.112 145.25C173.024 145.173 173.176 144.823 173.64 144.426C174.095 144.032 174.891 143.62 175.848 143.546C176.806 143.475 177.639 143.763 178.13 144.086C178.631 144.41 178.819 144.734 178.739 144.825Z" fill="#263238"/>
<path d="M185.197 156.187C185.183 156.1 186.124 155.859 187.656 155.537C188.045 155.465 188.41 155.357 188.454 155.084C188.524 154.793 188.326 154.383 188.099 153.943C187.654 153.023 187.188 152.059 186.699 151.049C184.746 146.925 183.3 143.521 183.466 143.444C183.633 143.367 185.351 146.647 187.303 150.77C187.775 151.788 188.226 152.758 188.655 153.686C188.839 154.121 189.135 154.606 188.982 155.21C188.9 155.512 188.629 155.747 188.383 155.836C188.138 155.933 187.917 155.955 187.724 155.982C186.175 156.19 185.21 156.274 185.197 156.187Z" fill="#263238"/>
<path d="M178.141 139.094C177.964 139.503 176.441 139.21 174.623 139.317C172.802 139.386 171.314 139.825 171.098 139.436C171.002 139.25 171.28 138.872 171.894 138.503C172.501 138.135 173.456 137.807 174.547 137.753C175.638 137.702 176.619 137.934 177.26 138.243C177.905 138.55 178.219 138.899 178.141 139.094Z" fill="#263238"/>
<path d="M193.118 139.698C192.833 140.077 191.548 139.834 190.045 139.96C188.538 140.041 187.293 140.458 186.965 140.122C186.82 139.957 186.987 139.589 187.511 139.206C188.027 138.825 188.919 138.469 189.953 138.397C190.988 138.326 191.912 138.557 192.468 138.864C193.034 139.171 193.243 139.514 193.118 139.698Z" fill="#263238"/>
<path d="M162.862 151.802C162.685 151.742 155.83 150.321 156.597 157.139C157.363 163.956 164.049 161.78 164.039 161.583C164.029 161.386 162.862 151.802 162.862 151.802Z" fill="#FFBE9D"/>
<path d="M161.667 159.234C161.634 159.216 161.557 159.331 161.367 159.445C161.182 159.557 160.852 159.657 160.482 159.563C159.732 159.38 158.997 158.305 158.826 157.08C158.739 156.462 158.802 155.856 158.967 155.342C159.12 154.82 159.403 154.435 159.758 154.33C160.109 154.207 160.391 154.394 160.496 154.577C160.608 154.757 160.581 154.898 160.618 154.906C160.639 154.92 160.751 154.775 160.665 154.499C160.622 154.367 160.524 154.215 160.349 154.103C160.171 153.988 159.922 153.947 159.672 154.003C159.15 154.099 158.732 154.636 158.551 155.199C158.341 155.769 158.255 156.451 158.353 157.146C158.551 158.515 159.399 159.721 160.416 159.895C160.91 159.966 161.293 159.777 161.481 159.593C161.673 159.4 161.692 159.244 161.667 159.234Z" fill="#EB996E"/>
<path d="M189.766 127.928C190.794 127.186 187.054 124.019 184.196 123.119C179.877 121.758 173.487 121.374 169.843 122.902C165.456 124.742 161.955 127.462 160.176 131.874C158.397 136.286 158.124 141.209 158.83 145.915C159.044 147.351 159.376 148.834 160.294 149.959C161.428 151.349 163.368 152.076 163.541 154.162C163.603 154.925 163.913 155.665 164.5 156.155C165.907 157.33 167.28 155.899 167.829 154.566C169.003 151.717 168.782 148.512 168.543 145.44C168.373 143.257 168.192 141.028 167.327 139.015C166.856 137.921 166.19 136.913 165.781 135.794C165.371 134.675 165.247 133.364 165.851 132.336C165.949 132.168 166.118 131.952 166.336 131.708C168.059 129.784 170.698 128.951 173.219 129.512C177.219 130.404 184.013 131.635 185.566 130.126C187.799 127.955 188.239 126.662 188.239 126.662L189.766 127.928Z" fill="#263238"/>
<path d="M181.094 157.521C181.002 157.546 180.993 157.924 181.195 158.496C181.386 159.063 181.885 159.827 182.668 160.346C183.441 160.874 184.231 161.119 184.795 161.254C185.363 161.385 185.727 161.4 185.758 161.308C185.789 161.211 185.476 161.022 184.966 160.773C184.459 160.521 183.749 160.213 183.079 159.752C181.71 158.856 181.307 157.446 181.094 157.521Z" fill="#263238"/>
<path d="M163.083 152.69C163.139 152.809 163.195 152.934 163.25 153.073C163.25 153.073 163.187 152.937 163.083 152.69Z" fill="#FF725E"/>
<path d="M160.748 151.644C160.748 151.644 161.892 150.137 163.084 152.69C161.663 149.346 152.218 125.185 178.113 121.998C178.113 121.998 168.76 120.347 163.117 124.999C163.117 124.999 151.655 131.857 160.748 151.644Z" fill="#455A64"/>
<path d="M210.263 273.627L150.076 274.447C150.076 274.447 133.245 267.404 128.62 267.214C123.996 267.025 114.817 267.613 110.571 274.447C106.183 281.51 105.57 293.972 119.094 303.03C132.264 311.848 192.492 319.998 200.748 319.248L215.967 298.82C215.967 298.82 216.127 282.078 215.967 281.28C215.808 280.483 213.257 273.308 213.257 273.308L210.263 273.627Z" fill="#263238"/>
<path d="M174.234 301.89L143.05 313.473L157.263 352.344C160.893 350.759 160.995 327.923 160.995 327.923L181.28 321.322L174.234 301.89Z" fill="#FF725E"/>
<g opacity="0.6">
<path d="M158.284 315.288C157.803 314.611 156.767 314.4 156.071 314.853C155.375 315.306 155.152 316.357 155.621 317.043C156.089 317.728 157.325 318.019 157.967 317.492C158.608 316.964 158.802 315.715 158.183 315.162" fill="white"/>
</g>
<path d="M143.05 313.473L146.198 312.304L158.673 350.088C158.673 350.088 158.554 352.095 157.263 352.344L143.05 313.473Z" fill="#263238"/>
<path d="M161.422 328.481C161.23 328.544 160.798 327.626 159.845 326.915C158.912 326.179 157.914 325.999 157.926 325.797C157.899 325.608 159.136 325.476 160.274 326.357C161.419 327.228 161.612 328.459 161.422 328.481Z" fill="#263238"/>
<path d="M161.227 333.174C161.06 333.285 160.436 332.581 159.398 332.23C158.37 331.848 157.442 332.002 157.381 331.811C157.286 331.643 158.35 331.106 159.633 331.567C160.919 332.016 161.407 333.104 161.227 333.174Z" fill="#263238"/>
<path d="M157.194 337.274C157.09 337.117 157.943 336.506 159.16 336.613C160.379 336.712 161.116 337.457 160.988 337.595C160.87 337.759 160.102 337.387 159.101 337.314C158.102 337.217 157.282 337.456 157.194 337.274Z" fill="#263238"/>
<path d="M165.879 326.463C165.677 326.447 165.62 325.481 165.155 324.434C164.712 323.378 164.046 322.675 164.173 322.517C164.27 322.357 165.27 322.915 165.801 324.155C166.34 325.391 166.062 326.502 165.879 326.463Z" fill="#263238"/>
<path d="M170.152 323.851C170.075 323.882 169.683 323.175 169.45 321.901C169.335 321.266 169.273 320.492 169.331 319.635C169.36 319.207 169.419 318.759 169.515 318.3C169.565 318.079 169.603 317.825 169.758 317.545C169.879 317.262 170.338 316.958 170.736 317.089C171.107 317.178 171.365 317.483 171.474 317.761C171.588 318.045 171.615 318.298 171.64 318.528C171.694 318.999 171.698 319.458 171.668 319.891C171.601 320.757 171.395 321.516 171.145 322.116C170.64 323.323 170.043 323.891 169.983 323.839C169.889 323.776 170.322 323.12 170.676 321.95C170.851 321.367 170.993 320.652 171.02 319.856C171.031 319.458 171.013 319.04 170.956 318.612C170.914 318.161 170.788 317.81 170.567 317.771C170.483 317.758 170.453 317.764 170.364 317.893C170.285 318.023 170.238 318.229 170.187 318.447C170.089 318.873 170.02 319.291 169.976 319.69C169.887 320.492 169.895 321.224 169.942 321.837C170.04 323.065 170.256 323.817 170.152 323.851Z" fill="#263238"/>
<path d="M169.79 323.704C169.736 323.647 170.279 323.023 171.483 322.503C172.08 322.248 172.843 322.041 173.711 321.989C174.145 321.966 174.604 321.983 175.075 322.053C175.542 322.141 176.158 322.231 176.511 322.936C176.667 323.315 176.483 323.745 176.265 323.947C176.049 324.171 175.833 324.28 175.625 324.408C175.197 324.645 174.749 324.799 174.314 324.888C173.442 325.069 172.63 324.982 172 324.792C170.714 324.401 170.198 323.692 170.257 323.652C170.329 323.554 170.937 324.082 172.117 324.308C172.699 324.42 173.422 324.445 174.171 324.255C174.545 324.162 174.925 324.017 175.284 323.809C175.674 323.597 175.951 323.32 175.852 323.181C175.785 322.986 175.353 322.772 174.966 322.733C174.545 322.661 174.13 322.632 173.734 322.637C172.942 322.65 172.231 322.79 171.654 322.97C170.493 323.334 169.856 323.797 169.79 323.704Z" fill="#263238"/>
<path d="M199.957 297.086L230.135 311.084L212.912 348.718C209.418 346.853 211.11 324.079 211.11 324.079L191.406 315.904L199.957 297.086Z" fill="#FF725E"/>
<g opacity="0.6">
<path d="M214.805 311.696C215.337 311.059 216.386 310.931 217.045 311.436C217.704 311.942 217.844 313.008 217.322 313.655C216.801 314.301 215.546 314.494 214.949 313.917C214.351 313.341 214.256 312.08 214.916 311.578" fill="white"/>
</g>
<path d="M230.135 311.084L227.089 309.67L211.683 346.357C211.683 346.357 211.646 348.366 212.912 348.717L230.135 311.084Z" fill="#263238"/>
<path d="M210.639 324.602C210.825 324.68 211.329 323.799 212.334 323.165C213.321 322.505 214.331 322.404 214.336 322.201C214.378 322.016 213.154 321.787 211.95 322.576C210.741 323.354 210.452 324.565 210.639 324.602Z" fill="#263238"/>
<path d="M210.465 329.297C210.624 329.421 211.301 328.768 212.363 328.499C213.418 328.199 214.331 328.426 214.406 328.24C214.515 328.08 213.496 327.461 212.181 327.82C210.863 328.166 210.291 329.212 210.465 329.297Z" fill="#263238"/>
<path d="M214.163 333.7C214.279 333.551 213.478 332.875 212.256 332.887C211.033 332.89 210.239 333.574 210.357 333.722C210.461 333.895 211.256 333.585 212.259 333.59C213.263 333.573 214.062 333.875 214.163 333.7Z" fill="#263238"/>
<path d="M206.355 322.24C206.558 322.24 206.69 321.281 207.236 320.275C207.762 319.257 208.48 318.608 208.367 318.441C208.283 318.273 207.241 318.751 206.615 319.946C205.979 321.135 206.17 322.265 206.355 322.24Z" fill="#263238"/>
<path d="M202.301 319.301C202.376 319.338 202.822 318.664 203.154 317.412C203.318 316.788 203.441 316.021 203.45 315.162C203.455 314.733 203.431 314.281 203.372 313.817C203.339 313.593 203.322 313.336 203.188 313.045C203.09 312.753 202.655 312.415 202.249 312.514C201.872 312.574 201.591 312.857 201.46 313.126C201.324 313.4 201.277 313.65 201.234 313.877C201.144 314.343 201.103 314.8 201.1 315.233C201.097 316.102 201.244 316.875 201.445 317.493C201.854 318.736 202.404 319.349 202.468 319.302C202.567 319.246 202.187 318.559 201.925 317.365C201.796 316.769 201.712 316.046 201.747 315.25C201.768 314.852 201.818 314.437 201.909 314.015C201.986 313.568 202.139 313.228 202.363 313.207C202.448 313.2 202.477 313.208 202.555 313.344C202.624 313.48 202.655 313.69 202.688 313.911C202.753 314.343 202.788 314.765 202.801 315.168C202.826 315.973 202.761 316.703 202.666 317.309C202.474 318.526 202.199 319.258 202.301 319.301Z" fill="#263238"/>
<path d="M202.673 319.182C202.731 319.13 202.24 318.464 201.08 317.853C200.504 317.552 199.761 317.285 198.899 317.165C198.468 317.108 198.009 317.089 197.535 317.122C197.062 317.172 196.441 317.214 196.033 317.889C195.849 318.254 195.998 318.697 196.198 318.916C196.396 319.157 196.603 319.282 196.801 319.426C197.209 319.696 197.644 319.885 198.07 320.008C198.925 320.256 199.742 320.233 200.386 320.094C201.697 319.805 202.268 319.139 202.212 319.095C202.148 318.991 201.501 319.47 200.306 319.603C199.717 319.67 198.995 319.637 198.262 319.389C197.896 319.266 197.529 319.092 197.189 318.856C196.816 318.614 196.562 318.317 196.672 318.186C196.754 317.998 197.202 317.817 197.591 317.809C198.017 317.77 198.432 317.775 198.827 317.81C199.615 317.885 200.313 318.08 200.874 318.306C202.001 318.758 202.599 319.269 202.673 319.182Z" fill="#263238"/>
<path d="M213.257 273.309C213.257 273.309 239.247 263.601 248.814 264.858C254.163 265.56 262.526 269.641 263.164 276.498C263.802 283.354 262.129 292.526 252.881 296.99C243.633 301.455 206.722 318.018 197.952 320.569C189.183 323.12 167.318 329.094 167.318 329.094L159.011 305.422C159.011 305.422 204.328 289.732 206.72 287.978C209.112 286.224 215.17 283.832 215.17 283.832L213.257 273.309Z" fill="#263238"/>
<path d="M122.908 276.527C122.91 276.531 122.971 276.516 123.089 276.48C123.22 276.44 123.393 276.388 123.61 276.322C124.069 276.183 124.748 275.985 125.632 275.775C126.517 275.567 127.608 275.332 128.89 275.208C130.172 275.081 131.646 275.075 133.263 275.214C134.878 275.356 136.642 275.647 138.464 276.205C139.374 276.485 140.301 276.825 141.207 277.276C142.125 277.723 143.069 278.184 144.037 278.656C147.925 280.515 152.267 282.417 156.892 284.245C166.153 287.956 175.043 289.716 181.381 291.156C184.561 291.86 187.132 292.439 188.903 292.86C189.776 293.067 190.461 293.229 190.944 293.344C191.166 293.394 191.342 293.434 191.476 293.464C191.596 293.49 191.659 293.5 191.66 293.495C191.662 293.491 191.601 293.47 191.484 293.436C191.351 293.398 191.177 293.35 190.958 293.289C190.495 293.165 189.813 292.974 188.93 292.754C187.165 292.3 184.6 291.692 181.425 290.963C175.095 289.473 166.229 287.684 156.995 283.983C152.376 282.159 148.036 280.266 144.148 278.423C143.179 277.955 142.234 277.498 141.316 277.055C140.393 276.601 139.452 276.261 138.531 275.983C136.687 275.43 134.907 275.148 133.279 275.017C131.65 274.889 130.165 274.909 128.874 275.053C127.58 275.193 126.489 275.445 125.606 275.67C124.722 275.897 124.047 276.113 123.593 276.269C123.378 276.346 123.209 276.407 123.079 276.454C122.964 276.498 122.907 276.523 122.908 276.527Z" fill="#455A64"/>
<path d="M124.275 273.101C124.284 273.146 125.066 273.005 126.339 272.868C127.611 272.729 129.379 272.625 131.327 272.723C133.276 272.826 135.024 273.111 136.276 273.378C137.527 273.646 138.291 273.866 138.305 273.822C138.311 273.804 138.125 273.73 137.785 273.612C137.445 273.492 136.945 273.344 136.32 273.185C135.072 272.865 133.31 272.546 131.341 272.443C129.373 272.344 127.588 272.48 126.314 272.671C125.676 272.765 125.163 272.861 124.813 272.946C124.463 273.027 124.271 273.082 124.275 273.101Z" fill="#455A64"/>
<path d="M224.19 280.183C224.22 280.222 224.941 279.664 226.186 278.893C227.429 278.12 229.225 277.172 231.33 276.426C233.438 275.685 235.432 275.296 236.884 275.118C238.337 274.937 239.248 274.919 239.247 274.87C239.247 274.851 239.019 274.84 238.607 274.836C238.195 274.828 237.597 274.854 236.862 274.921C235.393 275.05 233.369 275.412 231.236 276.161C229.107 276.916 227.304 277.904 226.079 278.726C225.465 279.136 224.983 279.49 224.667 279.755C224.348 280.017 224.178 280.168 224.19 280.183Z" fill="#455A64"/>
<path d="M211.147 315.489C211.147 315.489 211.077 315.512 210.944 315.567C210.804 315.626 210.609 315.707 210.354 315.814C209.831 316.025 209.075 316.384 208.058 316.774C206.034 317.578 203.042 318.678 199.205 319.941C191.528 322.449 180.491 325.645 167.286 328.971L167.436 329.052C164.974 322.219 162.258 314.68 159.401 306.749L159.323 306.925C162.51 305.617 165.865 304.24 169.273 302.84C191.207 293.813 210.918 285.701 224.332 280.18L224.35 280.173L224.364 280.158C226.604 277.786 228.666 275.696 230.6 274.008C232.533 272.322 234.311 271.02 235.827 270.069C237.336 269.104 238.581 268.494 239.413 268.069C239.832 267.874 240.152 267.724 240.377 267.619C240.593 267.517 240.701 267.458 240.701 267.458C240.701 267.458 240.586 267.5 240.366 267.594C240.139 267.694 239.815 267.835 239.391 268.02C238.55 268.432 237.294 269.027 235.772 269.982C234.243 270.922 232.451 272.216 230.503 273.897C228.554 275.578 226.478 277.664 224.228 280.028L224.26 280.006C210.837 285.505 191.113 293.587 169.166 302.58C165.757 303.98 162.404 305.358 159.217 306.667L159.094 306.718L159.139 306.843C162.004 314.771 164.728 322.307 167.196 329.137L167.235 329.245L167.346 329.217C180.553 325.868 191.582 322.637 199.251 320.084C203.084 318.801 206.07 317.677 208.086 316.849C209.099 316.447 209.851 316.075 210.369 315.851C210.621 315.737 210.813 315.648 210.952 315.585C211.083 315.525 211.147 315.489 211.147 315.489Z" fill="#455A64"/>
<path d="M146.908 190.478C146.908 190.478 139.425 194.788 137.908 199.853C136.987 202.928 130.006 242.271 128.902 250.03C127.787 257.862 130.128 263.534 133.436 266.107C136.744 268.68 146.773 272.11 146.773 272.11L160.882 276.679L164.926 266.387L151.495 247.094L152.795 234.097L146.908 190.478Z" fill="#FF725E"/>
<path d="M161.618 183.68L166.284 180.238C166.284 180.238 172.364 186.461 179.348 185.726C186.332 184.991 190.469 179.645 190.469 179.645L211.297 183.887C212.694 184.167 215.243 185.049 217.68 188.531C220.4 192.417 233.287 209.644 233.287 209.644H242.313C244.801 209.644 247.086 211.019 248.243 213.221C249.784 216.154 251.634 220.078 251.454 221.704C251.148 224.451 251.678 231.997 247.993 234.353C246.824 235.1 242.642 237.341 239.397 237.188C234.608 236.963 229.047 234.469 225.842 232.229C223.129 230.331 216.818 223.773 214.391 221.213L214.394 221.253L212.836 275.892L158.226 274.337L146.909 190.479C146.908 190.477 161.066 183.68 161.618 183.68Z" fill="#FF725E"/>
<path d="M214.584 198.32C214.507 198.32 214.364 205.092 214.266 213.445C214.167 221.802 214.15 228.574 214.228 228.575C214.305 228.576 214.448 221.805 214.546 213.449C214.645 205.096 214.662 198.322 214.584 198.32Z" fill="#263238"/>
<path d="M140.296 242.491C140.293 242.519 140.759 242.565 141.585 242.722C142.412 242.873 143.591 243.199 144.966 243.798C146.345 244.392 147.89 245.314 149.469 246.518C151.047 247.726 152.646 249.226 154.212 250.905C155.775 252.59 157.199 254.259 158.54 255.74C159.878 257.223 161.134 258.518 162.26 259.529C163.383 260.543 164.355 261.293 165.056 261.766C165.399 262.014 165.687 262.175 165.873 262.296C166.063 262.412 166.165 262.469 166.17 262.46C166.176 262.452 166.084 262.38 165.905 262.249C165.728 262.113 165.452 261.938 165.12 261.678C164.442 261.18 163.495 260.41 162.395 259.383C161.292 258.359 160.057 257.056 158.732 255.567C157.405 254.08 155.986 252.405 154.417 250.713C152.843 249.026 151.227 247.52 149.626 246.313C148.024 245.109 146.45 244.194 145.045 243.617C143.643 243.034 142.443 242.733 141.604 242.615C141.188 242.533 140.856 242.53 140.636 242.504C140.413 242.485 140.297 242.48 140.296 242.491Z" fill="#263238"/>
<path d="M139.061 238.789C139.053 238.84 139.887 238.954 141.188 239.316C142.489 239.673 144.246 240.33 146.017 241.38C147.785 242.437 149.199 243.671 150.133 244.644C151.07 245.616 151.567 246.294 151.609 246.264C151.624 246.253 151.512 246.076 151.292 245.764C151.078 245.449 150.733 245.017 150.278 244.509C149.372 243.49 147.955 242.213 146.161 241.14C144.363 240.073 142.565 239.436 141.238 239.124C140.575 238.967 140.031 238.869 139.652 238.83C139.273 238.785 139.063 238.77 139.061 238.789Z" fill="#263238"/>
<g opacity="0.3">
<path d="M240.698 229.198C237.808 229.986 234.336 225.827 231.71 223.224C230.344 221.87 228.925 220.426 228.422 218.57C228.006 217.037 228.278 215.382 228.876 213.91C229.474 212.438 229.898 211.484 230.799 210.176C230.556 212.42 230.004 215.858 230.759 218.68C231.389 221.032 232.879 222.904 234.46 224.679C236.133 226.558 238.112 228.531 240.698 229.198Z" fill="black"/>
</g>
<path d="M228.34 226.819C228.394 226.802 228.058 225.867 227.788 224.299C227.646 223.517 227.554 222.573 227.523 221.524C227.509 220.475 227.569 219.321 227.752 218.123C227.947 216.927 228.246 215.811 228.582 214.816C228.935 213.828 229.314 212.959 229.689 212.258C230.43 210.85 231.037 210.064 230.991 210.031C230.975 210.019 230.818 210.21 230.546 210.567C230.407 210.744 230.245 210.965 230.077 211.237C229.907 211.507 229.699 211.806 229.514 212.164C229.112 212.86 228.709 213.732 228.337 214.729C227.983 215.733 227.672 216.865 227.473 218.079C227.288 219.294 227.236 220.467 227.263 221.531C227.309 222.594 227.424 223.548 227.591 224.334C227.657 224.731 227.763 225.08 227.841 225.389C227.916 225.699 228.003 225.96 228.081 226.171C228.231 226.595 228.321 226.825 228.34 226.819Z" fill="#263238"/>
<path d="M188.194 181.756C188.156 181.829 188.796 182.201 189.466 182.802C190.141 183.398 190.585 183.99 190.653 183.945C190.717 183.909 190.36 183.219 189.653 182.592C188.949 181.962 188.222 181.688 188.194 181.756Z" fill="#263238"/>
<path d="M182.511 185.057C182.452 185.116 183.002 185.707 183.444 186.578C183.895 187.444 184.054 188.235 184.137 188.221C184.208 188.218 184.169 187.366 183.693 186.45C183.225 185.53 182.555 185.001 182.511 185.057Z" fill="#263238"/>
<path d="M172.782 188.484C172.86 188.501 173.081 187.753 173.407 186.855C173.73 185.955 174.036 185.238 173.965 185.201C173.899 185.166 173.474 185.839 173.144 186.76C172.811 187.678 172.708 188.469 172.782 188.484Z" fill="#263238"/>
<path d="M166.521 185.523C166.604 185.542 166.817 184.589 167.433 183.583C168.038 182.57 168.784 181.939 168.729 181.874C168.693 181.813 167.832 182.373 167.193 183.438C166.547 184.497 166.451 185.521 166.521 185.523Z" fill="#263238"/>
<path d="M148.54 203.218C148.464 203.229 149.388 210.692 150.605 219.886C151.822 229.083 152.871 236.528 152.947 236.519C153.024 236.508 152.1 229.047 150.882 219.849C149.666 210.655 148.617 203.208 148.54 203.218Z" fill="#263238"/>
<path d="M230.375 215.303C230.356 215.303 230.363 215.577 230.392 216.074C230.396 216.324 230.44 216.625 230.503 216.973C230.534 217.149 230.565 217.336 230.598 217.531C230.64 217.727 230.7 217.931 230.754 218.147C230.956 219.016 231.346 220.007 231.83 221.08C232.357 222.132 233.007 223.258 233.837 224.338C234.677 225.408 235.585 226.343 236.504 227.085C237.442 227.799 238.346 228.379 239.182 228.701C239.389 228.786 239.582 228.875 239.771 228.944C239.962 228.997 240.146 229.048 240.319 229.096C240.487 229.142 240.645 229.185 240.795 229.226C240.943 229.258 241.083 229.265 241.206 229.283C241.702 229.341 241.974 229.363 241.975 229.344C241.989 229.268 240.863 229.248 239.263 228.52C238.453 228.183 237.579 227.596 236.667 226.885C235.773 226.146 234.888 225.221 234.06 224.168C233.242 223.105 232.597 221.999 232.064 220.968C231.574 219.916 231.17 218.946 230.946 218.095C230.454 216.403 230.439 215.297 230.375 215.303Z" fill="#263238"/>
<g opacity="0.3">
<path d="M150.297 277.76C147.982 276.641 147.455 273.637 147.218 271.076C146.526 263.57 145.834 256.065 145.141 248.559C144.816 245.03 144.657 241.001 147.146 238.479C149.419 236.174 153.031 236.036 156.267 236.045C176.251 236.103 193.898 236.686 213.882 236.745L212.864 271.701L150.297 277.76Z" fill="black"/>
</g>
<path d="M222.495 242.16L220.367 282.703C220.286 284.266 218.979 285.491 217.396 285.49L152.813 285.603C151.227 285.602 149.919 284.371 149.842 282.805L147.377 242.95C147.296 241.295 148.473 239.093 150.15 239.061L219.464 239.067C221.191 239.033 222.584 240.455 222.495 242.16Z" fill="#E0E0E0"/>
<path d="M222.495 242.16C222.495 242.16 222.5 242.109 222.502 242.008C222.51 241.907 222.501 241.757 222.478 241.557C222.421 241.168 222.253 240.557 221.713 239.978C221.445 239.693 221.086 239.418 220.632 239.242C220.182 239.052 219.636 239.01 219.072 239.025C217.934 239.022 216.622 239.017 215.145 239.012C209.231 239.001 200.683 238.985 190.122 238.965C179.556 238.955 166.977 238.944 153.01 238.931C152.137 238.93 151.258 238.93 150.375 238.93C149.934 238.91 149.43 239.018 149.041 239.27C148.641 239.515 148.316 239.859 148.055 240.238C147.542 241.002 147.238 241.912 147.244 242.853C147.298 243.757 147.352 244.666 147.405 245.579C147.63 249.228 147.859 252.954 148.093 256.747C148.561 264.332 149.046 272.186 149.542 280.229L149.635 281.736C149.677 282.242 149.671 282.727 149.76 283.254C149.951 284.294 150.73 285.179 151.707 285.54C152.189 285.733 152.741 285.76 153.223 285.743L154.709 285.74C155.697 285.738 156.682 285.736 157.664 285.734C161.59 285.727 165.457 285.719 169.259 285.712C176.86 285.696 184.193 285.68 191.177 285.666C198.162 285.649 204.799 285.633 211.012 285.618C212.565 285.614 214.091 285.61 215.59 285.606C215.964 285.605 216.338 285.604 216.709 285.603C217.079 285.596 217.447 285.618 217.83 285.568C218.586 285.465 219.288 285.072 219.767 284.498C220.255 283.931 220.494 283.17 220.487 282.457C220.523 281.752 220.559 281.055 220.595 280.364C220.665 278.983 220.735 277.634 220.803 276.315C221.338 265.767 221.771 257.232 222.07 251.325C222.212 248.379 222.324 246.09 222.4 244.531C222.435 243.758 222.461 243.167 222.479 242.763C222.494 242.364 222.495 242.16 222.495 242.16C222.495 242.16 222.474 242.363 222.449 242.761C222.425 243.165 222.389 243.755 222.343 244.527C222.254 246.086 222.126 248.374 221.96 251.319C221.64 257.224 221.176 265.758 220.604 276.303C220.534 277.622 220.461 278.972 220.387 280.352C220.35 281.042 220.313 281.74 220.275 282.445C220.278 283.144 220.056 283.823 219.601 284.357C219.155 284.889 218.502 285.254 217.799 285.348C217.453 285.394 217.079 285.373 216.708 285.379C216.337 285.379 215.964 285.38 215.589 285.38C214.091 285.381 212.564 285.383 211.011 285.384C204.799 285.39 198.161 285.398 191.177 285.406C184.191 285.415 176.859 285.426 169.258 285.436C165.457 285.442 161.589 285.448 157.663 285.454C156.682 285.456 155.696 285.457 154.708 285.459L153.223 285.462C152.717 285.477 152.256 285.452 151.805 285.277C150.915 284.948 150.207 284.142 150.034 283.199C149.953 282.739 149.955 282.214 149.914 281.72L149.821 280.213C149.323 272.17 148.836 264.316 148.366 256.73C148.13 252.938 147.898 249.212 147.672 245.564C147.617 244.653 147.563 243.747 147.508 242.846C147.501 241.977 147.789 241.101 148.271 240.387C148.749 239.67 149.507 239.125 150.377 239.191C151.261 239.19 152.139 239.19 153.011 239.19C166.978 239.18 179.557 239.171 190.123 239.164C200.684 239.146 209.231 239.131 215.145 239.122C216.621 239.117 217.933 239.113 219.071 239.109C219.641 239.09 220.16 239.126 220.605 239.309C221.05 239.476 221.404 239.741 221.67 240.017C222.206 240.579 222.382 241.179 222.448 241.562C222.51 241.954 222.48 242.16 222.495 242.16Z" fill="#263238"/>
<path d="M180.653 261.935C180.653 264.036 182.357 265.739 184.458 265.739C186.558 265.739 188.261 264.036 188.261 261.935C188.261 259.834 186.558 258.131 184.458 258.131C182.357 258.13 180.653 259.833 180.653 261.935Z" fill="white"/>
<path d="M180.653 261.934C180.684 261.937 180.67 261.595 180.826 261.019C180.979 260.454 181.364 259.626 182.217 258.99C182.639 258.679 183.168 258.416 183.777 258.312C184.382 258.212 185.063 258.234 185.71 258.483C186.357 258.717 186.973 259.158 187.411 259.768C187.861 260.368 188.114 261.139 188.122 261.934C188.114 262.729 187.861 263.501 187.411 264.102C186.973 264.711 186.356 265.152 185.71 265.386C185.064 265.635 184.382 265.657 183.777 265.557C183.168 265.453 182.638 265.19 182.216 264.879C181.364 264.242 180.979 263.415 180.826 262.85C180.67 262.273 180.684 261.933 180.653 261.934C180.644 261.934 180.639 262.018 180.637 262.179C180.633 262.339 180.653 262.578 180.719 262.876C180.844 263.466 181.214 264.345 182.095 265.037C182.532 265.374 183.088 265.664 183.734 265.785C184.375 265.902 185.102 265.887 185.797 265.628C186.493 265.385 187.158 264.916 187.632 264.264C188.118 263.621 188.395 262.789 188.401 261.934C188.394 261.078 188.118 260.247 187.632 259.604C187.158 258.952 186.492 258.484 185.797 258.24C185.102 257.981 184.375 257.966 183.734 258.083C183.089 258.204 182.533 258.494 182.096 258.831C181.214 259.523 180.845 260.402 180.72 260.992C180.653 261.29 180.634 261.529 180.638 261.689C180.639 261.851 180.644 261.934 180.653 261.934Z" fill="#263238"/>
<path d="M220.319 246.647C220.242 246.645 219.924 253.458 219.609 261.863C219.293 270.271 219.101 277.088 219.178 277.091C219.255 277.094 219.574 270.282 219.889 261.874C220.204 253.469 220.397 246.65 220.319 246.647Z" fill="#263238"/>
<path d="M239.731 193.749C240.108 193.429 238.454 187.062 238.454 187.062C238.454 187.062 242.836 179.913 242.951 177.608C243.066 175.302 241.221 170.574 241.221 170.574L228.654 167.346C228.654 167.346 224.617 174.841 223.81 177.493C223.004 180.144 225.195 189.138 225.195 189.138L227.324 193.749C227.324 193.749 233.744 198.823 239.731 193.749Z" fill="#FFBE9D"/>
<path d="M242.926 178.987C242.926 178.987 243.472 178.042 244.25 176.196C245.046 174.309 246.023 172.459 244.25 171.403C243.208 170.783 242.357 171.104 242.357 171.104C242.357 171.104 242.629 169.516 241.68 168.92C240.731 168.324 239.816 168.758 239.816 168.758C239.816 168.758 240.116 166.518 238.75 165.567C237.036 164.376 235.269 165.468 235.269 165.468C235.269 165.468 236.351 155.661 236.444 155.141C236.789 153.234 236.083 151.547 234.186 152.018C233.491 152.19 233.104 152.923 232.289 156.116C231.473 159.31 230.163 164.761 230.163 164.761C230.163 164.761 227.956 168.596 226.914 170.676C225.872 172.756 223.81 177.492 223.639 178.747C223.195 181.991 225.095 186.286 225.095 186.286L238.454 187.062C238.454 187.062 242.418 179.917 242.926 178.987Z" fill="#FFBE9D"/>
<path d="M242.093 171.527C242.06 171.507 241.668 172.06 241.059 172.971C240.743 173.451 240.389 173.991 240.002 174.578C239.806 174.881 239.591 175.204 239.428 175.583C239.265 175.954 239.165 176.409 239.271 176.857C239.36 177.296 239.674 177.722 240.115 177.846C240.551 177.982 240.975 177.852 241.312 177.699C241.654 177.541 241.944 177.334 242.204 177.147C242.467 176.958 242.708 176.777 242.924 176.607C243.357 176.269 243.694 175.979 243.921 175.77C244.147 175.562 244.263 175.438 244.251 175.423C244.224 175.391 243.695 175.815 242.806 176.448C242.357 176.748 241.835 177.168 241.207 177.462C240.893 177.599 240.528 177.693 240.2 177.583C239.867 177.486 239.626 177.167 239.546 176.794C239.457 176.42 239.536 176.036 239.683 175.689C239.829 175.341 240.032 175.024 240.222 174.716C240.59 174.117 240.927 173.567 241.228 173.077C241.792 172.138 242.126 171.548 242.093 171.527Z" fill="#EB996E"/>
<path d="M231.137 172.692C231.209 172.696 231.276 171.735 230.997 170.593C230.724 169.448 230.227 168.625 230.164 168.661C230.09 168.697 230.461 169.551 230.725 170.659C230.995 171.764 231.055 172.693 231.137 172.692Z" fill="#EB996E"/>
<path d="M225.842 175.558C227.035 174.342 228.645 173.587 230.311 173.226C231.976 172.865 233.702 172.876 235.399 173.03C236.758 173.154 238.31 173.505 238.929 174.722C239.566 175.973 238.8 177.587 237.594 178.307C236.388 179.027 234.897 179.055 233.499 178.928C232.1 178.8 230.69 178.54 229.302 178.756" fill="#FFBE9D"/>
<path d="M229.301 178.756C229.305 178.781 229.678 178.721 230.355 178.728C231.034 178.729 232.006 178.853 233.218 179.001C233.825 179.068 234.498 179.124 235.224 179.085C235.945 179.044 236.736 178.909 237.475 178.52C238.217 178.137 238.853 177.446 239.147 176.576C239.299 176.144 239.338 175.658 239.242 175.185C239.131 174.716 238.875 174.273 238.505 173.95C237.76 173.292 236.804 173.08 235.937 172.953C235.056 172.846 234.211 172.803 233.399 172.8C231.777 172.794 230.312 173.034 229.151 173.443C227.987 173.847 227.134 174.388 226.603 174.819C226.335 175.033 226.143 175.218 226.018 175.348C225.895 175.48 225.835 175.553 225.842 175.559C225.86 175.578 226.12 175.303 226.669 174.906C227.213 174.507 228.065 174.003 229.215 173.632C230.361 173.255 231.798 173.039 233.397 173.059C234.195 173.069 235.042 173.119 235.899 173.226C236.742 173.351 237.652 173.567 238.316 174.159C238.648 174.447 238.87 174.838 238.969 175.246C239.053 175.661 239.023 176.095 238.886 176.489C238.62 177.286 238.037 177.934 237.353 178.292C236.664 178.664 235.91 178.803 235.209 178.854C234.504 178.901 233.842 178.858 233.238 178.803C232.031 178.682 231.041 178.586 230.355 178.619C230.012 178.631 229.748 178.665 229.569 178.692C229.392 178.725 229.3 178.747 229.301 178.756Z" fill="#EB996E"/>
<path d="M241.996 171.68C240.59 173.814 239.35 176.161 238.165 178.425C237.821 179.084 237.456 179.781 236.823 180.17C236.316 180.482 235.059 179.916 234.496 179.723L238.356 170.941" fill="#FFBE9D"/>
<path d="M238.355 170.942C238.339 170.935 238.218 171.167 238.012 171.596C237.791 172.072 237.504 172.689 237.158 173.436C236.443 175.001 235.463 177.19 234.368 179.668L234.308 179.805L234.451 179.856C234.867 180.004 235.315 180.193 235.797 180.314C235.988 180.36 236.182 180.397 236.388 180.402C236.49 180.403 236.595 180.4 236.704 180.368C236.814 180.344 236.922 180.275 236.995 180.224C237.32 179.999 237.569 179.699 237.772 179.393C238.169 178.77 238.448 178.145 238.763 177.565C239.369 176.397 239.925 175.351 240.407 174.481C240.888 173.611 241.293 172.916 241.575 172.437C241.857 171.957 242.014 171.692 241.996 171.68C241.981 171.671 241.794 171.916 241.482 172.379C241.171 172.842 240.738 173.523 240.234 174.384C239.728 175.243 239.154 176.282 238.534 177.445C238.216 178.019 237.921 178.657 237.543 179.24C237.35 179.529 237.121 179.798 236.836 179.995C236.594 180.193 236.218 180.12 235.865 180.04C235.408 179.926 234.975 179.745 234.541 179.592L234.623 179.78C235.709 177.298 236.659 175.096 237.328 173.511C237.643 172.75 237.905 172.122 238.106 171.638C238.282 171.195 238.371 170.949 238.355 170.942Z" fill="#EB996E"/>
<path d="M239.396 168.333C238.155 171.444 236.915 174.555 235.674 177.666C235.41 178.326 235.139 179.001 234.673 179.538C234.207 180.075 233.503 180.459 232.799 180.354C231.83 180.21 231.195 179.181 231.146 178.202C231.097 177.223 231.484 176.282 231.843 175.37C232.956 172.533 233.849 169.61 234.512 166.636" fill="#FFBE9D"/>
<path d="M234.512 166.635C234.503 166.633 234.471 166.73 234.419 166.919C234.361 167.137 234.287 167.411 234.198 167.744C234.006 168.46 233.726 169.495 233.332 170.759C232.94 172.024 232.432 173.517 231.791 175.146C231.481 175.957 231.078 176.82 231.012 177.816C230.976 178.307 231.062 178.835 231.293 179.298C231.52 179.76 231.893 180.19 232.412 180.394C232.931 180.602 233.519 180.513 233.975 180.268C234.44 180.028 234.808 179.647 235.074 179.233C235.602 178.392 235.859 177.503 236.2 176.697C236.836 175.072 237.41 173.604 237.898 172.357C238.361 171.146 238.741 170.153 239.02 169.423C239.138 169.098 239.235 168.832 239.313 168.62C239.377 168.435 239.405 168.336 239.396 168.333C239.388 168.329 239.341 168.421 239.26 168.599C239.169 168.807 239.056 169.067 238.919 169.383C238.619 170.105 238.211 171.087 237.714 172.284C237.21 173.524 236.617 174.985 235.96 176.602C235.614 177.405 235.341 178.304 234.844 179.083C234.594 179.469 234.261 179.807 233.847 180.021C233.439 180.238 232.946 180.307 232.514 180.135C232.081 179.966 231.748 179.593 231.544 179.177C231.335 178.756 231.256 178.294 231.287 177.834C231.343 176.909 231.725 176.06 232.033 175.242C232.664 173.601 233.153 172.094 233.522 170.818C233.893 169.542 234.144 168.496 234.305 167.771C234.383 167.408 234.441 167.126 234.475 166.933C234.508 166.739 234.522 166.637 234.512 166.635Z" fill="#EB996E"/>
<path d="M247.955 216.568C247.619 215.334 239.096 190.215 239.096 190.215L225.053 188.531L230.798 210.175C230.798 210.175 229.901 215.67 230.798 218.922C231.695 222.174 238.872 231.033 242.572 228.903C246.274 226.773 248.292 217.801 247.955 216.568Z" fill="#FFBE9D"/>
<path d="M230.798 186.31C230.801 186.341 231.116 186.345 231.6 186.205C232.082 186.066 232.724 185.752 233.295 185.23C233.865 184.705 234.233 184.094 234.413 183.625C234.596 183.155 234.618 182.841 234.587 182.835C234.506 182.801 234.211 184.03 233.106 185.023C232.021 186.037 230.771 186.226 230.798 186.31Z" fill="#EB996E"/>
</svg>
