<svg width="234" height="234" viewBox="0 0 234 234" fill="none" xmlns="http://www.w3.org/2000/svg">
<path d="M130.051 124.01H135.748C139.081 124.01 141.79 127.343 141.79 130.052V135.749C141.79 139.082 139.081 141.791 135.748 141.791H130.051C126.718 141.791 124.009 138.458 124.009 135.749V130.052C124.009 126.719 126.718 124.01 130.051 124.01Z" fill="#BA9503"/>
<path d="M130.051 159.309H135.748C139.081 159.309 141.79 162.642 141.79 165.351V171.048C141.79 174.381 139.081 177.09 135.748 177.09H130.051C126.718 177.09 124.009 173.758 124.009 171.048V165.351C124.009 162.018 126.718 159.309 130.051 159.309Z" fill="#BA9503"/>
<path d="M147.704 141.659H153.401C156.734 141.659 159.443 144.992 159.443 147.701V153.399C159.443 156.732 156.734 159.441 153.401 159.441H147.704C144.371 159.441 141.662 156.108 141.662 153.399V147.701C141.662 144.368 144.371 141.659 147.704 141.659Z" fill="#BA9503"/>
<path d="M172.596 166.567H178.293C181.626 166.567 184.335 169.9 184.335 172.609V178.306C184.335 181.639 181.626 184.348 178.293 184.348H172.596C169.263 184.348 166.554 181.015 166.554 178.306V172.609C166.554 169.276 169.263 166.567 172.596 166.567Z" fill="#BA9503"/>
<path d="M172.596 124.01H178.293C181.626 124.01 184.335 127.343 184.335 130.052V135.749C184.335 139.082 181.626 141.791 178.293 141.791H172.596C169.263 141.791 166.554 138.458 166.554 135.749V130.052C166.554 126.719 169.263 124.01 172.596 124.01Z" fill="#BA9503"/>
<path d="M109.989 52.9355C109.989 52.0489 109.628 51.1952 109.004 50.5877C108.364 49.9638 107.51 49.6354 106.623 49.6683H52.819C51.095 49.7668 49.7487 51.1952 49.7487 52.9355V106.74V106.724C49.7159 107.61 50.0607 108.464 50.6682 109.104C51.2757 109.728 52.1294 110.089 53.016 110.089H106.82H106.804C107.707 110.089 108.561 109.745 109.185 109.104C109.825 108.48 110.17 107.627 110.17 106.724L109.989 52.9355ZM88.7108 85.4443C88.7108 87.2504 87.2496 88.7116 85.4436 88.7116H74.2132C73.3266 88.728 72.4728 88.3996 71.8325 87.7921C71.2086 87.1682 70.8474 86.3309 70.8474 85.4443V74.2139C70.8474 72.3586 72.3579 70.8481 74.2132 70.8481H85.4435C86.3301 70.8481 87.1675 71.2094 87.7914 71.8333C88.3988 72.4736 88.7272 73.3274 88.7108 74.214L88.7108 85.4443Z" fill="#BA9503"/>
<path d="M109.99 181.064V127.26V127.276C109.99 126.373 109.629 125.52 109.005 124.896C108.381 124.255 107.527 123.911 106.624 123.911H52.8195C51.9493 123.911 51.0956 124.272 50.4881 124.896C49.8642 125.536 49.5358 126.39 49.5687 127.276V181.081V181.064C49.5687 182.871 51.0299 184.332 52.8195 184.332H106.624C107.511 184.365 108.364 184.036 109.005 183.412C109.629 182.805 109.99 181.951 109.99 181.064ZM88.7114 159.786C88.7278 160.673 88.3994 161.526 87.7919 162.167C87.168 162.791 86.3307 163.152 85.4441 163.152H74.2137C72.3584 163.152 70.8479 161.641 70.8479 159.786V148.556C70.8479 147.669 71.2091 146.832 71.8331 146.208C72.4734 145.6 73.3272 145.272 74.2138 145.288H85.4441C87.2502 145.288 88.7114 146.75 88.7114 148.556L88.7114 159.786Z" fill="#BA9503"/>
<path d="M184.335 52.9364C184.286 51.1632 182.841 49.7512 181.068 49.7512H127.263H127.28C126.393 49.7183 125.54 50.0631 124.899 50.6706C124.275 51.2781 123.914 52.1319 123.914 53.0184V106.823V106.806C123.914 107.709 124.259 108.563 124.899 109.187C125.523 109.827 126.377 110.172 127.28 110.172H181.084H181.068C181.954 110.172 182.808 109.827 183.416 109.187C184.04 108.547 184.368 107.693 184.335 106.806V52.9364ZM163.073 85.4451C163.073 86.3317 162.712 87.1691 162.072 87.793C161.448 88.4004 160.594 88.7288 159.707 88.7124H148.477C146.671 88.7124 145.21 87.2511 145.21 85.4451V74.2148C145.193 73.3281 145.522 72.4744 146.129 71.8341C146.753 71.2101 147.59 70.8489 148.477 70.8489H159.707C160.594 70.8489 161.448 71.2101 162.088 71.8341C162.712 72.4744 163.073 73.3281 163.073 74.2148L163.073 85.4451Z" fill="#BA9503"/>
<path d="M7.57026 76.4136C11.7406 76.4136 15.1393 73.0314 15.1393 68.8446V22.6941C15.1393 18.5238 18.5215 15.1415 22.6919 15.1415H64.5262C68.7129 15.1415 72.0952 11.7428 72.0952 7.57244C72.0952 3.38573 68.713 0.00341797 64.5262 0.00341797H13.7943C6.17608 0.00341797 0.00292969 6.17699 0.00292969 13.7948V68.8475C0.0193514 73.0342 3.39987 76.4136 7.57026 76.4136Z" fill="#BA9503"/>
<path d="M0.00151519 220.208C0.00151519 223.869 1.44635 227.383 4.04049 229.961C6.61819 232.555 10.1317 234 13.793 234H64.5249C68.7117 234 72.094 230.617 72.094 226.431C72.094 222.26 68.7117 218.862 64.5249 218.862H22.6907C18.5203 218.862 15.138 215.479 15.138 211.309V164.221C15.138 160.051 11.7394 156.668 7.56902 156.668C3.38231 156.668 0 160.051 0 164.221L0.00151519 220.208Z" fill="#BA9503"/>
<path d="M233.998 13.7915C233.998 10.1302 232.554 6.61676 229.959 4.03897C227.382 1.44484 223.868 0 220.207 0H159.871C155.7 0 152.302 3.38223 152.302 7.56902C152.302 11.7393 155.7 15.138 159.871 15.138H211.309C215.479 15.138 218.861 18.5203 218.861 22.6907V68.8411C218.861 73.0279 222.26 76.4102 226.43 76.4102C230.617 76.4102 233.999 73.0279 233.999 68.8411L233.998 13.7915Z" fill="#BA9503"/>
<path d="M159.868 233.999H220.204C223.865 233.999 227.379 232.554 229.957 229.96C232.551 227.382 233.996 223.869 233.996 220.207V164.188C233.996 160.018 230.613 156.635 226.427 156.635C222.256 156.635 218.858 160.017 218.858 164.188V211.276C218.858 215.446 215.475 218.828 211.305 218.828H159.867C155.697 218.828 152.298 222.227 152.298 226.397C152.298 230.584 155.696 233.966 159.867 233.966L159.868 233.999Z" fill="#BA9503"/>
</svg>
