<svg width="296" height="265" viewBox="0 0 296 265" fill="none" xmlns="http://www.w3.org/2000/svg">
<path opacity="0.08" d="M90.4725 220.903C77.04 221.117 63.6089 221.434 50.1799 221.881C34.4009 222.407 21.7807 224.083 11.6277 236.897C9.3745 239.74 7.92438 243.427 8.55232 247.001C9.52848 252.551 14.9779 256.089 20.178 258.261C29.4982 262.154 38.4313 262.91 48.3385 263.096C102.844 264.12 157.363 264.3 211.878 264.095C226.645 264.039 268.006 268.828 273.223 249.628C278.999 228.366 247.125 223.8 234.073 221.593C219.346 219.102 202.93 220.915 188.006 220.775C155.496 220.471 122.981 220.384 90.4725 220.903Z" fill="black"/>
<path d="M62.0939 212.925C68.7597 216.03 75.7087 218.427 82.4549 220.171C127.644 231.848 180.714 221.957 219.31 195.987C242.839 180.155 270.909 158.007 273.725 127.981C276.463 98.7847 266.348 68.3717 245.91 47.2139C232.408 33.2361 221.379 14.0243 203.237 5.52274C175.367 -7.53824 147.628 5.4401 121.046 14.9001C102.283 21.5779 83.2291 28.4061 67.1188 40.1152C37.4764 61.66 17.8034 101.267 18.9936 137.8C19.4442 151.637 21.013 165.661 26.3205 178.447C33.2186 195.066 46.1496 205.498 62.0939 212.925Z" fill="#D4AA04"/>
<path d="M123.79 90.8871C123.08 89.865 122.209 89.0117 121.62 87.8964C120.816 86.3756 122.743 86.168 123.718 85.35C124.263 84.893 124.752 84.3696 125.169 83.7939C125.364 83.5241 125.884 82.1997 126.117 82.1086C123.325 83.202 119.978 82.7302 117.598 80.9071C120.308 80.1754 122.746 78.4787 124.374 76.1923C122.742 76.0913 121.134 75.6449 119.672 74.9145C119.098 74.6277 118.423 74.3184 117.906 73.9405C117.515 73.6544 116.874 72.6373 116.342 72.6401C118.554 72.6288 120.754 71.8116 122.436 70.3756C120.566 69.8896 118.833 68.8993 117.446 67.5572C116.302 66.4511 114.304 64.2657 117.145 64.4656C118.375 64.5518 119.622 64.3985 120.792 64.01C117.973 62.5917 115.339 60.8046 112.98 58.7068C114.524 58.6121 116.047 58.201 117.43 57.5067C114.238 56.3031 111.301 54.4292 108.864 52.0424C110.409 52.0368 111.954 51.779 113.418 51.281C111.34 50.1692 109.449 48.717 107.827 47.0097C106.632 45.751 105.802 44.2416 104.803 42.8367C104.143 41.9078 104.157 41.8605 103.65 42.7505C103.287 43.389 103.08 44.1166 102.697 44.7572C101.141 47.3551 98.5751 49.3604 95.6375 50.1346C97.0593 51.2301 98.9975 51.6229 100.734 51.1673C99.391 53.056 97.4415 54.5061 95.2461 55.2492C94.0616 55.6504 92.7789 55.8652 91.7618 56.5934C91.6283 56.6895 93.9048 57.6367 94.1195 57.6826C95.0964 57.8909 95.8995 57.8217 96.8877 57.535C95.1275 60.479 91.9878 62.5571 88.5903 63.0275C90.0927 64.1725 92.1192 64.5977 93.9557 64.1548C92.401 67.2288 88.8424 68.6203 85.589 69.7533C87.1063 70.9731 89.1539 71.5071 91.0738 71.185C89.3192 73.8402 85.8617 74.6616 82.7375 75.2691C84.9123 76.6006 87.6869 76.9057 90.0983 76.0786C89.3588 77.8374 87.855 79.1879 86.1809 80.1033C84.5069 81.0187 82.6528 81.5457 80.817 82.0662C81.0543 81.9991 82.6068 83.0459 82.9537 83.1745C83.8458 83.5044 84.7859 83.7057 85.7352 83.7742C87.3273 83.8886 88.6397 83.2423 90.1082 82.6963C90.3611 82.697 90.3109 83.0975 90.1654 83.3037C89.1455 84.7454 87.6742 85.7611 86.5313 87.0982C85.0939 88.78 83.6649 90.4689 82.229 92.1521C79.5929 95.2424 76.9512 98.3425 74.1074 101.246C76.723 104.368 79.631 105.016 80.8304 109.983C81.351 112.139 81.7402 114.784 82.1901 117.381H118.587C118.038 115.848 117.488 114.316 116.938 112.784C120.321 112.128 123.703 111.472 127.085 110.816C128.589 110.524 130.089 110.273 131.571 109.711C132.201 109.472 132.841 109.424 133.474 109.181C133.738 109.08 135.372 107.586 135.48 107.745C131.607 102.045 127.689 96.5011 123.79 90.8871Z" fill="#D6CB9F"/>
<path d="M107.489 100.317C110.754 99.9777 114.253 99.84 117.432 99.0326C113.119 96.7271 108.457 94.7741 105.762 90.423C107.812 90.8871 110.097 90.0614 111.377 88.3944C105.489 87.3871 99.9283 84.5406 95.6684 80.3527C98.3355 80.0249 100.927 79.0954 103.194 77.6523C99.7087 76.9453 95.1754 75.76 92.2928 73.5061C94.7 72.6966 97.0867 71.8293 99.4473 70.8905C99.8704 70.7224 100.147 70.2852 100.192 69.855C100.182 69.9532 95.5299 68.5787 95.1181 68.4218C94.4054 68.1506 90.8137 66.9731 90.9267 66.0994C92.1063 66.3014 93.3572 66.1234 94.5411 66.0309C95.7807 65.9334 97.0203 65.8027 98.2345 65.5294C98.7932 65.4036 99.015 64.9749 98.9854 64.5355C97.3466 63.9924 95.7362 63.3538 94.202 62.5592C93.425 62.1573 92.6685 61.7158 91.9403 61.232C91.7298 61.0921 90.2465 60.2692 90.7148 59.9394C90.8052 59.8758 90.9239 59.8758 91.0341 59.8779C93.033 59.9217 95.0729 59.6929 96.9801 59.0607C97.0571 59.0353 97.1249 58.9957 97.192 58.954C96.3719 58.591 95.5624 58.1905 94.772 57.7186C93.3078 56.8442 91.8584 55.9365 90.5078 54.8918C89.8128 54.3543 89.1425 53.7808 88.5266 53.1528C88.2193 52.8399 87.9099 52.5157 87.6443 52.1654C87.5348 52.0213 86.9987 51.5148 86.9818 51.3912C86.9662 51.2775 87.1153 51.2224 87.2297 51.2132C87.6352 51.18 88.0477 51.2026 88.4439 51.1115C88.665 51.0606 89.6355 50.5902 89.6292 50.2985C89.6235 50.0315 88.682 49.6367 88.4446 49.482C87.4536 48.8357 86.529 48.0898 85.6645 47.2824C83.9586 45.6896 82.4838 43.863 81.134 41.9644C79.7891 40.0728 78.6413 38.0548 77.7908 35.8919C77.7096 35.685 77.6397 35.4752 77.5691 35.2654C77.5048 35.2541 77.4398 35.2492 77.3755 35.2463C75.6436 38.5548 73.2406 41.537 70.7281 44.255C68.8528 46.2844 66.9118 48.212 64.708 49.8888C63.7346 50.6291 62.7302 51.382 61.6679 51.9909C61.0668 52.3356 60.3957 52.6005 59.7735 52.9339C59.4153 53.5893 59.6534 54.5274 60.6267 54.4907C61.4454 54.4596 62.2584 54.473 63.0629 54.4864C61.3196 55.7458 59.4676 56.8569 57.5937 57.9545C56.8238 58.4052 56.9516 59.671 57.8466 59.8913C59.3059 60.2509 60.8909 60.5758 62.4957 60.7439C61.9462 61.0766 61.3762 61.3951 60.792 61.7229C58.697 62.9004 56.5857 64.0475 54.4639 65.1748C53.7759 65.54 53.7717 66.6404 54.4639 67.0042C56.0807 67.8554 57.7696 68.3731 59.4782 68.5723C55.8836 71.0056 51.784 72.691 47.5113 73.4602C48.1576 73.3436 49.8811 74.3403 50.6892 74.4265C52.188 74.5868 53.3563 74.1249 54.7846 73.9045C56.3293 73.6664 59.2938 73.3119 60.7913 73.9949C51.7656 78.8482 39.471 87.4154 30.3154 92.4297C34.225 94.9344 38.5726 95.4543 40.366 99.4381C41.1444 101.167 41.7257 103.289 42.3988 105.372H96.8084C95.9869 104.143 95.1655 102.915 94.3433 101.686C94.9119 102.538 106.036 100.469 107.489 100.317Z" fill="#A08B3D"/>
<path d="M283.47 162.076C279.332 157.977 277.878 154.354 283.97 145.251C289.893 136.4 285.61 121.972 273.456 120.752C268.938 120.298 263.738 118.102 264.897 112.45C265.581 109.113 268.159 106.541 270.593 104.156C273.028 101.772 275.563 99.1308 276.113 95.7686C276.986 90.435 272.98 88.2905 270.827 84.2954C268.739 80.4205 269.209 75.9691 270.288 71.8469C271.536 67.0833 273.299 62.0167 271.624 57.3873C269.615 51.8383 262.969 47.9527 263.481 42.0731C263.683 39.7436 265.062 37.5779 264.934 35.2435C264.188 21.6654 247.924 18.8274 246.567 33.5433C246.125 38.3344 247.391 43.0923 248.233 47.8298C249.075 52.5672 249.455 57.6564 247.388 62.0018C244.879 67.2775 239.343 70.3424 235.54 74.7768C231.675 79.2847 229.667 85.2766 229.738 91.2141C229.82 98.0006 232.476 104.77 231.195 111.435C229.866 118.35 224.549 123.774 219.013 128.126C213.477 132.477 207.353 136.328 203.21 142.021C198.669 148.26 197.628 155.463 198.367 162.957C198.9 168.37 205.857 176.649 202.383 181.347C201.734 182.226 200.843 182.892 200.074 183.67C197.104 186.674 196.127 191.263 196.801 195.434C199.829 214.174 226.361 217.326 241.135 221.299C253.154 224.531 268.008 221.541 278.237 214.451C285.012 209.755 290.784 198.959 293.886 191.547C296.694 184.837 297.129 176.428 292.441 170.866C289.18 166.997 285.873 164.456 283.47 162.076Z" fill="#7F6606"/>
<path d="M65.1874 209.732C69.9587 203.659 74.1431 195.533 70.9278 188.512C68.9402 184.171 64.3405 180.955 63.9506 176.197C63.5769 171.634 67.2633 167.807 68.5044 163.4C69.5914 159.535 68.6421 155.159 66.0513 152.093C62.16 147.487 60.9585 145.858 61.2926 139.915C61.6585 133.409 61.7927 127.741 64.2409 121.531C71.7613 102.452 70.0647 81.1172 59.3904 63.6104C56.3002 58.5431 52.0869 53.6814 51.7881 47.7538C51.5748 43.5199 53.4459 39.3808 53.1887 35.1498C53.0884 33.5005 52.5855 31.753 51.283 30.7358C49.5101 29.3521 46.9298 29.7893 44.8574 30.6624C37.5722 33.7307 33.5637 41.0082 31.9886 48.4495C31.1593 52.3669 31.0696 56.4206 30.1132 60.309C28.1948 68.1077 21.9733 69.7175 17.2006 75.2912C11.1119 82.4006 9.66744 93.1504 13.6625 101.615C14.9445 104.331 16.7803 107.051 16.4702 110.038C16.098 113.627 12.8269 116.087 10.7693 119.05C8.07322 122.931 7.44175 128.165 9.13768 132.576C12.5253 141.389 11.8345 142.529 5.76136 149.002C1.20828 153.856 -0.633866 158.843 1.53249 165.568C3.26727 170.953 6.82935 175.519 9.78116 180.346C14.6076 188.238 16.9173 196.421 19.244 205.251C20.9195 211.609 24.2238 218.633 30.9072 221.02C36.204 222.912 45.248 223.738 50.8741 222.458C56.9359 221.078 61.5978 214.3 65.1874 209.732Z" fill="#7F6607"/>
<path d="M45.8004 209.452C48.1476 207.397 50.4016 205.122 51.7316 202.301C53.0616 199.479 53.3364 196.003 51.7711 193.305C49.3625 189.153 43.2625 188.31 39.0471 190.604C41.3858 186.936 42.915 182.755 43.4942 178.443C43.8467 175.823 43.3565 172.434 40.8158 171.706C38.3153 170.989 36.1475 173.474 34.7271 175.653C36.2288 170.158 34.3315 163.879 30.0377 160.135C28.8955 159.139 27.5309 158.29 26.0186 158.191C23.9391 158.055 21.972 159.409 20.8729 161.179C19.7731 162.949 19.4044 165.074 19.2398 167.152C18.4784 176.763 21.6032 186.209 24.6864 195.344C21.6153 191.71 17.1123 189.319 12.3805 188.812C11.2567 188.691 10.0086 188.709 9.14336 189.437C7.6226 190.715 8.24983 193.176 9.19068 194.926C10.9777 198.248 13.4535 201.198 16.4166 203.533C12.3918 200.96 7.13805 200.418 2.67326 202.115C1.90475 202.408 1.13202 202.782 0.617798 203.424C-0.607707 204.954 0.153731 207.302 1.4753 208.749C2.94237 210.357 4.94697 211.35 6.90142 212.306C12.1806 214.889 22.3626 222.084 27.4906 221.114C33.6845 219.941 41.188 213.49 45.8004 209.452Z" fill="#A08B3D"/>
<path d="M267.851 216.714C269.876 214.941 271.822 212.979 272.969 210.544C274.116 208.11 274.353 205.11 273.003 202.782C270.924 199.199 265.661 198.472 262.023 200.451C264.041 197.286 265.361 193.678 265.861 189.958C266.164 187.698 265.742 184.773 263.55 184.145C261.392 183.526 259.521 185.67 258.296 187.551C259.592 182.809 257.955 177.391 254.249 174.161C253.264 173.302 252.086 172.569 250.781 172.483C248.987 172.365 247.29 173.534 246.341 175.062C245.392 176.589 245.074 178.422 244.932 180.215C244.275 188.508 246.971 196.658 249.631 204.541C246.981 201.405 243.095 199.342 239.013 198.904C238.043 198.8 236.967 198.816 236.22 199.443C234.907 200.547 235.449 202.67 236.261 204.179C237.802 207.047 239.939 209.591 242.496 211.606C239.023 209.386 234.489 208.918 230.637 210.383C229.974 210.635 229.307 210.958 228.863 211.512C227.806 212.832 228.463 214.858 229.603 216.107C230.868 217.494 232.598 218.35 234.285 219.176C238.84 221.404 247.626 227.614 252.05 226.776C257.397 225.765 263.871 220.198 267.851 216.714Z" fill="#D6CB9F"/>
<path d="M49.8733 189.96C52.2056 189.35 54.3338 188.376 56.3278 187.023C57.453 186.259 58.509 188.084 57.3916 188.842C55.2606 190.288 52.924 191.34 50.4334 191.992C49.1203 192.336 48.5602 190.304 49.8733 189.96Z" fill="#2F8E91"/>
<path d="M51.0956 162.544C52.8163 161.819 54.5376 161.094 56.2583 160.369C57.5064 159.843 58.0517 161.882 56.8184 162.401C55.0978 163.126 53.3764 163.851 51.6558 164.576C50.4076 165.102 49.8623 163.063 51.0956 162.544Z" fill="#2F8E91"/>
<path d="M50.2569 117.908C52.3879 116.988 54.0125 115.435 55.0084 113.337C55.5897 112.112 57.4079 113.181 56.828 114.401C55.6999 116.777 53.7363 118.685 51.3199 119.728C50.088 120.26 49.013 118.444 50.2569 117.908Z" fill="#2F8E91"/>
<path d="M245.743 230.835H38.4709C33.9411 230.835 30.2695 227.163 30.2695 222.634V83.6547C30.2695 79.1249 33.9418 75.4534 38.4709 75.4534H245.743C250.273 75.4534 253.944 79.1257 253.944 83.6547V222.634C253.944 227.164 250.273 230.835 245.743 230.835Z" fill="#19034D"/>
<path d="M250.421 84.97H33.0117V222.809H250.421V84.97Z" fill="#E6EBF4"/>
<path d="M91.9843 140.563H36.8486V184.421H91.9843V140.563Z" fill="#ACB9E8"/>
<path d="M192.229 140.563H155.264V195.699H192.229V140.563Z" fill="#ACB9E8"/>
<path d="M150.315 90.5388H96.6377V135.038H150.315V90.5388Z" fill="#ACB9E8"/>
<path d="M152.132 141.976H96.9961V145.534H152.132V141.976Z" fill="#ACB9E8"/>
<path d="M152.132 158.353H96.9961V161.911H152.132V158.353Z" fill="#ACB9E8"/>
<path d="M152.132 170.212H96.9961V173.77H152.132V170.212Z" fill="#ACB9E8"/>
<path d="M247.366 140.563H196.616V144.566H247.366V140.563Z" fill="#ACB9E8"/>
<path d="M247.366 150.496H196.616V154.499H247.366V150.496Z" fill="#ACB9E8"/>
<path d="M247.366 160.429H196.616V164.432H247.366V160.429Z" fill="#ACB9E8"/>
<path d="M247.366 170.362H196.616V174.365H247.366V170.362Z" fill="#ACB9E8"/>
<path d="M247.366 180.294H196.616V184.297H247.366V180.294Z" fill="#ACB9E8"/>
<path d="M247.366 190.227H196.616V194.23H247.366V190.227Z" fill="#ACB9E8"/>
<path d="M247.084 91.1194H153.529V95.1222H247.084V91.1194Z" fill="#ACB9E8"/>
<path d="M247.084 101.224H153.529V105.226H247.084V101.224Z" fill="#ACB9E8"/>
<path d="M247.084 111.329H153.529V115.331H247.084V111.329Z" fill="#ACB9E8"/>
<path d="M247.084 121.433H153.529V125.436H247.084V121.433Z" fill="#ACB9E8"/>
<path d="M247.084 131.538H153.529V135.541H247.084V131.538Z" fill="#ACB9E8"/>
<path d="M93.1007 91.1194H36.9824V95.1222H93.1007V91.1194Z" fill="#ACB9E8"/>
<path d="M93.1007 101.224H36.9824V105.226H93.1007V101.224Z" fill="#ACB9E8"/>
<path d="M93.1007 111.329H36.9824V115.331H93.1007V111.329Z" fill="#ACB9E8"/>
<path d="M93.1007 121.433H36.9824V125.436H93.1007V121.433Z" fill="#ACB9E8"/>
<path d="M93.1007 131.538H36.9824V135.541H93.1007V131.538Z" fill="#ACB9E8"/>
<path d="M91.9843 186.928H36.8486V190.486H91.9843V186.928Z" fill="#ACB9E8"/>
<path d="M91.9843 196.81H36.8486V200.368H91.9843V196.81Z" fill="#ACB9E8"/>
<path d="M91.9843 206.693H36.8486V210.251H91.9843V206.693Z" fill="#ACB9E8"/>
<path d="M91.9843 216.577H36.8486V220.134H91.9843V216.577Z" fill="#ACB9E8"/>
<path d="M152.132 176.903H96.9961V179.531H152.132V176.903Z" fill="#ACB9E8"/>
<path d="M152.132 185.664H96.9961V188.292H152.132V185.664Z" fill="#ACB9E8"/>
<path d="M152.132 194.425H96.9961V197.053H152.132V194.425Z" fill="#ACB9E8"/>
<path d="M247.366 200.386H196.616V203.936H247.366V200.386Z" fill="#ACB9E8"/>
<path d="M247.366 210.319H196.616V213.868H247.366V210.319Z" fill="#ACB9E8"/>
<path d="M152.132 203.598H96.9961V206.226H152.132V203.598Z" fill="#ACB9E8"/>
<path d="M152.132 212.359H96.9961V214.987H152.132V212.359Z" fill="#ACB9E8"/>
<path d="M191.99 203.598H156.329V206.226H191.99V203.598Z" fill="#ACB9E8"/>
<path d="M191.99 212.359H156.329V214.987H191.99V212.359Z" fill="#ACB9E8"/>
<path d="M194.367 252.467C194.403 253.037 194.319 253.793 193.7 254.059C193.491 254.149 193.267 254.154 193.052 254.158C192.594 254.167 192.137 254.175 191.678 254.183C191.365 254.189 191.046 254.194 190.761 254.115C190.532 254.051 190.333 253.934 190.113 253.851C188.986 253.423 187.558 253.91 186.243 254.07C184.435 254.29 182.105 253.788 180.902 252.72C179.609 251.574 181.274 249.974 182.925 249.95C184.463 249.928 185.931 250.412 187.483 250.038C187.915 249.934 188.371 249.741 188.636 249.391C188.955 248.972 188.904 248.464 188.839 248.013C188.74 247.33 188.641 246.649 188.541 245.966C188.493 245.635 188.307 245.354 188.144 245.077C189.243 245.244 190.531 245.072 191.709 245.001C192.721 244.939 193.705 244.557 193.924 245.546C194.401 247.691 194.224 250.228 194.367 252.467Z" fill="#19034D"/>
<path d="M250.699 249.879C250.907 249.934 251.134 250.004 251.247 250.186C251.372 250.386 251.314 250.646 251.25 250.874C250.716 252.764 250.043 254.615 249.238 256.406C248.754 257.482 248.185 258.581 247.22 259.258C246.496 259.766 245.61 259.989 244.735 260.116C243.764 260.258 242.717 260.279 241.863 259.794C241.01 259.31 240.466 258.17 240.929 257.305C241.356 256.508 242.265 256.398 243.076 256.428C243.527 256.445 243.848 256.711 244.182 256.396C244.401 256.19 244.471 255.512 244.538 255.228C244.642 254.782 244.702 254.273 244.438 253.863C244.145 253.405 243.548 253.263 243.008 253.203C242.663 253.163 242.273 253.118 242.064 252.84C241.892 252.61 241.905 252.294 241.933 252.008C241.965 251.687 242.006 251.368 242.056 251.05C242.146 250.478 242.208 249.118 242.636 248.699C242.826 248.512 243.177 248.529 243.42 248.526C244.294 248.515 245.188 248.697 246.044 248.852C247.605 249.134 249.165 249.473 250.699 249.879Z" fill="#19034D"/>
<path d="M229.493 218.653C228.801 217.213 226.511 216.358 225.103 215.864C220.041 214.088 214.654 213.4 209.333 212.801C207.059 212.544 204.781 212.307 202.494 212.197C200.481 212.1 198.425 211.919 196.417 211.976C195.544 212.001 194.672 212.026 193.798 212.051C193.168 212.07 192.531 212.088 191.92 212.245C190.978 212.488 190.243 212.555 189.531 213.314C187.893 215.059 186.943 217.364 186.478 219.712C186.421 220.003 186.37 220.295 186.325 220.587C186.313 225.11 186.342 229.628 186.712 234.153C187.061 238.427 187.507 242.692 187.956 246.957C189.789 247.007 191.622 247.057 193.454 247.121C194.06 247.115 194.666 247.111 195.272 247.108C197.436 240.243 197.808 232.894 198.037 225.669C204.339 227.122 211.029 228.284 217.507 228.825C222.275 229.222 228.152 228.921 229.6 223.311C229.784 222.6 229.859 221.864 229.883 221.13C229.909 220.286 229.859 219.413 229.493 218.653Z" fill="#0C7B7D"/>
<path d="M194.271 177.209C193.472 178.223 193.136 179.588 193.374 180.857C193.496 181.51 193.76 182.128 194.066 182.716C194.725 183.984 195.783 185.255 197.209 185.337C197.993 185.383 198.779 185.054 199.552 185.191C200.298 185.324 200.898 185.866 201.431 186.405C202.598 187.584 203.665 188.861 204.619 190.217C206.161 189.662 207.784 189.05 208.804 187.768C206.348 184.072 203.605 180.568 200.607 177.297C198.739 175.259 196.149 174.827 194.271 177.209Z" fill="#FF735F"/>
<path d="M207.09 188.447C206.215 187.39 204.717 186.852 203.394 187.217C201.14 187.841 200.042 191.463 199.272 193.393C198.387 195.612 197.419 197.825 195.998 199.744C193.065 203.703 188.191 206.133 183.269 206.14C183.775 208.153 183.957 210.224 184.117 212.299C185.139 212.115 186.529 212.458 187.437 212.593C192.943 213.413 198.415 210.273 201.957 206.238C204.1 203.796 207.353 199.007 208.222 194.63C208.681 192.319 208.476 190.122 207.09 188.447Z" fill="#D4A100"/>
<path d="M207.308 204.838C209.672 208.678 212.532 212.266 215.485 215.536C215.953 214.725 216.489 214.823 217.316 214.691C218.473 214.505 219.592 214.04 220.708 213.695C224.258 212.598 231.135 210.387 231.529 210.19C231.731 210.09 223.395 199.031 222.58 198.068C220.592 195.718 218.521 193.433 216.306 191.294C215.173 190.2 214.003 189.144 212.794 188.136C211.691 187.216 210.733 186.316 209.417 185.699C209.14 185.569 208.859 185.438 208.557 185.388C208.243 185.336 207.921 185.375 207.605 185.414C207.066 185.482 206.525 185.555 206.009 185.724C204.565 186.199 203.438 187.42 202.856 188.824C202.274 190.229 202.192 191.801 202.375 193.31C202.618 195.31 203.453 197.234 204.264 199.08C205.138 201.069 206.169 202.988 207.308 204.838Z" fill="#F5BA00"/>
<path d="M215.048 217.3C215.045 217.258 215.056 217.077 214.974 217.056C214.892 217.035 214.789 217.128 214.73 217.182C214.815 217.21 214.962 217.379 215.002 217.41C215.043 217.441 215.017 217.376 215.029 217.363C215.041 217.351 215.05 217.343 215.048 217.3Z" fill="url(#paint0_linear_322_1578)"/>
<path d="M244.613 247.243C237.86 245.024 231.203 242.621 224.313 240.846C224.72 240.95 227.623 235.101 227.944 234.48C230.498 229.54 233.417 224.357 233.548 218.603C233.585 216.96 233.287 215.322 232.836 213.741C232.26 211.72 231.365 209.708 230.28 207.867C229.842 207.124 229.363 206.405 228.867 205.7C224.117 209.061 218.527 211.023 213.158 213.246C213.254 213.416 213.354 213.583 213.444 213.757C213.912 214.662 214.565 215.769 214.796 216.758C215.126 218.172 214.957 219.841 214.749 221.26C214.397 223.659 213.683 225.951 213.025 228.327C212.034 231.907 211.333 235.275 210.607 239.074C209.997 242.266 208.417 247.282 211.25 249.736C214.366 252.436 218.398 252.37 221.928 252.785C227.173 253.401 231.47 253.946 236.573 254.872C238.431 255.209 240.629 255.461 242.638 255.688C243.344 252.886 243.985 250.065 244.613 247.243Z" fill="#0C7B7D"/>
<path d="M194.175 223.831L148.936 185.402" stroke="#19034D" stroke-width="5" stroke-miterlimit="10"/>
<path d="M183.572 207.271C183.326 207.304 183.08 207.339 182.836 207.383C182.418 207.458 181.987 207.548 181.567 207.547C181.335 207.546 181.106 207.517 180.884 207.441C179.708 207.042 178.905 206.821 178.037 207.943C177.501 208.636 177.134 209.677 177.312 210.556C177.433 211.158 177.776 211.719 178.276 212.079C179.136 212.699 180.434 212.672 181.508 212.382C181.791 212.306 182.059 212.211 182.299 212.105C182.921 211.831 183.516 211.499 183.866 210.9C184.065 210.56 184.168 210.215 184.332 209.907C184.048 209.038 183.824 208.151 183.572 207.271Z" fill="#DB6352"/>
<path d="M185.701 211.496C185.572 210.639 184.337 209.832 183.339 209.781C182.387 209.732 181.449 210.001 180.499 210.079C179.549 210.157 178.491 209.997 177.863 209.28C177.252 208.582 177.215 207.566 176.875 206.702C176.583 205.958 176.046 205.312 175.368 204.887C175.143 205.012 175.075 205.316 175.13 205.568C175.183 205.819 175.329 206.04 175.439 206.273C176.186 207.85 175.592 209.689 173.752 208.302C172.593 207.428 171.352 206.664 170.051 206.022C169.904 205.949 169.729 205.878 169.584 205.953C169.423 206.037 169.391 206.254 169.411 206.435C169.47 206.975 169.802 207.441 169.991 207.95C170.19 208.485 170.231 209.063 170.352 209.621C170.642 210.949 171.453 211.944 172.756 212.351C174.293 212.832 175.896 213.103 177.507 213.153C180.107 213.234 182.659 214.206 185.066 212.63C185.59 212.286 185.76 211.887 185.701 211.496Z" fill="#FF735F"/>
<path d="M210.81 192.389C210.626 191.626 210.202 190.924 209.738 190.25C209.109 189.336 208.248 188.505 207.162 188.107C206.076 187.708 204.842 187.811 203.976 188.569C203.299 189.161 203.123 190.051 202.894 190.828C201.996 193.882 200.921 196.838 199.495 199.631C198.922 200.752 198.588 201.678 197.691 202.561C196.602 203.631 195.346 204.459 193.961 205.154C192.972 205.65 192.026 206.07 190.932 206.397C187.493 207.429 183.956 207.899 180.382 208.156C180.398 210.166 180.404 212.176 180.343 214.185C186.289 214.27 191.846 215.236 197.375 212.622C201.922 210.474 205.366 207.359 208.325 203.22C210.597 200.038 211.76 196.317 210.81 192.389Z" fill="#F5BA00"/>
<path d="M221.115 183.464C220.755 181.944 219.548 180.608 218.023 180.271C217.749 180.211 217.474 180.182 217.199 180.178C215.866 180.156 214.527 180.71 213.202 181.031C212.528 181.195 211.715 181.26 211.241 180.752C210.828 180.311 210.839 179.588 210.423 179.149C209.945 178.643 209.124 178.721 208.456 178.919C207.934 179.073 207.428 179.278 206.944 179.527C206.485 179.764 205.68 180.077 205.229 179.652C204.859 179.304 204.977 178.701 205.111 178.21C205.354 177.322 205.018 176.343 204.201 175.88C203.73 175.614 203.197 175.615 202.714 175.388C202.16 175.128 201.704 174.687 201.276 174.26C200.616 173.599 199.864 172.888 198.93 172.859C197.815 172.824 196.95 173.758 196.115 174.498C195.163 175.342 194.06 176.014 192.874 176.473C192.135 176.758 191.26 177.063 191.022 177.819C190.908 178.182 190.988 178.606 191.247 178.885C191.505 179.164 191.94 179.273 192.291 179.126C192.772 178.925 193.164 178.33 193.759 178.645C194.175 178.865 194.351 179.558 194.622 179.924C195.068 180.523 195.58 181.08 196.132 181.582C197.604 182.916 199.837 183.414 201.727 182.725C202.23 182.542 202.704 182.276 203.223 182.139C203.965 181.943 204.588 181.989 204.956 182.684C205.316 183.365 205.453 184.143 205.637 184.883C205.877 185.845 206.2 186.785 206.603 187.689C206.844 188.228 207.117 188.762 207.515 189.197C207.86 189.575 208.289 189.867 208.736 190.118C210.532 191.125 212.681 191.488 214.709 191.127C216.711 190.769 218.962 189.614 220.154 187.911C221.051 186.63 221.474 184.984 221.115 183.464Z" fill="#19034D"/>
<path d="M209.075 174.933L204.768 174.948C204.796 174.774 204.773 174.583 204.676 174.388C203.891 172.805 201.776 171.157 199.966 171.017C197.789 170.849 195.08 172.283 194.132 174.279C193.993 174.57 193.854 174.783 193.899 175.03L189.053 175.044C188.787 175.047 188.574 175.323 188.577 175.661C188.581 175.999 188.799 176.271 189.065 176.268L209.087 176.157C209.354 176.154 209.567 175.879 209.564 175.54C209.561 175.202 209.342 174.93 209.075 174.933Z" fill="#E01919"/>
<path d="M203.905 226.677C204.941 226.932 205.97 227.225 207.014 227.484C209.001 227.977 210.999 227.906 212.98 228.17C213.011 228.147 213.043 228.134 213.076 228.108C213.079 228.151 214.338 222.405 215.154 219.536C211.696 222.355 207.943 224.791 203.905 226.677Z" fill="url(#paint1_linear_322_1578)"/>
<path d="M213.075 200.398C212.771 199.28 212.358 198.194 211.826 197.164C211.691 196.901 211.403 196.533 211.101 196.144C210.578 198.736 209.463 201.146 207.954 203.302C207.677 203.891 207.384 204.472 207.033 205.015C207.174 205.202 207.316 205.39 207.456 205.578C207.964 206.252 208.521 206.964 209.322 207.229C210.268 207.543 211.334 207.131 212.061 206.449C213.989 204.642 213.714 202.744 213.075 200.398Z" fill="url(#paint2_linear_322_1578)"/>
<path d="M201.582 183.014C201.929 184.482 202.235 185.959 202.501 187.443C202.18 187.079 201.858 186.714 201.536 186.351C201.342 186.13 201.143 185.906 200.889 185.758C200.716 185.657 200.521 185.593 200.361 185.471C199.973 185.172 199.795 185.083 199.312 185.031C199.43 184.675 200.096 184.418 200.387 184.178C200.816 183.823 201.201 183.418 201.582 183.014Z" fill="url(#paint3_linear_322_1578)"/>
<mask id="mask0_322_1578" style="mask-type:luminance" maskUnits="userSpaceOnUse" x="114" y="150" width="41" height="42">
<path d="M134.64 191.274C145.877 191.274 154.987 182.164 154.987 170.926C154.987 159.689 145.877 150.579 134.64 150.579C123.402 150.579 114.292 159.689 114.292 170.926C114.292 182.164 123.402 191.274 134.64 191.274Z" fill="white"/>
</mask>
<g mask="url(#mask0_322_1578)">
<path d="M158.303 149.975H113.085V192.781H158.303V149.975Z" fill="#E6EBF4"/>
</g>
<mask id="mask1_322_1578" style="mask-type:luminance" maskUnits="userSpaceOnUse" x="114" y="150" width="41" height="42">
<path d="M134.64 191.274C145.877 191.274 154.987 182.164 154.987 170.926C154.987 159.689 145.877 150.579 134.64 150.579C123.402 150.579 114.292 159.689 114.292 170.926C114.292 182.164 123.402 191.274 134.64 191.274Z" fill="white"/>
</mask>
<g mask="url(#mask1_322_1578)">
<path d="M164.332 183.021H104.697V189.125H164.332V183.021Z" fill="#ACB9E8"/>
<path d="M164.332 171.561H104.697V177.665H164.332V171.561Z" fill="#ACB9E8"/>
<path d="M164.332 160.865H104.697V166.969H164.332V160.865Z" fill="#ACB9E8"/>
<path d="M164.332 149.405H104.697V155.509H164.332V149.405Z" fill="#ACB9E8"/>
</g>
<path d="M134.64 191.274C145.877 191.274 154.987 182.164 154.987 170.926C154.987 159.689 145.877 150.579 134.64 150.579C123.402 150.579 114.292 159.689 114.292 170.926C114.292 182.164 123.402 191.274 134.64 191.274Z" stroke="#19034D" stroke-width="5" stroke-miterlimit="10"/>
<path d="M134.903 186.207C131.459 186.207 128.03 185.047 125.127 182.84C121.273 179.91 118.973 175.582 118.816 170.967C118.705 167.671 119.681 164.329 121.526 161.577C122.01 160.855 123.008 160.701 123.676 161.259L123.759 161.327C124.339 161.812 124.434 162.651 124.014 163.28C122.527 165.506 121.74 168.204 121.83 170.864C121.956 174.57 123.823 178.061 126.952 180.44C129.765 182.579 133.167 183.516 136.462 183.093C137.209 182.997 137.914 183.454 138.09 184.186L138.116 184.293C138.32 185.139 137.738 185.967 136.875 186.079C136.22 186.165 135.561 186.207 134.903 186.207Z" fill="white"/>
<path d="M72.5338 133.355C72.033 133.134 71.4206 133.189 70.9784 132.866C70.734 132.687 70.5765 132.416 70.4373 132.147C69.998 131.298 69.6695 130.391 69.4626 129.458C69.2132 128.332 69.1779 127.042 69.9005 126.143C71.9743 127.654 72.478 130.589 74.3159 132.38C74.5921 132.649 74.9036 132.899 75.0773 133.243C76.0556 135.177 72.9802 133.552 72.5338 133.355Z" fill="#FF735F"/>
<path d="M72.843 136.231C73.1051 135.704 73.3799 135.222 73.5416 134.859C73.656 134.602 73.7726 134.332 73.7486 134.053C73.6751 133.198 72.5118 132.203 72.1565 131.394C71.6528 130.246 71.4162 128.98 71.484 127.728C71.4918 127.584 71.5172 127.417 71.6423 127.346C71.8061 127.252 72.0032 127.391 72.136 127.526C73.3127 128.716 74.0615 130.225 74.9225 131.639C75.6338 132.807 77.5706 134.35 77.3622 135.798C77.2739 136.411 76.9596 136.966 76.6509 137.503C76.1975 138.294 75.744 139.083 75.2898 139.874C75.056 140.281 74.7685 140.728 74.3087 140.818C73.5473 140.968 72.7265 139.913 72.4277 139.3C71.9184 138.251 72.3528 137.218 72.843 136.231Z" fill="#FF735F"/>
<path d="M72.8579 135.663C74.3568 136.56 75.8564 137.457 77.3552 138.353C72.6778 144.753 70.6937 153.059 71.9729 160.882C72.3352 163.099 72.9483 165.284 73.0557 167.527C73.1786 170.096 72.1417 175.008 69.1433 175.727C68.0718 175.984 66.8759 175.639 66.1074 174.85C65.4194 174.144 65.0973 173.166 64.8318 172.217C62.7431 164.746 62.9154 156.674 65.233 149.277C65.56 148.235 71.6875 134.971 72.8579 135.663Z" fill="#0C7B7D"/>
<mask id="mask2_322_1578" style="mask-type:luminance" maskUnits="userSpaceOnUse" x="68" y="102" width="36" height="36">
<path d="M103.152 123.826C105.376 114.511 99.6269 105.156 90.311 102.932C80.9951 100.708 71.6402 106.457 69.4163 115.773C67.1925 125.089 72.9417 134.444 82.2576 136.668C91.5736 138.892 100.928 133.142 103.152 123.826Z" fill="white"/>
</mask>
<g mask="url(#mask2_322_1578)">
<path d="M106.446 101.947H67.9092V138.428H106.446V101.947Z" fill="#E6EBF4"/>
</g>
<mask id="mask3_322_1578" style="mask-type:luminance" maskUnits="userSpaceOnUse" x="68" y="102" width="36" height="36">
<path d="M103.152 123.826C105.376 114.511 99.6269 105.156 90.311 102.932C80.9951 100.708 71.6402 106.457 69.4163 115.773C67.1925 125.089 72.9417 134.444 82.2576 136.668C91.5736 138.892 100.928 133.142 103.152 123.826Z" fill="white"/>
</mask>
<g mask="url(#mask3_322_1578)">
<path d="M111.584 130.11H60.7598V135.312H111.584V130.11Z" fill="#ACB9E8"/>
<path d="M111.584 120.343H60.7598V125.545H111.584V120.343Z" fill="#ACB9E8"/>
<path d="M111.584 111.228H60.7598V116.43H111.584V111.228Z" fill="#ACB9E8"/>
<path d="M111.584 101.461H60.7598V106.663H111.584V101.461Z" fill="#ACB9E8"/>
</g>
<path d="M87.6072 137.476C77.1286 137.476 68.6045 128.951 68.6045 118.473C68.6045 107.995 79.7873 95.4839 90.2652 95.4839C100.743 95.4839 109.268 104.008 109.268 114.487C109.268 124.965 98.0858 137.476 87.6072 137.476ZM87.6072 102.793C78.9609 102.793 69.9331 112.485 69.9331 121.131C69.9331 129.778 76.9676 136.812 85.6139 136.812C94.2603 136.812 103.287 127.12 103.287 118.473C103.288 109.827 96.2536 102.793 87.6072 102.793Z" fill="#34417D"/>
<path d="M86.2791 138.805C75.8005 138.805 67.2764 130.28 67.2764 119.803C67.2764 109.324 75.8012 100.8 86.2791 100.8C96.7577 100.8 105.282 109.324 105.282 119.803C105.282 130.28 96.757 138.805 86.2791 138.805ZM86.2791 104.122C77.6328 104.122 70.5983 111.156 70.5983 119.802C70.5983 128.448 77.6328 135.483 86.2791 135.483C94.9255 135.483 101.959 128.448 101.959 119.802C101.959 111.156 94.9247 104.122 86.2791 104.122Z" fill="#19034D"/>
<path d="M86.5045 132.825C83.5689 132.825 80.6475 131.837 78.1725 129.955C74.888 127.458 72.9279 123.77 72.7944 119.836C72.6997 117.027 73.5318 114.18 75.1041 111.834C75.5166 111.219 76.3671 111.088 76.9357 111.563L77.0056 111.622C77.5007 112.035 77.5813 112.75 77.2232 113.286C75.956 115.184 75.2857 117.483 75.3619 119.75C75.4686 122.909 77.06 125.883 79.7271 127.911C82.1245 129.734 85.024 130.533 87.8324 130.172C88.4688 130.09 89.0692 130.48 89.2197 131.104L89.2416 131.195C89.4153 131.916 88.9195 132.622 88.1835 132.717C87.6262 132.789 87.0646 132.825 86.5045 132.825Z" fill="white"/>
<path d="M35.3474 246.118C35.3085 246.198 35.2725 246.279 35.2407 246.362C34.6827 247.842 36.3553 249.291 37.1231 250.403C38.3719 252.212 39.6215 254.022 40.8703 255.832C41.2863 256.435 41.7144 257.051 42.3119 257.475C43.7698 258.511 46.4179 258.302 45.9708 255.956C45.7942 255.028 45.1613 254.265 44.6047 253.501C43.4816 251.962 42.4758 250.095 42.3034 248.164C42.1212 246.122 43.1913 244.582 44.2014 242.908C45.0031 241.579 45.5554 240.1 45.8217 238.571C45.8994 238.125 45.9524 237.662 45.8443 237.223C45.7363 236.783 45.4375 236.366 45.0059 236.229C44.7665 236.154 44.5072 236.168 44.26 236.213C42.5394 236.525 41.1076 238.109 40.272 239.534C39.2019 241.36 37.9354 243.07 36.5022 244.627C36.0756 245.091 35.6236 245.556 35.3474 246.118Z" fill="#19034D"/>
<path d="M70.3801 254.694C70.2819 255.362 70.2282 256.154 70.7347 256.601C71.1027 256.927 71.6409 256.947 72.1325 256.954C74.7799 256.991 77.4259 257.138 80.0605 257.396C81.3736 257.525 82.2248 257.445 83.4764 256.999C84.0761 256.786 84.6899 256.392 84.8305 255.771C84.9802 255.107 84.5084 254.433 83.9108 254.106C83.3133 253.779 82.6147 253.711 81.9415 253.609C80.5253 253.393 78.4621 253.32 77.5403 252.086C76.7188 250.986 76.7789 249.417 76.7852 248.116C76.7895 247.184 76.8884 246.251 76.8241 245.321C76.7598 244.391 76.5154 243.44 75.9193 242.724C75.3231 242.008 74.3187 241.58 73.4287 241.856C72.7245 242.075 72.1975 242.687 71.9051 243.364C71.612 244.04 71.5202 244.784 71.4312 245.516C71.061 248.543 70.4628 251.641 70.3801 254.694Z" fill="#19034D"/>
<path d="M98.6296 134.078C98.0405 134.663 97.4062 135.202 96.7479 135.741C95.5916 136.687 94.7525 136.21 93.3963 135.942C93.1766 135.898 92.9499 135.855 92.7302 135.902C92.5113 135.948 92.3001 136.109 92.2683 136.331C92.2118 136.717 93.6075 137.643 93.8731 137.992C94.3817 138.661 94.7878 139.464 94.8231 140.318C94.8676 141.393 94.6275 142.595 94.5837 143.685C94.5575 144.33 94.5222 144.977 94.5257 145.623C94.5328 146.788 94.6239 148.164 95.4659 149.061C96.7507 150.43 98.025 148.83 98.1528 147.558C98.2206 146.884 98.1429 146.205 98.0885 145.53C97.8653 142.774 98.1952 140.268 99.3939 137.771C100.289 135.906 101.592 134.518 101.821 132.356C101.846 132.125 101.856 131.878 101.741 131.676C101.518 131.284 100.913 131.276 100.55 131.545C99.8 132.099 99.3374 133.376 98.6296 134.078Z" fill="#FF735F"/>
<path d="M74.9544 157.427C74.544 155.221 73.8948 152.859 74.8145 150.812C75.5872 149.092 77.4704 147.95 79.3556 148.01C81.2415 148.07 83.0279 149.301 83.8027 151.021C84.377 152.297 84.4384 153.956 83.8281 155.236C83.1995 156.555 82.01 157.198 81.642 158.762C81.3793 159.88 81.3807 161.039 81.2804 162.184C81.2027 163.068 81.0437 163.993 80.4871 164.684C79.7547 165.594 78.4486 165.898 77.3037 165.669C76.4568 165.499 74.5934 164.754 74.1809 163.918C73.7917 163.129 74.6965 162.371 74.9353 161.634C75.364 160.312 75.2037 158.766 74.9544 157.427Z" fill="#FF977D"/>
<path d="M99.1091 142.194H93.6653C93.6879 142.69 93.7063 143.186 93.7211 143.681C93.7762 145.525 93.8313 147.37 93.8871 149.214C93.969 151.946 93.8659 154.274 92.4462 156.659C90.7644 159.485 87.5689 163.042 84.1043 163.497C82.8498 163.662 81.5897 163.346 80.3451 163.119C77.3933 162.58 71.7419 161.741 69.2584 164.003C68.124 165.036 67.8506 166.683 67.5674 168.192C66.8179 172.184 65.5416 176.077 63.7828 179.739C63.0228 181.322 62.1568 182.914 62.0049 184.663C61.817 186.83 62.8236 188.975 64.3768 190.45C66.1455 192.13 68.0696 191.582 70.2557 192.065C72.7385 192.614 75.6183 193.863 78.1251 194.014C80.764 194.174 80.5054 190.83 80.8205 188.921C81.3721 185.58 81.9294 182.217 83.0871 179.034C84.2441 175.852 86.0502 172.826 88.7117 170.733C91.0603 168.886 93.9938 167.838 96.1538 165.741C96.7824 165.131 97.3369 164.442 97.8165 163.701C98.9947 161.877 99.718 159.728 99.9744 157.612C100.086 156.69 100.034 155.758 99.9814 154.831C99.749 150.698 99.1939 146.394 99.1091 142.194Z" fill="#0C7B7D"/>
<path d="M51.4596 215.65C50.9306 217.158 50.3705 218.658 49.734 220.139C46.4601 227.761 41.5793 234.287 37.3398 241.399C37.7107 241.713 44.7141 246.297 44.4068 246.742C53.9516 236.698 62.1056 220.95 67.589 205.231C69.3859 200.079 71.4618 195.028 73.0356 189.824C73.1472 189.455 73.251 189.07 73.186 188.69C73.0878 188.12 72.6316 187.687 72.1908 187.312C69.5413 185.06 66.4842 183.29 63.2118 182.113C63.1828 181.643 63.2739 181.166 63.4752 180.738C63.2711 180.501 62.9059 180.787 62.7364 181.05C59.9485 185.397 59.0316 191.294 57.78 196.298C57.2813 198.347 56.9423 200.477 56.1879 202.418C55.3707 204.521 54.5464 206.628 53.7969 208.76C52.9889 211.061 52.2606 213.366 51.4596 215.65Z" fill="#F5BA00"/>
<path d="M83.0461 151.811C83.1881 150.44 83.6486 149.171 83.6204 147.698C83.614 147.383 83.5674 147.071 83.46 146.764C82.7855 144.826 81.045 146.036 79.6804 145.605C79.1973 145.452 78.7565 145.184 78.2762 145.021C77.4787 144.751 76.4687 144.793 75.7348 145.235C74.9041 145.735 74.95 146.892 74.1978 147.511C73.2329 148.304 72.3775 148.467 71.9325 149.834C71.6952 150.563 72.0003 152.349 71.5257 152.872C71.0899 153.354 69.5302 153.12 68.8613 153.308C66.9655 153.839 65.2781 155.247 64.6028 157.122C64.6127 157.094 61.9752 157.322 61.7181 157.387C60.6508 157.654 59.6287 158.103 58.707 158.702C56.8118 159.936 55.3384 161.764 54.8524 163.99C54.4753 165.72 54.589 167.528 54.9542 169.26C55.1392 170.139 55.3893 171.008 55.7714 171.821C57.0908 174.626 59.936 176.533 62.9662 177.185C65.9964 177.838 69.1834 177.353 72.1063 176.321C75.869 174.994 79.4169 172.647 81.3996 169.185C82.8646 166.626 83.3336 163.4 82.4224 160.571C82.2013 159.885 81.7528 159.292 81.5232 158.63C81.2075 157.717 81.2866 157.836 81.8665 157.052C82.7233 155.894 83.2114 154.735 83.0433 153.259C82.9861 152.756 82.9974 152.277 83.0461 151.811Z" fill="#19034D"/>
<path d="M68.9256 220.924C69.2534 225.823 69.4264 230.732 69.5218 235.64C69.6136 240.37 69.1531 245.385 69.6362 250.09C69.6517 250.247 77.9711 250.109 78.3242 249.722C78.6972 249.314 78.4542 247.313 78.474 246.803C78.5601 244.52 78.6336 242.237 78.712 239.954C78.8052 237.243 78.9451 234.534 79.1146 231.826C79.2764 229.233 80.1586 227.235 80.7427 224.722C81.9619 219.476 81.7832 214.019 81.4109 208.684C80.9349 201.852 80.5972 195.335 81.4844 188.531C80.5831 188.303 79.3442 187.375 78.3426 186.923C76.321 186.011 74.2882 185.115 72.2885 184.154C70.6491 183.366 69.0062 182.587 67.3371 181.864C66.2458 181.392 64.0999 179.879 62.9952 180.813C62.5205 181.215 62.2803 181.823 62.084 182.413C61.1629 185.182 60.8119 188.211 61.5726 191.03C62.4463 194.267 64.6438 196.928 65.7323 200.077C66.986 203.706 66.7423 207.713 67.4706 211.461C68.0801 214.598 68.7123 217.732 68.9256 220.924Z" fill="#F5BA00"/>
<path d="M75.8498 144.669C76.6155 143.282 77.8 142.057 79.3109 141.58C80.3308 141.258 81.6015 141.369 82.2528 142.218C82.8546 143.002 82.7274 144.113 82.4654 145.067C82.0331 146.643 81.3112 148.138 80.3464 149.458C80.0999 149.795 79.8272 150.13 79.4592 150.329C79.1166 150.514 78.7182 150.565 78.3291 150.576C77.3868 150.601 74.7945 150.257 74.3757 149.174C74.1779 148.662 74.7076 147.555 74.8673 147.05C75.1258 146.23 75.4338 145.423 75.8498 144.669Z" fill="#E01919"/>
<path d="M81.6226 146.009C81.1352 144.172 78.9675 143.552 77.3189 143.617C75.4951 143.689 73.7222 144.649 72.7707 146.227C71.0451 149.089 72.5941 155.239 76.8075 154.469C78.122 154.229 79.2154 153.267 79.9239 152.133C80.5447 151.14 80.9128 150.015 81.2426 148.887C81.2892 148.729 81.3344 148.571 81.3803 148.412C81.6057 147.629 81.8317 146.798 81.6226 146.009ZM77.4912 153.115C76.4232 153.754 75.3341 153.663 74.2491 153.115C73.7504 152.862 74.1898 152.114 74.687 152.366C75.4986 152.776 76.2565 152.843 77.054 152.366C77.5336 152.078 77.9694 152.828 77.4912 153.115Z" fill="#E01919"/>
<path d="M64.7223 198.678C64.461 198.545 64.112 198.51 63.6063 198.577C62.9918 201.582 62.3003 204.57 61.5268 207.538C61.1503 208.983 60.8989 210.657 60.283 212.018C59.9015 212.862 59.5152 213.795 60.7018 214.347C61.4505 214.695 62.3547 214.48 63.0624 214.055C64.6531 213.098 65.4668 211.262 66.0587 209.503C66.4366 208.38 66.8399 207.316 66.7488 206.123C66.686 205.303 66.5058 204.499 66.4182 203.682C66.2925 202.507 66.0255 201.282 65.6271 200.17C65.351 199.4 65.1581 198.902 64.7223 198.678Z" fill="url(#paint4_linear_322_1578)"/>
<path d="M205.983 108.436C206.207 109.039 206.371 109.853 205.837 110.211C205.657 110.332 205.434 110.366 205.218 110.396C204.761 110.461 204.304 110.526 203.847 110.591C203.534 110.635 203.215 110.679 202.903 110.63C202.651 110.591 202.413 110.491 202.166 110.43C200.893 110.113 199.618 110.804 198.35 111.136C196.607 111.592 194.101 111.342 192.541 110.354C190.865 109.292 192.011 107.387 193.662 107.159C195.199 106.947 196.833 107.283 198.269 106.695C198.668 106.531 199.064 106.27 199.215 105.866C199.397 105.381 199.179 104.847 198.965 104.375C198.642 103.662 198.317 102.948 197.993 102.235C197.836 101.888 197.556 101.612 197.302 101.338C198.461 101.381 199.698 101.04 200.857 100.82C201.853 100.631 202.716 100.104 203.262 101.129C204.446 103.351 205.103 106.072 205.983 108.436Z" fill="#19034D"/>
<path d="M197.015 27.9104C197.767 30.6016 198.451 33.2072 200.489 35.2119C202.09 36.7863 203.7 37.6989 205.881 38.5027C210.024 40.0291 213.078 39.1518 215.854 35.5424C216.351 34.8968 216.681 34.1142 217.581 33.684C218.48 33.2532 219.709 33.3181 220.601 34.0153C221.493 34.7125 222.015 35.6985 222.254 36.8004C222.335 37.172 222.393 37.5491 222.325 37.9136C222.048 39.3983 221.105 40.3477 220.034 41.3592C218.964 42.3706 217.832 43.4457 216.492 44.0849C213.796 45.3705 211.119 46.3396 208.099 45.8684C202.631 45.0152 197.769 42.2548 194.827 37.5103C193.571 35.4845 193.393 33.0137 192.937 30.7125C192.676 29.3916 192.626 27.9923 192.44 26.6602C193.941 27.2231 195.451 27.6243 197.015 27.9104Z" fill="#BF0033"/>
<path d="M223.811 68.5101C219.346 68.1577 216.033 66.6843 212.059 64.5928C212.024 64.5334 210.585 63.9274 210.55 63.8681C210.551 63.6293 211.411 64.1781 211.407 63.9401C211.352 60.9678 210.377 57.2094 210.217 54.2413C210.02 50.5895 209.819 46.9165 210.176 43.2676C210.339 41.5957 210.53 40.2882 211.505 38.8904C212.343 37.6896 213.427 36.6689 214.629 35.839C216.901 34.2716 219.492 32.825 222.256 33.7574C224.714 34.5866 226.636 36.6039 227.79 38.8812C229.181 41.626 229.624 44.7375 230.049 47.7846C230.464 50.7682 230.879 53.7518 231.295 56.7354C231.465 57.9588 231.416 59.1341 231.586 60.3476C231.788 61.7928 232.335 63.3807 232.335 64.8336C232.418 65.3069 232.315 67.4775 232.298 68.5109C229.266 68.3901 226.841 68.7489 223.811 68.5101Z" fill="#E01919"/>
<path d="M188.702 69.2611C190.286 68.0172 192.682 67.1407 194.371 66.5014C198.289 65.0195 202.464 64.2284 206.662 63.8194C214.083 63.0976 221.203 63.972 228.52 65.1191C228.861 65.1728 229.209 65.2286 229.507 65.4024C230.155 65.7817 230.386 66.6123 230.401 67.3639C230.431 68.7653 229.929 70.1165 229.433 71.4275C228.958 72.6855 228.78 74.6032 227.915 75.6132C227.182 76.4545 225.986 77.0549 224.889 77.413C222.696 78.1307 220.362 78.5142 218.09 78.6639C215.28 78.849 212.596 78.5686 209.838 78.4174C206.548 78.2366 203.075 78.7847 199.775 78.9006C201.478 86.7996 203.509 94.6428 205.044 102.56C203.014 103.202 200.916 103.605 198.827 104.074C198.356 104.179 197.884 104.314 197.409 104.457C197.326 104.328 197.249 104.195 197.175 104.062C194.669 99.5547 191.896 95.3216 189.963 90.5072C188.2 86.1159 186.423 81.4505 186.341 76.6593C186.306 74.6569 186.478 71.6528 187.871 70.043C188.108 69.7661 188.389 69.5062 188.702 69.2611Z" fill="black"/>
<path d="M220.299 29.9792C220.109 29.1549 219.918 28.3306 219.727 27.5063C219.445 26.2851 219.159 25.0567 218.676 23.8997C218.193 22.7428 217.497 21.6493 216.515 20.8702C216.064 20.5114 215.547 20.2197 214.982 20.1046C214.532 20.0127 214.067 20.0353 213.609 20.0756C212.72 20.1533 211.821 20.2988 210.993 20.6449C208.261 21.7871 208.955 26.189 209.74 28.277C210.151 29.3711 210.724 30.5634 211.828 30.9462C212.193 31.0727 212.591 31.0981 212.937 31.2683C213.869 31.726 214.388 32.9558 214.654 33.8874C214.853 34.5804 214.965 35.2938 215.035 36.0107C215.067 36.3342 214.887 37.0759 215.175 37.2962C215.478 37.5279 216.495 37.2736 216.834 37.1988C217.961 36.9508 219 36.3865 219.945 35.7416C220.384 35.4421 220.821 35.1122 221.097 34.6588C221.566 33.8888 221.206 33.4566 220.943 32.7601C220.617 31.897 220.508 30.8784 220.299 29.9792Z" fill="#FF735F"/>
<path d="M207.581 136.995C207.316 137.759 207 138.476 206.652 139.075C206.129 139.975 205.468 140.816 205.169 141.812C204.869 142.809 205.045 144.056 205.916 144.626C206.633 145.095 207.571 144.972 208.417 144.831C209.318 144.68 210.268 144.507 210.959 143.911C211.532 143.416 211.851 142.693 212.101 141.979C212.491 140.864 212.761 139.708 212.905 138.536C212.978 137.942 213.024 137.324 213.311 136.799C213.859 135.791 215.175 135.322 215.565 134.244C215.816 133.551 215.613 132.786 215.43 132.072C215.024 130.486 214.724 128.873 214.532 127.247C214.448 126.543 214.678 123.592 214.166 123.183C212.957 122.214 208.106 125.035 206.825 125.467C207.078 125.381 208.373 132.072 208.375 132.747C208.377 134.02 208.068 135.587 207.581 136.995Z" fill="#19034D"/>
<path d="M219.849 25.0371C219.853 24.9777 219.856 24.9177 219.859 24.8591C219.94 23.3094 220.059 21.6092 219.04 20.3251C218.132 19.1822 216.865 18.9661 215.095 18.8368C213.057 18.6878 210.453 18.0944 208.452 18.6616C207.58 18.9088 206.762 19.6399 206.76 20.5469C206.758 21.516 207.678 22.2668 208.62 22.4964C210.27 22.8983 212.752 21.8402 213.454 24.092C213.863 25.4037 213.966 26.6313 215.451 27.2013C216.352 27.5467 217.373 27.4697 218.287 27.1632C218.746 27.0092 219.206 26.7839 219.485 26.389C219.759 26.0019 219.819 25.5139 219.849 25.0371Z" fill="#19034D"/>
<path d="M217.759 16.9473C217.769 16.8838 217.8 16.8259 217.851 16.775C218.019 16.5433 218.333 16.4303 218.635 16.7496C218.773 16.8951 218.771 17.0695 218.698 17.2073C218.638 17.463 218.393 17.641 218.117 17.5802C217.747 17.499 217.673 17.2016 217.759 16.9473Z" fill="#E01919"/>
<path d="M207.654 16.7672C208.047 16.8505 208.434 16.9642 208.82 17.0758C209.457 17.2595 210.094 17.4396 210.732 17.6162C210.946 17.6755 211.165 17.7391 211.386 17.7539C211.592 17.7674 211.652 17.7024 211.805 17.5738C212.1 17.3252 212.384 17.0532 212.728 16.8703C213.003 16.7234 213.291 16.6012 213.588 16.5037C214.181 16.3102 214.808 16.2183 215.432 16.2402C215.544 16.2445 215.656 16.2515 215.768 16.2628C217.128 16.4013 218.424 17.0907 219.299 18.1417C220.173 19.1927 220.616 20.5927 220.505 21.9553C220.493 22.1029 220.461 22.3755 220.319 22.4638C220.194 22.5415 220.053 22.4539 219.922 22.4193C219.504 22.3084 219.157 22.1163 218.765 21.9418C218.429 21.7921 218.092 21.6438 217.755 21.4961C217.484 21.3775 217.212 21.2595 216.94 21.143C214.4 20.0538 211.825 19.0536 209.218 18.1346C208.55 17.8994 207.88 17.6685 207.209 17.4424C206.984 17.3669 206.372 17.1479 206.566 16.7869C206.638 16.6527 206.823 16.6436 206.975 16.6584C207.203 16.681 207.429 16.7191 207.654 16.7672Z" fill="#0C7B7D"/>
<path d="M232.529 67.8782C232.546 67.0108 232.501 66.123 232.385 65.2118C229.245 65.055 226.112 64.7689 222.996 64.355C223.18 64.3797 222.554 65.56 222.454 65.6667C222.071 66.0742 221.552 66.212 221.045 66.4373C219.739 67.0186 218.456 67.6896 217.282 68.5097C214.266 70.6181 212.681 72.6983 210.592 75.7702C208.531 78.8004 207.656 82.2396 206.175 85.4838C204.455 89.2493 203.441 93.0021 203.233 97.1582C203.218 97.4337 203.208 97.7092 203.199 97.9854C203.069 102.324 203.608 106.661 204.145 110.971C204.958 117.498 205.772 124.025 206.585 130.552C209.604 130.346 212.556 129.573 215.533 128.975C215.539 128.922 215.548 128.868 215.552 128.815C216.381 117.492 216.184 105.984 219.031 94.994C220.402 89.7035 224.371 85.7791 227.367 81.3884C230.235 77.1857 232.428 72.8735 232.529 67.8782Z" fill="black"/>
<path d="M221.472 68.3506C222.961 70.6624 225.715 71.4295 228.194 70.2302C228.57 70.0479 228.902 70.6109 228.523 70.7938C225.905 72.061 223.008 71.402 221.261 69.1749C221.216 69.1495 221.174 69.1156 221.14 69.0612C221.063 68.934 220.986 68.8076 220.908 68.6804C220.688 68.3188 221.245 67.9981 221.472 68.3506Z" fill="#320699"/>
<path d="M215.298 36.311C215.415 36.3131 214.927 33.812 214.854 33.5895C214.702 33.1233 214.504 32.6734 214.258 32.2488C214.139 32.0426 213.521 31.45 213.995 31.3179C214.466 31.1872 215.12 31.2967 215.639 31.1837C216.49 30.9972 217.313 30.6822 218.068 30.2471C217.785 32.0165 217.216 33.7392 216.39 35.3292C216.175 35.741 215.826 36.3209 215.298 36.311Z" fill="url(#paint5_linear_322_1578)"/>
<path d="M213.718 26.6574L213.737 26.1947C213.749 25.862 213.913 25.4869 214.23 25.3337C215.151 24.8901 216.541 25.0667 216.947 26.1502C217.458 27.5113 215.774 28.128 214.716 28.0361C214.197 27.9909 213.693 27.6102 213.719 27.0395C213.721 26.9872 213.73 26.9349 213.741 26.882C213.725 26.8099 213.715 26.7358 213.718 26.6574Z" fill="#FF735F"/>
<path opacity="0.6" d="M209.086 78.4838C209.799 76.9298 210.82 75.5418 211.724 74.0903C212.627 72.6388 213.432 71.0728 213.633 69.3748C209.862 73.2074 205.494 76.4608 200.707 78.9104C203.528 78.7296 206.265 78.6653 209.086 78.4838Z" fill="url(#paint6_linear_322_1578)"/>
<path d="M211.671 25.9826L202.978 27.2999V23.3486L211.671 24.666V25.9826Z" fill="#19034D"/>
<path d="M112.892 10.8689V10.8767C112.944 10.8774 112.996 10.8788 113.048 10.8802L112.892 10.8689Z" fill="#0C7B7D"/>
<path d="M116.317 38.6699L112.892 39.0697C114.131 39.0457 115.265 38.9016 116.317 38.6699Z" fill="#0C7B7D"/>
<path d="M116.317 38.67L203.692 28.4682C205.2 28.2924 206.338 27.0139 206.338 25.4945C206.338 23.9893 205.222 22.7186 203.729 22.5258L114.646 10.9976C122.361 11.9186 125.535 18.7624 125.535 25.9134C125.535 32.4845 122.53 37.3032 116.317 38.67Z" fill="#0C7B7D"/>
<path opacity="0.34" d="M112.497 38.0081C119.698 38.0081 125.536 32.1703 125.536 24.969C125.536 17.7677 119.698 11.9299 112.497 11.9299C105.296 11.9299 99.458 17.7677 99.458 24.969C99.458 32.1703 105.296 38.0081 112.497 38.0081Z" fill="#0C3DF0"/>
<path d="M112.497 38.0081C119.698 38.0081 125.536 32.1703 125.536 24.969C125.536 17.7677 119.698 11.9299 112.497 11.9299C105.296 11.9299 99.458 17.7677 99.458 24.969C99.458 32.1703 105.296 38.0081 112.497 38.0081Z" stroke="#19034D" stroke-width="6" stroke-miterlimit="10"/>
<path d="M113.057 32.4435C111.263 32.4435 109.477 31.8396 107.965 30.6897C105.957 29.1633 104.76 26.9093 104.678 24.5049C104.62 22.7885 105.129 21.0481 106.09 19.6142C106.342 19.2384 106.862 19.1579 107.209 19.4482L107.252 19.4843C107.555 19.7371 107.604 20.1736 107.385 20.5014C106.61 21.6605 106.201 23.0661 106.248 24.452C106.313 26.3824 107.285 28.2005 108.916 29.4395C110.381 30.5534 112.153 31.0414 113.869 30.8211C114.258 30.7709 114.625 31.0089 114.717 31.3904L114.73 31.4462C114.837 31.8869 114.533 32.3178 114.084 32.3764C113.743 32.4209 113.399 32.4435 113.057 32.4435Z" fill="white"/>
<mask id="mask4_322_1578" style="mask-type:luminance" maskUnits="userSpaceOnUse" x="119" y="11" width="92" height="28">
<path d="M210.881 23.3487L119.395 11.5352V38.403L204.559 28.0904L210.881 23.3487Z" fill="white"/>
</mask>
<g mask="url(#mask4_322_1578)">
<path d="M132.254 38.403V37.6126C139.226 37.6126 144.897 31.9407 144.897 24.9691C144.897 17.9975 139.226 12.3256 132.254 12.3256V11.5352C139.661 11.5352 145.688 17.5617 145.688 24.9691C145.688 32.3765 139.661 38.403 132.254 38.403Z" fill="#19034D"/>
<path d="M152.404 36.0324V35.242C158.068 35.242 162.677 30.6338 162.677 24.969C162.677 19.3041 158.068 14.6959 152.404 14.6959V13.9055C158.505 13.9055 163.468 18.8683 163.468 24.969C163.467 31.0696 158.504 36.0324 152.404 36.0324Z" fill="#19034D"/>
<path d="M188.755 31.291V30.5006C191.805 30.5006 194.286 28.0192 194.286 24.9692C194.286 21.9192 191.804 19.4379 188.755 19.4379V18.6475C192.241 18.6475 195.077 21.4834 195.077 24.9692C195.077 28.455 192.241 31.291 188.755 31.291Z" fill="#19034D"/>
<path d="M171.765 33.662V32.8716C176.121 32.8716 179.667 29.3265 179.667 24.9691C179.667 20.6117 176.122 17.0665 171.765 17.0665V16.2761C176.558 16.2761 180.457 20.1758 180.457 24.9684C180.458 29.7623 176.558 33.662 171.765 33.662Z" fill="#19034D"/>
</g>
<path d="M210.377 28.709C210.858 28.5691 211.327 28.3883 211.777 28.1672" stroke="#19034D" stroke-width="0.5" stroke-miterlimit="10"/>
<path d="M192.504 33.4161C192.312 32.9047 192.048 32.4067 191.864 32.0373C191.644 31.5958 191.391 31.1473 191.38 30.655C191.364 29.9366 191.445 29.2967 191.31 28.5804C191.203 28.0118 191.073 27.4468 190.924 26.8873C190.869 26.6811 190.284 24.461 189.841 24.8891C189.778 24.9498 189.753 25.0395 189.739 25.1264C189.616 25.8815 189.705 26.6366 189.627 27.3938C189.611 27.5442 189.507 27.7441 189.37 27.6806C189.089 27.5492 188.84 26.4063 188.711 26.1139C188.317 25.2225 187.887 24.3459 187.476 23.4623C187.203 22.876 186.768 22.1902 186.123 22.2558C185.777 22.2912 185.488 22.5575 185.331 22.8675C185.173 23.1776 185.123 23.5301 185.074 23.8748C184.986 24.5077 184.898 25.1405 184.81 25.7734C184.757 26.1556 184.704 26.5426 184.745 26.9255C184.782 27.2681 184.894 27.5972 185.005 27.9235C185.405 29.101 185.673 30.376 186.439 31.3655C187.187 32.3325 188.338 33.1307 188.937 34.1966C189.267 34.6847 189.44 35.2526 189.842 35.7272C190.121 36.0564 190.493 36.3672 190.924 36.3537C191.656 36.3311 192.494 35.5994 192.697 34.9064C192.82 34.4798 192.7 33.9409 192.504 33.4161Z" fill="#FF735F"/>
<path d="M219.038 50.9143C212.929 52.5446 207.854 52.416 201.581 50.3719C193.999 47.9004 191.504 42.0172 188.583 34.958C190.023 33.9197 191.492 32.9753 192.964 31.9766C197.545 39.9279 200.241 43.4384 209.653 43.9533C211.981 44.0805 213.006 43.8396 214.869 42.9722C217.263 41.8576 218.572 39.55 220.477 37.7495C220.964 37.289 221.739 36.7684 222.387 36.3799C222.787 36.1405 223.192 35.8311 223.73 35.841C224.267 35.8509 224.813 36.1503 225.247 36.4936C226.023 37.1074 226.848 37.8336 227.336 38.6663C227.825 39.4991 227.945 40.3164 227.719 41.2141C226.99 44.1193 225.295 46.304 223.154 48.3157C222.561 48.873 222.03 49.2184 221.314 49.6521C220.597 50.0858 219.941 50.6735 219.038 50.9143Z" fill="#E01919"/>
<path opacity="0.6" d="M223.233 49.5144C221.91 50.3062 220.481 50.8147 219.014 51.2195C217.645 51.8064 216.076 52.3736 214.833 52.2161C214.755 52.2345 214.677 52.2521 214.6 52.2705C218.129 54.013 221.54 55.995 224.791 58.2137C224.767 58.1974 225.363 56.7205 226.14 54.8381C226.676 51.8707 227.156 48.8928 227.601 45.9092C226.385 47.3904 224.713 48.6286 223.233 49.5144Z" fill="url(#paint7_linear_322_1578)"/>
<defs>
<linearGradient id="paint0_linear_322_1578" x1="214.728" y1="217.207" x2="215.057" y2="217.244" gradientUnits="userSpaceOnUse">
<stop offset="0.0184" stop-color="#022A5D"/>
<stop offset="1" stop-color="#0C4691"/>
</linearGradient>
<linearGradient id="paint1_linear_322_1578" x1="217.324" y1="227.385" x2="205.731" y2="221.022" gradientUnits="userSpaceOnUse">
<stop offset="0.2654" stop-color="#201B59" stop-opacity="0.9148"/>
<stop offset="0.5554" stop-color="#0C7B7D" stop-opacity="0"/>
</linearGradient>
<linearGradient id="paint2_linear_322_1578" x1="206.256" y1="199.649" x2="215.321" y2="204.356" gradientUnits="userSpaceOnUse">
<stop offset="0.1594" stop-color="#201B59" stop-opacity="0.9148"/>
<stop offset="0.7166" stop-color="#FFCC00" stop-opacity="0"/>
</linearGradient>
<linearGradient id="paint3_linear_322_1578" x1="198.206" y1="182.184" x2="205.005" y2="187.762" gradientUnits="userSpaceOnUse">
<stop offset="0.2654" stop-color="#201B59" stop-opacity="0.9148"/>
<stop offset="0.5554" stop-color="#FF735F" stop-opacity="0"/>
</linearGradient>
<linearGradient id="paint4_linear_322_1578" x1="71.0018" y1="204.683" x2="60.4321" y2="207.058" gradientUnits="userSpaceOnUse">
<stop offset="0.1594" stop-color="#201B59" stop-opacity="0.9148"/>
<stop offset="0.7166" stop-color="#FFCC00" stop-opacity="0"/>
</linearGradient>
<linearGradient id="paint5_linear_322_1578" x1="216.162" y1="28.751" x2="215.395" y2="36.1789" gradientUnits="userSpaceOnUse">
<stop offset="0.2654" stop-color="#201B59" stop-opacity="0.9148"/>
<stop offset="0.5554" stop-color="#FF735F" stop-opacity="0"/>
</linearGradient>
<linearGradient id="paint6_linear_322_1578" x1="214.442" y1="80.9406" x2="202.617" y2="69.8869" gradientUnits="userSpaceOnUse">
<stop offset="0.2654" stop-color="#19034D" stop-opacity="0.9148"/>
<stop offset="0.5554" stop-color="#320699" stop-opacity="0"/>
</linearGradient>
<linearGradient id="paint7_linear_322_1578" x1="220.144" y1="40.6744" x2="222.648" y2="62.7302" gradientUnits="userSpaceOnUse">
<stop offset="0.2654" stop-color="#19034D" stop-opacity="0.9148"/>
<stop offset="0.5554" stop-color="#320699" stop-opacity="0"/>
</linearGradient>
</defs>
</svg>
